G75*
%MOIN*%
%OFA0B0*%
%FSLAX25Y25*%
%IPPOS*%
%LPD*%
%AMOC8*
5,1,8,0,0,1.08239X$1,22.5*
%
%ADD10C,0.00000*%
%ADD11R,0.05118X0.05906*%
%ADD12R,0.04331X0.03937*%
%ADD13R,0.03937X0.04331*%
%ADD14R,0.05906X0.05118*%
%ADD15R,0.03150X0.04724*%
%ADD16C,0.00276*%
%ADD17C,0.00541*%
%ADD18R,0.18504X0.18504*%
%ADD19R,0.04724X0.02362*%
%ADD20R,0.06890X0.01575*%
%ADD21R,0.04724X0.04724*%
%ADD22R,0.09055X0.05906*%
%ADD23R,0.05118X0.05118*%
%ADD24R,0.14173X0.05118*%
%ADD25R,0.05906X0.03150*%
%ADD26R,0.03150X0.05906*%
%ADD27R,0.04331X0.04724*%
%ADD28R,0.04331X0.02953*%
%ADD29R,0.04331X0.03346*%
%ADD30R,0.04331X0.03445*%
%ADD31R,0.03937X0.04724*%
%ADD32R,0.05315X0.07480*%
%ADD33R,0.07087X0.04606*%
%ADD34R,0.05315X0.06102*%
%ADD35R,0.05906X0.04724*%
%ADD36R,0.06300X0.04600*%
%ADD37R,0.01000X0.04200*%
%ADD38R,0.05000X0.03937*%
%ADD39R,0.42520X0.40984*%
%ADD40R,0.04200X0.08500*%
%ADD41R,0.11417X0.21260*%
%ADD42R,0.07087X0.08661*%
%ADD43R,0.04600X0.06300*%
%ADD44R,0.03937X0.05000*%
%ADD45C,0.00581*%
D10*
X0146800Y0181800D02*
X0146800Y0496761D01*
X0540501Y0496761D01*
X0540501Y0181800D01*
X0146800Y0181800D01*
X0156249Y0197548D02*
X0156251Y0197706D01*
X0156257Y0197864D01*
X0156267Y0198022D01*
X0156281Y0198180D01*
X0156299Y0198337D01*
X0156320Y0198494D01*
X0156346Y0198650D01*
X0156376Y0198806D01*
X0156409Y0198961D01*
X0156447Y0199114D01*
X0156488Y0199267D01*
X0156533Y0199419D01*
X0156582Y0199570D01*
X0156635Y0199719D01*
X0156691Y0199867D01*
X0156751Y0200013D01*
X0156815Y0200158D01*
X0156883Y0200301D01*
X0156954Y0200443D01*
X0157028Y0200583D01*
X0157106Y0200720D01*
X0157188Y0200856D01*
X0157272Y0200990D01*
X0157361Y0201121D01*
X0157452Y0201250D01*
X0157547Y0201377D01*
X0157644Y0201502D01*
X0157745Y0201624D01*
X0157849Y0201743D01*
X0157956Y0201860D01*
X0158066Y0201974D01*
X0158179Y0202085D01*
X0158294Y0202194D01*
X0158412Y0202299D01*
X0158533Y0202401D01*
X0158656Y0202501D01*
X0158782Y0202597D01*
X0158910Y0202690D01*
X0159040Y0202780D01*
X0159173Y0202866D01*
X0159308Y0202950D01*
X0159444Y0203029D01*
X0159583Y0203106D01*
X0159724Y0203178D01*
X0159866Y0203248D01*
X0160010Y0203313D01*
X0160156Y0203375D01*
X0160303Y0203433D01*
X0160452Y0203488D01*
X0160602Y0203539D01*
X0160753Y0203586D01*
X0160905Y0203629D01*
X0161058Y0203668D01*
X0161213Y0203704D01*
X0161368Y0203735D01*
X0161524Y0203763D01*
X0161680Y0203787D01*
X0161837Y0203807D01*
X0161995Y0203823D01*
X0162152Y0203835D01*
X0162311Y0203843D01*
X0162469Y0203847D01*
X0162627Y0203847D01*
X0162785Y0203843D01*
X0162944Y0203835D01*
X0163101Y0203823D01*
X0163259Y0203807D01*
X0163416Y0203787D01*
X0163572Y0203763D01*
X0163728Y0203735D01*
X0163883Y0203704D01*
X0164038Y0203668D01*
X0164191Y0203629D01*
X0164343Y0203586D01*
X0164494Y0203539D01*
X0164644Y0203488D01*
X0164793Y0203433D01*
X0164940Y0203375D01*
X0165086Y0203313D01*
X0165230Y0203248D01*
X0165372Y0203178D01*
X0165513Y0203106D01*
X0165652Y0203029D01*
X0165788Y0202950D01*
X0165923Y0202866D01*
X0166056Y0202780D01*
X0166186Y0202690D01*
X0166314Y0202597D01*
X0166440Y0202501D01*
X0166563Y0202401D01*
X0166684Y0202299D01*
X0166802Y0202194D01*
X0166917Y0202085D01*
X0167030Y0201974D01*
X0167140Y0201860D01*
X0167247Y0201743D01*
X0167351Y0201624D01*
X0167452Y0201502D01*
X0167549Y0201377D01*
X0167644Y0201250D01*
X0167735Y0201121D01*
X0167824Y0200990D01*
X0167908Y0200856D01*
X0167990Y0200720D01*
X0168068Y0200583D01*
X0168142Y0200443D01*
X0168213Y0200301D01*
X0168281Y0200158D01*
X0168345Y0200013D01*
X0168405Y0199867D01*
X0168461Y0199719D01*
X0168514Y0199570D01*
X0168563Y0199419D01*
X0168608Y0199267D01*
X0168649Y0199114D01*
X0168687Y0198961D01*
X0168720Y0198806D01*
X0168750Y0198650D01*
X0168776Y0198494D01*
X0168797Y0198337D01*
X0168815Y0198180D01*
X0168829Y0198022D01*
X0168839Y0197864D01*
X0168845Y0197706D01*
X0168847Y0197548D01*
X0168845Y0197390D01*
X0168839Y0197232D01*
X0168829Y0197074D01*
X0168815Y0196916D01*
X0168797Y0196759D01*
X0168776Y0196602D01*
X0168750Y0196446D01*
X0168720Y0196290D01*
X0168687Y0196135D01*
X0168649Y0195982D01*
X0168608Y0195829D01*
X0168563Y0195677D01*
X0168514Y0195526D01*
X0168461Y0195377D01*
X0168405Y0195229D01*
X0168345Y0195083D01*
X0168281Y0194938D01*
X0168213Y0194795D01*
X0168142Y0194653D01*
X0168068Y0194513D01*
X0167990Y0194376D01*
X0167908Y0194240D01*
X0167824Y0194106D01*
X0167735Y0193975D01*
X0167644Y0193846D01*
X0167549Y0193719D01*
X0167452Y0193594D01*
X0167351Y0193472D01*
X0167247Y0193353D01*
X0167140Y0193236D01*
X0167030Y0193122D01*
X0166917Y0193011D01*
X0166802Y0192902D01*
X0166684Y0192797D01*
X0166563Y0192695D01*
X0166440Y0192595D01*
X0166314Y0192499D01*
X0166186Y0192406D01*
X0166056Y0192316D01*
X0165923Y0192230D01*
X0165788Y0192146D01*
X0165652Y0192067D01*
X0165513Y0191990D01*
X0165372Y0191918D01*
X0165230Y0191848D01*
X0165086Y0191783D01*
X0164940Y0191721D01*
X0164793Y0191663D01*
X0164644Y0191608D01*
X0164494Y0191557D01*
X0164343Y0191510D01*
X0164191Y0191467D01*
X0164038Y0191428D01*
X0163883Y0191392D01*
X0163728Y0191361D01*
X0163572Y0191333D01*
X0163416Y0191309D01*
X0163259Y0191289D01*
X0163101Y0191273D01*
X0162944Y0191261D01*
X0162785Y0191253D01*
X0162627Y0191249D01*
X0162469Y0191249D01*
X0162311Y0191253D01*
X0162152Y0191261D01*
X0161995Y0191273D01*
X0161837Y0191289D01*
X0161680Y0191309D01*
X0161524Y0191333D01*
X0161368Y0191361D01*
X0161213Y0191392D01*
X0161058Y0191428D01*
X0160905Y0191467D01*
X0160753Y0191510D01*
X0160602Y0191557D01*
X0160452Y0191608D01*
X0160303Y0191663D01*
X0160156Y0191721D01*
X0160010Y0191783D01*
X0159866Y0191848D01*
X0159724Y0191918D01*
X0159583Y0191990D01*
X0159444Y0192067D01*
X0159308Y0192146D01*
X0159173Y0192230D01*
X0159040Y0192316D01*
X0158910Y0192406D01*
X0158782Y0192499D01*
X0158656Y0192595D01*
X0158533Y0192695D01*
X0158412Y0192797D01*
X0158294Y0192902D01*
X0158179Y0193011D01*
X0158066Y0193122D01*
X0157956Y0193236D01*
X0157849Y0193353D01*
X0157745Y0193472D01*
X0157644Y0193594D01*
X0157547Y0193719D01*
X0157452Y0193846D01*
X0157361Y0193975D01*
X0157272Y0194106D01*
X0157188Y0194240D01*
X0157106Y0194376D01*
X0157028Y0194513D01*
X0156954Y0194653D01*
X0156883Y0194795D01*
X0156815Y0194938D01*
X0156751Y0195083D01*
X0156691Y0195229D01*
X0156635Y0195377D01*
X0156582Y0195526D01*
X0156533Y0195677D01*
X0156488Y0195829D01*
X0156447Y0195982D01*
X0156409Y0196135D01*
X0156376Y0196290D01*
X0156346Y0196446D01*
X0156320Y0196602D01*
X0156299Y0196759D01*
X0156281Y0196916D01*
X0156267Y0197074D01*
X0156257Y0197232D01*
X0156251Y0197390D01*
X0156249Y0197548D01*
X0163355Y0236003D02*
X0163357Y0236094D01*
X0163363Y0236184D01*
X0163373Y0236275D01*
X0163387Y0236364D01*
X0163405Y0236453D01*
X0163426Y0236542D01*
X0163452Y0236629D01*
X0163481Y0236715D01*
X0163515Y0236799D01*
X0163551Y0236882D01*
X0163592Y0236964D01*
X0163636Y0237043D01*
X0163683Y0237121D01*
X0163734Y0237196D01*
X0163788Y0237269D01*
X0163845Y0237339D01*
X0163905Y0237407D01*
X0163968Y0237473D01*
X0164034Y0237535D01*
X0164103Y0237594D01*
X0164174Y0237651D01*
X0164248Y0237704D01*
X0164324Y0237754D01*
X0164402Y0237801D01*
X0164482Y0237844D01*
X0164563Y0237883D01*
X0164647Y0237919D01*
X0164732Y0237951D01*
X0164818Y0237980D01*
X0164905Y0238004D01*
X0164994Y0238025D01*
X0165083Y0238042D01*
X0165173Y0238055D01*
X0165263Y0238064D01*
X0165354Y0238069D01*
X0165445Y0238070D01*
X0165535Y0238067D01*
X0165626Y0238060D01*
X0165716Y0238049D01*
X0165806Y0238034D01*
X0165895Y0238015D01*
X0165983Y0237993D01*
X0166069Y0237966D01*
X0166155Y0237936D01*
X0166239Y0237902D01*
X0166322Y0237864D01*
X0166403Y0237823D01*
X0166482Y0237778D01*
X0166559Y0237729D01*
X0166633Y0237678D01*
X0166706Y0237623D01*
X0166776Y0237565D01*
X0166843Y0237504D01*
X0166907Y0237440D01*
X0166969Y0237374D01*
X0167028Y0237304D01*
X0167083Y0237233D01*
X0167136Y0237158D01*
X0167185Y0237082D01*
X0167231Y0237004D01*
X0167273Y0236923D01*
X0167312Y0236841D01*
X0167347Y0236757D01*
X0167378Y0236672D01*
X0167405Y0236585D01*
X0167429Y0236498D01*
X0167449Y0236409D01*
X0167465Y0236320D01*
X0167477Y0236230D01*
X0167485Y0236139D01*
X0167489Y0236048D01*
X0167489Y0235958D01*
X0167485Y0235867D01*
X0167477Y0235776D01*
X0167465Y0235686D01*
X0167449Y0235597D01*
X0167429Y0235508D01*
X0167405Y0235421D01*
X0167378Y0235334D01*
X0167347Y0235249D01*
X0167312Y0235165D01*
X0167273Y0235083D01*
X0167231Y0235002D01*
X0167185Y0234924D01*
X0167136Y0234848D01*
X0167083Y0234773D01*
X0167028Y0234702D01*
X0166969Y0234632D01*
X0166907Y0234566D01*
X0166843Y0234502D01*
X0166776Y0234441D01*
X0166706Y0234383D01*
X0166633Y0234328D01*
X0166559Y0234277D01*
X0166482Y0234228D01*
X0166403Y0234183D01*
X0166322Y0234142D01*
X0166239Y0234104D01*
X0166155Y0234070D01*
X0166069Y0234040D01*
X0165983Y0234013D01*
X0165895Y0233991D01*
X0165806Y0233972D01*
X0165716Y0233957D01*
X0165626Y0233946D01*
X0165535Y0233939D01*
X0165445Y0233936D01*
X0165354Y0233937D01*
X0165263Y0233942D01*
X0165173Y0233951D01*
X0165083Y0233964D01*
X0164994Y0233981D01*
X0164905Y0234002D01*
X0164818Y0234026D01*
X0164732Y0234055D01*
X0164647Y0234087D01*
X0164563Y0234123D01*
X0164482Y0234162D01*
X0164402Y0234205D01*
X0164324Y0234252D01*
X0164248Y0234302D01*
X0164174Y0234355D01*
X0164103Y0234412D01*
X0164034Y0234471D01*
X0163968Y0234533D01*
X0163905Y0234599D01*
X0163845Y0234667D01*
X0163788Y0234737D01*
X0163734Y0234810D01*
X0163683Y0234885D01*
X0163636Y0234963D01*
X0163592Y0235042D01*
X0163551Y0235124D01*
X0163515Y0235207D01*
X0163481Y0235291D01*
X0163452Y0235377D01*
X0163426Y0235464D01*
X0163405Y0235553D01*
X0163387Y0235642D01*
X0163373Y0235731D01*
X0163363Y0235822D01*
X0163357Y0235912D01*
X0163355Y0236003D01*
X0163355Y0255097D02*
X0163357Y0255188D01*
X0163363Y0255278D01*
X0163373Y0255369D01*
X0163387Y0255458D01*
X0163405Y0255547D01*
X0163426Y0255636D01*
X0163452Y0255723D01*
X0163481Y0255809D01*
X0163515Y0255893D01*
X0163551Y0255976D01*
X0163592Y0256058D01*
X0163636Y0256137D01*
X0163683Y0256215D01*
X0163734Y0256290D01*
X0163788Y0256363D01*
X0163845Y0256433D01*
X0163905Y0256501D01*
X0163968Y0256567D01*
X0164034Y0256629D01*
X0164103Y0256688D01*
X0164174Y0256745D01*
X0164248Y0256798D01*
X0164324Y0256848D01*
X0164402Y0256895D01*
X0164482Y0256938D01*
X0164563Y0256977D01*
X0164647Y0257013D01*
X0164732Y0257045D01*
X0164818Y0257074D01*
X0164905Y0257098D01*
X0164994Y0257119D01*
X0165083Y0257136D01*
X0165173Y0257149D01*
X0165263Y0257158D01*
X0165354Y0257163D01*
X0165445Y0257164D01*
X0165535Y0257161D01*
X0165626Y0257154D01*
X0165716Y0257143D01*
X0165806Y0257128D01*
X0165895Y0257109D01*
X0165983Y0257087D01*
X0166069Y0257060D01*
X0166155Y0257030D01*
X0166239Y0256996D01*
X0166322Y0256958D01*
X0166403Y0256917D01*
X0166482Y0256872D01*
X0166559Y0256823D01*
X0166633Y0256772D01*
X0166706Y0256717D01*
X0166776Y0256659D01*
X0166843Y0256598D01*
X0166907Y0256534D01*
X0166969Y0256468D01*
X0167028Y0256398D01*
X0167083Y0256327D01*
X0167136Y0256252D01*
X0167185Y0256176D01*
X0167231Y0256098D01*
X0167273Y0256017D01*
X0167312Y0255935D01*
X0167347Y0255851D01*
X0167378Y0255766D01*
X0167405Y0255679D01*
X0167429Y0255592D01*
X0167449Y0255503D01*
X0167465Y0255414D01*
X0167477Y0255324D01*
X0167485Y0255233D01*
X0167489Y0255142D01*
X0167489Y0255052D01*
X0167485Y0254961D01*
X0167477Y0254870D01*
X0167465Y0254780D01*
X0167449Y0254691D01*
X0167429Y0254602D01*
X0167405Y0254515D01*
X0167378Y0254428D01*
X0167347Y0254343D01*
X0167312Y0254259D01*
X0167273Y0254177D01*
X0167231Y0254096D01*
X0167185Y0254018D01*
X0167136Y0253942D01*
X0167083Y0253867D01*
X0167028Y0253796D01*
X0166969Y0253726D01*
X0166907Y0253660D01*
X0166843Y0253596D01*
X0166776Y0253535D01*
X0166706Y0253477D01*
X0166633Y0253422D01*
X0166559Y0253371D01*
X0166482Y0253322D01*
X0166403Y0253277D01*
X0166322Y0253236D01*
X0166239Y0253198D01*
X0166155Y0253164D01*
X0166069Y0253134D01*
X0165983Y0253107D01*
X0165895Y0253085D01*
X0165806Y0253066D01*
X0165716Y0253051D01*
X0165626Y0253040D01*
X0165535Y0253033D01*
X0165445Y0253030D01*
X0165354Y0253031D01*
X0165263Y0253036D01*
X0165173Y0253045D01*
X0165083Y0253058D01*
X0164994Y0253075D01*
X0164905Y0253096D01*
X0164818Y0253120D01*
X0164732Y0253149D01*
X0164647Y0253181D01*
X0164563Y0253217D01*
X0164482Y0253256D01*
X0164402Y0253299D01*
X0164324Y0253346D01*
X0164248Y0253396D01*
X0164174Y0253449D01*
X0164103Y0253506D01*
X0164034Y0253565D01*
X0163968Y0253627D01*
X0163905Y0253693D01*
X0163845Y0253761D01*
X0163788Y0253831D01*
X0163734Y0253904D01*
X0163683Y0253979D01*
X0163636Y0254057D01*
X0163592Y0254136D01*
X0163551Y0254218D01*
X0163515Y0254301D01*
X0163481Y0254385D01*
X0163452Y0254471D01*
X0163426Y0254558D01*
X0163405Y0254647D01*
X0163387Y0254736D01*
X0163373Y0254825D01*
X0163363Y0254916D01*
X0163357Y0255006D01*
X0163355Y0255097D01*
X0156249Y0481013D02*
X0156251Y0481171D01*
X0156257Y0481329D01*
X0156267Y0481487D01*
X0156281Y0481645D01*
X0156299Y0481802D01*
X0156320Y0481959D01*
X0156346Y0482115D01*
X0156376Y0482271D01*
X0156409Y0482426D01*
X0156447Y0482579D01*
X0156488Y0482732D01*
X0156533Y0482884D01*
X0156582Y0483035D01*
X0156635Y0483184D01*
X0156691Y0483332D01*
X0156751Y0483478D01*
X0156815Y0483623D01*
X0156883Y0483766D01*
X0156954Y0483908D01*
X0157028Y0484048D01*
X0157106Y0484185D01*
X0157188Y0484321D01*
X0157272Y0484455D01*
X0157361Y0484586D01*
X0157452Y0484715D01*
X0157547Y0484842D01*
X0157644Y0484967D01*
X0157745Y0485089D01*
X0157849Y0485208D01*
X0157956Y0485325D01*
X0158066Y0485439D01*
X0158179Y0485550D01*
X0158294Y0485659D01*
X0158412Y0485764D01*
X0158533Y0485866D01*
X0158656Y0485966D01*
X0158782Y0486062D01*
X0158910Y0486155D01*
X0159040Y0486245D01*
X0159173Y0486331D01*
X0159308Y0486415D01*
X0159444Y0486494D01*
X0159583Y0486571D01*
X0159724Y0486643D01*
X0159866Y0486713D01*
X0160010Y0486778D01*
X0160156Y0486840D01*
X0160303Y0486898D01*
X0160452Y0486953D01*
X0160602Y0487004D01*
X0160753Y0487051D01*
X0160905Y0487094D01*
X0161058Y0487133D01*
X0161213Y0487169D01*
X0161368Y0487200D01*
X0161524Y0487228D01*
X0161680Y0487252D01*
X0161837Y0487272D01*
X0161995Y0487288D01*
X0162152Y0487300D01*
X0162311Y0487308D01*
X0162469Y0487312D01*
X0162627Y0487312D01*
X0162785Y0487308D01*
X0162944Y0487300D01*
X0163101Y0487288D01*
X0163259Y0487272D01*
X0163416Y0487252D01*
X0163572Y0487228D01*
X0163728Y0487200D01*
X0163883Y0487169D01*
X0164038Y0487133D01*
X0164191Y0487094D01*
X0164343Y0487051D01*
X0164494Y0487004D01*
X0164644Y0486953D01*
X0164793Y0486898D01*
X0164940Y0486840D01*
X0165086Y0486778D01*
X0165230Y0486713D01*
X0165372Y0486643D01*
X0165513Y0486571D01*
X0165652Y0486494D01*
X0165788Y0486415D01*
X0165923Y0486331D01*
X0166056Y0486245D01*
X0166186Y0486155D01*
X0166314Y0486062D01*
X0166440Y0485966D01*
X0166563Y0485866D01*
X0166684Y0485764D01*
X0166802Y0485659D01*
X0166917Y0485550D01*
X0167030Y0485439D01*
X0167140Y0485325D01*
X0167247Y0485208D01*
X0167351Y0485089D01*
X0167452Y0484967D01*
X0167549Y0484842D01*
X0167644Y0484715D01*
X0167735Y0484586D01*
X0167824Y0484455D01*
X0167908Y0484321D01*
X0167990Y0484185D01*
X0168068Y0484048D01*
X0168142Y0483908D01*
X0168213Y0483766D01*
X0168281Y0483623D01*
X0168345Y0483478D01*
X0168405Y0483332D01*
X0168461Y0483184D01*
X0168514Y0483035D01*
X0168563Y0482884D01*
X0168608Y0482732D01*
X0168649Y0482579D01*
X0168687Y0482426D01*
X0168720Y0482271D01*
X0168750Y0482115D01*
X0168776Y0481959D01*
X0168797Y0481802D01*
X0168815Y0481645D01*
X0168829Y0481487D01*
X0168839Y0481329D01*
X0168845Y0481171D01*
X0168847Y0481013D01*
X0168845Y0480855D01*
X0168839Y0480697D01*
X0168829Y0480539D01*
X0168815Y0480381D01*
X0168797Y0480224D01*
X0168776Y0480067D01*
X0168750Y0479911D01*
X0168720Y0479755D01*
X0168687Y0479600D01*
X0168649Y0479447D01*
X0168608Y0479294D01*
X0168563Y0479142D01*
X0168514Y0478991D01*
X0168461Y0478842D01*
X0168405Y0478694D01*
X0168345Y0478548D01*
X0168281Y0478403D01*
X0168213Y0478260D01*
X0168142Y0478118D01*
X0168068Y0477978D01*
X0167990Y0477841D01*
X0167908Y0477705D01*
X0167824Y0477571D01*
X0167735Y0477440D01*
X0167644Y0477311D01*
X0167549Y0477184D01*
X0167452Y0477059D01*
X0167351Y0476937D01*
X0167247Y0476818D01*
X0167140Y0476701D01*
X0167030Y0476587D01*
X0166917Y0476476D01*
X0166802Y0476367D01*
X0166684Y0476262D01*
X0166563Y0476160D01*
X0166440Y0476060D01*
X0166314Y0475964D01*
X0166186Y0475871D01*
X0166056Y0475781D01*
X0165923Y0475695D01*
X0165788Y0475611D01*
X0165652Y0475532D01*
X0165513Y0475455D01*
X0165372Y0475383D01*
X0165230Y0475313D01*
X0165086Y0475248D01*
X0164940Y0475186D01*
X0164793Y0475128D01*
X0164644Y0475073D01*
X0164494Y0475022D01*
X0164343Y0474975D01*
X0164191Y0474932D01*
X0164038Y0474893D01*
X0163883Y0474857D01*
X0163728Y0474826D01*
X0163572Y0474798D01*
X0163416Y0474774D01*
X0163259Y0474754D01*
X0163101Y0474738D01*
X0162944Y0474726D01*
X0162785Y0474718D01*
X0162627Y0474714D01*
X0162469Y0474714D01*
X0162311Y0474718D01*
X0162152Y0474726D01*
X0161995Y0474738D01*
X0161837Y0474754D01*
X0161680Y0474774D01*
X0161524Y0474798D01*
X0161368Y0474826D01*
X0161213Y0474857D01*
X0161058Y0474893D01*
X0160905Y0474932D01*
X0160753Y0474975D01*
X0160602Y0475022D01*
X0160452Y0475073D01*
X0160303Y0475128D01*
X0160156Y0475186D01*
X0160010Y0475248D01*
X0159866Y0475313D01*
X0159724Y0475383D01*
X0159583Y0475455D01*
X0159444Y0475532D01*
X0159308Y0475611D01*
X0159173Y0475695D01*
X0159040Y0475781D01*
X0158910Y0475871D01*
X0158782Y0475964D01*
X0158656Y0476060D01*
X0158533Y0476160D01*
X0158412Y0476262D01*
X0158294Y0476367D01*
X0158179Y0476476D01*
X0158066Y0476587D01*
X0157956Y0476701D01*
X0157849Y0476818D01*
X0157745Y0476937D01*
X0157644Y0477059D01*
X0157547Y0477184D01*
X0157452Y0477311D01*
X0157361Y0477440D01*
X0157272Y0477571D01*
X0157188Y0477705D01*
X0157106Y0477841D01*
X0157028Y0477978D01*
X0156954Y0478118D01*
X0156883Y0478260D01*
X0156815Y0478403D01*
X0156751Y0478548D01*
X0156691Y0478694D01*
X0156635Y0478842D01*
X0156582Y0478991D01*
X0156533Y0479142D01*
X0156488Y0479294D01*
X0156447Y0479447D01*
X0156409Y0479600D01*
X0156376Y0479755D01*
X0156346Y0479911D01*
X0156320Y0480067D01*
X0156299Y0480224D01*
X0156281Y0480381D01*
X0156267Y0480539D01*
X0156257Y0480697D01*
X0156251Y0480855D01*
X0156249Y0481013D01*
X0518454Y0481013D02*
X0518456Y0481171D01*
X0518462Y0481329D01*
X0518472Y0481487D01*
X0518486Y0481645D01*
X0518504Y0481802D01*
X0518525Y0481959D01*
X0518551Y0482115D01*
X0518581Y0482271D01*
X0518614Y0482426D01*
X0518652Y0482579D01*
X0518693Y0482732D01*
X0518738Y0482884D01*
X0518787Y0483035D01*
X0518840Y0483184D01*
X0518896Y0483332D01*
X0518956Y0483478D01*
X0519020Y0483623D01*
X0519088Y0483766D01*
X0519159Y0483908D01*
X0519233Y0484048D01*
X0519311Y0484185D01*
X0519393Y0484321D01*
X0519477Y0484455D01*
X0519566Y0484586D01*
X0519657Y0484715D01*
X0519752Y0484842D01*
X0519849Y0484967D01*
X0519950Y0485089D01*
X0520054Y0485208D01*
X0520161Y0485325D01*
X0520271Y0485439D01*
X0520384Y0485550D01*
X0520499Y0485659D01*
X0520617Y0485764D01*
X0520738Y0485866D01*
X0520861Y0485966D01*
X0520987Y0486062D01*
X0521115Y0486155D01*
X0521245Y0486245D01*
X0521378Y0486331D01*
X0521513Y0486415D01*
X0521649Y0486494D01*
X0521788Y0486571D01*
X0521929Y0486643D01*
X0522071Y0486713D01*
X0522215Y0486778D01*
X0522361Y0486840D01*
X0522508Y0486898D01*
X0522657Y0486953D01*
X0522807Y0487004D01*
X0522958Y0487051D01*
X0523110Y0487094D01*
X0523263Y0487133D01*
X0523418Y0487169D01*
X0523573Y0487200D01*
X0523729Y0487228D01*
X0523885Y0487252D01*
X0524042Y0487272D01*
X0524200Y0487288D01*
X0524357Y0487300D01*
X0524516Y0487308D01*
X0524674Y0487312D01*
X0524832Y0487312D01*
X0524990Y0487308D01*
X0525149Y0487300D01*
X0525306Y0487288D01*
X0525464Y0487272D01*
X0525621Y0487252D01*
X0525777Y0487228D01*
X0525933Y0487200D01*
X0526088Y0487169D01*
X0526243Y0487133D01*
X0526396Y0487094D01*
X0526548Y0487051D01*
X0526699Y0487004D01*
X0526849Y0486953D01*
X0526998Y0486898D01*
X0527145Y0486840D01*
X0527291Y0486778D01*
X0527435Y0486713D01*
X0527577Y0486643D01*
X0527718Y0486571D01*
X0527857Y0486494D01*
X0527993Y0486415D01*
X0528128Y0486331D01*
X0528261Y0486245D01*
X0528391Y0486155D01*
X0528519Y0486062D01*
X0528645Y0485966D01*
X0528768Y0485866D01*
X0528889Y0485764D01*
X0529007Y0485659D01*
X0529122Y0485550D01*
X0529235Y0485439D01*
X0529345Y0485325D01*
X0529452Y0485208D01*
X0529556Y0485089D01*
X0529657Y0484967D01*
X0529754Y0484842D01*
X0529849Y0484715D01*
X0529940Y0484586D01*
X0530029Y0484455D01*
X0530113Y0484321D01*
X0530195Y0484185D01*
X0530273Y0484048D01*
X0530347Y0483908D01*
X0530418Y0483766D01*
X0530486Y0483623D01*
X0530550Y0483478D01*
X0530610Y0483332D01*
X0530666Y0483184D01*
X0530719Y0483035D01*
X0530768Y0482884D01*
X0530813Y0482732D01*
X0530854Y0482579D01*
X0530892Y0482426D01*
X0530925Y0482271D01*
X0530955Y0482115D01*
X0530981Y0481959D01*
X0531002Y0481802D01*
X0531020Y0481645D01*
X0531034Y0481487D01*
X0531044Y0481329D01*
X0531050Y0481171D01*
X0531052Y0481013D01*
X0531050Y0480855D01*
X0531044Y0480697D01*
X0531034Y0480539D01*
X0531020Y0480381D01*
X0531002Y0480224D01*
X0530981Y0480067D01*
X0530955Y0479911D01*
X0530925Y0479755D01*
X0530892Y0479600D01*
X0530854Y0479447D01*
X0530813Y0479294D01*
X0530768Y0479142D01*
X0530719Y0478991D01*
X0530666Y0478842D01*
X0530610Y0478694D01*
X0530550Y0478548D01*
X0530486Y0478403D01*
X0530418Y0478260D01*
X0530347Y0478118D01*
X0530273Y0477978D01*
X0530195Y0477841D01*
X0530113Y0477705D01*
X0530029Y0477571D01*
X0529940Y0477440D01*
X0529849Y0477311D01*
X0529754Y0477184D01*
X0529657Y0477059D01*
X0529556Y0476937D01*
X0529452Y0476818D01*
X0529345Y0476701D01*
X0529235Y0476587D01*
X0529122Y0476476D01*
X0529007Y0476367D01*
X0528889Y0476262D01*
X0528768Y0476160D01*
X0528645Y0476060D01*
X0528519Y0475964D01*
X0528391Y0475871D01*
X0528261Y0475781D01*
X0528128Y0475695D01*
X0527993Y0475611D01*
X0527857Y0475532D01*
X0527718Y0475455D01*
X0527577Y0475383D01*
X0527435Y0475313D01*
X0527291Y0475248D01*
X0527145Y0475186D01*
X0526998Y0475128D01*
X0526849Y0475073D01*
X0526699Y0475022D01*
X0526548Y0474975D01*
X0526396Y0474932D01*
X0526243Y0474893D01*
X0526088Y0474857D01*
X0525933Y0474826D01*
X0525777Y0474798D01*
X0525621Y0474774D01*
X0525464Y0474754D01*
X0525306Y0474738D01*
X0525149Y0474726D01*
X0524990Y0474718D01*
X0524832Y0474714D01*
X0524674Y0474714D01*
X0524516Y0474718D01*
X0524357Y0474726D01*
X0524200Y0474738D01*
X0524042Y0474754D01*
X0523885Y0474774D01*
X0523729Y0474798D01*
X0523573Y0474826D01*
X0523418Y0474857D01*
X0523263Y0474893D01*
X0523110Y0474932D01*
X0522958Y0474975D01*
X0522807Y0475022D01*
X0522657Y0475073D01*
X0522508Y0475128D01*
X0522361Y0475186D01*
X0522215Y0475248D01*
X0522071Y0475313D01*
X0521929Y0475383D01*
X0521788Y0475455D01*
X0521649Y0475532D01*
X0521513Y0475611D01*
X0521378Y0475695D01*
X0521245Y0475781D01*
X0521115Y0475871D01*
X0520987Y0475964D01*
X0520861Y0476060D01*
X0520738Y0476160D01*
X0520617Y0476262D01*
X0520499Y0476367D01*
X0520384Y0476476D01*
X0520271Y0476587D01*
X0520161Y0476701D01*
X0520054Y0476818D01*
X0519950Y0476937D01*
X0519849Y0477059D01*
X0519752Y0477184D01*
X0519657Y0477311D01*
X0519566Y0477440D01*
X0519477Y0477571D01*
X0519393Y0477705D01*
X0519311Y0477841D01*
X0519233Y0477978D01*
X0519159Y0478118D01*
X0519088Y0478260D01*
X0519020Y0478403D01*
X0518956Y0478548D01*
X0518896Y0478694D01*
X0518840Y0478842D01*
X0518787Y0478991D01*
X0518738Y0479142D01*
X0518693Y0479294D01*
X0518652Y0479447D01*
X0518614Y0479600D01*
X0518581Y0479755D01*
X0518551Y0479911D01*
X0518525Y0480067D01*
X0518504Y0480224D01*
X0518486Y0480381D01*
X0518472Y0480539D01*
X0518462Y0480697D01*
X0518456Y0480855D01*
X0518454Y0481013D01*
X0518454Y0197548D02*
X0518456Y0197706D01*
X0518462Y0197864D01*
X0518472Y0198022D01*
X0518486Y0198180D01*
X0518504Y0198337D01*
X0518525Y0198494D01*
X0518551Y0198650D01*
X0518581Y0198806D01*
X0518614Y0198961D01*
X0518652Y0199114D01*
X0518693Y0199267D01*
X0518738Y0199419D01*
X0518787Y0199570D01*
X0518840Y0199719D01*
X0518896Y0199867D01*
X0518956Y0200013D01*
X0519020Y0200158D01*
X0519088Y0200301D01*
X0519159Y0200443D01*
X0519233Y0200583D01*
X0519311Y0200720D01*
X0519393Y0200856D01*
X0519477Y0200990D01*
X0519566Y0201121D01*
X0519657Y0201250D01*
X0519752Y0201377D01*
X0519849Y0201502D01*
X0519950Y0201624D01*
X0520054Y0201743D01*
X0520161Y0201860D01*
X0520271Y0201974D01*
X0520384Y0202085D01*
X0520499Y0202194D01*
X0520617Y0202299D01*
X0520738Y0202401D01*
X0520861Y0202501D01*
X0520987Y0202597D01*
X0521115Y0202690D01*
X0521245Y0202780D01*
X0521378Y0202866D01*
X0521513Y0202950D01*
X0521649Y0203029D01*
X0521788Y0203106D01*
X0521929Y0203178D01*
X0522071Y0203248D01*
X0522215Y0203313D01*
X0522361Y0203375D01*
X0522508Y0203433D01*
X0522657Y0203488D01*
X0522807Y0203539D01*
X0522958Y0203586D01*
X0523110Y0203629D01*
X0523263Y0203668D01*
X0523418Y0203704D01*
X0523573Y0203735D01*
X0523729Y0203763D01*
X0523885Y0203787D01*
X0524042Y0203807D01*
X0524200Y0203823D01*
X0524357Y0203835D01*
X0524516Y0203843D01*
X0524674Y0203847D01*
X0524832Y0203847D01*
X0524990Y0203843D01*
X0525149Y0203835D01*
X0525306Y0203823D01*
X0525464Y0203807D01*
X0525621Y0203787D01*
X0525777Y0203763D01*
X0525933Y0203735D01*
X0526088Y0203704D01*
X0526243Y0203668D01*
X0526396Y0203629D01*
X0526548Y0203586D01*
X0526699Y0203539D01*
X0526849Y0203488D01*
X0526998Y0203433D01*
X0527145Y0203375D01*
X0527291Y0203313D01*
X0527435Y0203248D01*
X0527577Y0203178D01*
X0527718Y0203106D01*
X0527857Y0203029D01*
X0527993Y0202950D01*
X0528128Y0202866D01*
X0528261Y0202780D01*
X0528391Y0202690D01*
X0528519Y0202597D01*
X0528645Y0202501D01*
X0528768Y0202401D01*
X0528889Y0202299D01*
X0529007Y0202194D01*
X0529122Y0202085D01*
X0529235Y0201974D01*
X0529345Y0201860D01*
X0529452Y0201743D01*
X0529556Y0201624D01*
X0529657Y0201502D01*
X0529754Y0201377D01*
X0529849Y0201250D01*
X0529940Y0201121D01*
X0530029Y0200990D01*
X0530113Y0200856D01*
X0530195Y0200720D01*
X0530273Y0200583D01*
X0530347Y0200443D01*
X0530418Y0200301D01*
X0530486Y0200158D01*
X0530550Y0200013D01*
X0530610Y0199867D01*
X0530666Y0199719D01*
X0530719Y0199570D01*
X0530768Y0199419D01*
X0530813Y0199267D01*
X0530854Y0199114D01*
X0530892Y0198961D01*
X0530925Y0198806D01*
X0530955Y0198650D01*
X0530981Y0198494D01*
X0531002Y0198337D01*
X0531020Y0198180D01*
X0531034Y0198022D01*
X0531044Y0197864D01*
X0531050Y0197706D01*
X0531052Y0197548D01*
X0531050Y0197390D01*
X0531044Y0197232D01*
X0531034Y0197074D01*
X0531020Y0196916D01*
X0531002Y0196759D01*
X0530981Y0196602D01*
X0530955Y0196446D01*
X0530925Y0196290D01*
X0530892Y0196135D01*
X0530854Y0195982D01*
X0530813Y0195829D01*
X0530768Y0195677D01*
X0530719Y0195526D01*
X0530666Y0195377D01*
X0530610Y0195229D01*
X0530550Y0195083D01*
X0530486Y0194938D01*
X0530418Y0194795D01*
X0530347Y0194653D01*
X0530273Y0194513D01*
X0530195Y0194376D01*
X0530113Y0194240D01*
X0530029Y0194106D01*
X0529940Y0193975D01*
X0529849Y0193846D01*
X0529754Y0193719D01*
X0529657Y0193594D01*
X0529556Y0193472D01*
X0529452Y0193353D01*
X0529345Y0193236D01*
X0529235Y0193122D01*
X0529122Y0193011D01*
X0529007Y0192902D01*
X0528889Y0192797D01*
X0528768Y0192695D01*
X0528645Y0192595D01*
X0528519Y0192499D01*
X0528391Y0192406D01*
X0528261Y0192316D01*
X0528128Y0192230D01*
X0527993Y0192146D01*
X0527857Y0192067D01*
X0527718Y0191990D01*
X0527577Y0191918D01*
X0527435Y0191848D01*
X0527291Y0191783D01*
X0527145Y0191721D01*
X0526998Y0191663D01*
X0526849Y0191608D01*
X0526699Y0191557D01*
X0526548Y0191510D01*
X0526396Y0191467D01*
X0526243Y0191428D01*
X0526088Y0191392D01*
X0525933Y0191361D01*
X0525777Y0191333D01*
X0525621Y0191309D01*
X0525464Y0191289D01*
X0525306Y0191273D01*
X0525149Y0191261D01*
X0524990Y0191253D01*
X0524832Y0191249D01*
X0524674Y0191249D01*
X0524516Y0191253D01*
X0524357Y0191261D01*
X0524200Y0191273D01*
X0524042Y0191289D01*
X0523885Y0191309D01*
X0523729Y0191333D01*
X0523573Y0191361D01*
X0523418Y0191392D01*
X0523263Y0191428D01*
X0523110Y0191467D01*
X0522958Y0191510D01*
X0522807Y0191557D01*
X0522657Y0191608D01*
X0522508Y0191663D01*
X0522361Y0191721D01*
X0522215Y0191783D01*
X0522071Y0191848D01*
X0521929Y0191918D01*
X0521788Y0191990D01*
X0521649Y0192067D01*
X0521513Y0192146D01*
X0521378Y0192230D01*
X0521245Y0192316D01*
X0521115Y0192406D01*
X0520987Y0192499D01*
X0520861Y0192595D01*
X0520738Y0192695D01*
X0520617Y0192797D01*
X0520499Y0192902D01*
X0520384Y0193011D01*
X0520271Y0193122D01*
X0520161Y0193236D01*
X0520054Y0193353D01*
X0519950Y0193472D01*
X0519849Y0193594D01*
X0519752Y0193719D01*
X0519657Y0193846D01*
X0519566Y0193975D01*
X0519477Y0194106D01*
X0519393Y0194240D01*
X0519311Y0194376D01*
X0519233Y0194513D01*
X0519159Y0194653D01*
X0519088Y0194795D01*
X0519020Y0194938D01*
X0518956Y0195083D01*
X0518896Y0195229D01*
X0518840Y0195377D01*
X0518787Y0195526D01*
X0518738Y0195677D01*
X0518693Y0195829D01*
X0518652Y0195982D01*
X0518614Y0196135D01*
X0518581Y0196290D01*
X0518551Y0196446D01*
X0518525Y0196602D01*
X0518504Y0196759D01*
X0518486Y0196916D01*
X0518472Y0197074D01*
X0518462Y0197232D01*
X0518456Y0197390D01*
X0518454Y0197548D01*
D11*
X0520540Y0341800D03*
X0513060Y0341800D03*
X0363040Y0373050D03*
X0355560Y0373050D03*
X0355560Y0381800D03*
X0363040Y0381800D03*
D12*
X0397204Y0350550D03*
X0403896Y0350550D03*
X0403896Y0328050D03*
X0403896Y0321800D03*
X0403896Y0315550D03*
X0397204Y0315550D03*
X0397204Y0321800D03*
X0397204Y0328050D03*
X0397204Y0293050D03*
X0397204Y0286800D03*
X0397204Y0280550D03*
X0403896Y0280550D03*
X0403896Y0286800D03*
X0403896Y0293050D03*
X0485954Y0223675D03*
X0492646Y0223675D03*
X0513454Y0303050D03*
X0520146Y0303050D03*
X0520146Y0323050D03*
X0513454Y0323050D03*
X0513454Y0349925D03*
X0520146Y0349925D03*
X0475146Y0401800D03*
X0475146Y0408050D03*
X0475146Y0414300D03*
X0475146Y0420550D03*
X0475146Y0426800D03*
X0475146Y0433050D03*
X0475146Y0439300D03*
X0468454Y0439300D03*
X0468454Y0433050D03*
X0468454Y0426800D03*
X0468454Y0420550D03*
X0468454Y0414300D03*
X0468454Y0408050D03*
X0468454Y0401800D03*
X0498454Y0454300D03*
X0505146Y0454300D03*
X0286396Y0354300D03*
X0279704Y0354300D03*
X0279704Y0344300D03*
X0286396Y0344300D03*
X0286396Y0334300D03*
X0279704Y0334300D03*
X0279704Y0324300D03*
X0286396Y0324300D03*
X0286396Y0314300D03*
X0279704Y0314300D03*
X0279704Y0304300D03*
X0286396Y0304300D03*
X0286396Y0294300D03*
X0279704Y0294300D03*
X0279704Y0285550D03*
X0286396Y0285550D03*
X0286396Y0278050D03*
X0279704Y0278050D03*
X0261396Y0289300D03*
X0254704Y0289300D03*
X0217646Y0275550D03*
X0210954Y0275550D03*
X0210954Y0253050D03*
X0217646Y0253050D03*
X0252204Y0238050D03*
X0258896Y0238050D03*
X0279704Y0249300D03*
X0279704Y0255550D03*
X0286396Y0255550D03*
X0286396Y0249300D03*
X0191396Y0223050D03*
X0184704Y0223050D03*
X0184704Y0215550D03*
X0191396Y0215550D03*
D13*
X0209300Y0212646D03*
X0209300Y0205954D03*
X0216800Y0205954D03*
X0216800Y0212646D03*
X0228050Y0258454D03*
X0228050Y0265146D03*
X0240550Y0325954D03*
X0240550Y0332646D03*
X0250550Y0332646D03*
X0250550Y0325954D03*
X0260550Y0325954D03*
X0260550Y0332646D03*
X0310550Y0268896D03*
X0310550Y0262204D03*
X0318050Y0262204D03*
X0318050Y0268896D03*
X0311800Y0212646D03*
X0311800Y0205954D03*
X0304300Y0205954D03*
X0304300Y0212646D03*
X0399300Y0212646D03*
X0399300Y0205954D03*
X0406800Y0205954D03*
X0406800Y0212646D03*
X0433050Y0255329D03*
X0433050Y0262021D03*
X0454300Y0262021D03*
X0454300Y0255329D03*
X0474300Y0255329D03*
X0474300Y0262021D03*
X0493675Y0262021D03*
X0493675Y0255329D03*
X0469925Y0369704D03*
X0469925Y0376396D03*
X0450550Y0376396D03*
X0450550Y0369704D03*
X0436800Y0369704D03*
X0430550Y0369704D03*
X0424300Y0369704D03*
X0424300Y0376396D03*
X0430550Y0376396D03*
X0436800Y0376396D03*
X0469300Y0465954D03*
X0469300Y0472646D03*
X0476800Y0472646D03*
X0476800Y0465954D03*
X0384300Y0465954D03*
X0384300Y0472646D03*
X0376800Y0472646D03*
X0376800Y0465954D03*
X0289300Y0465954D03*
X0289300Y0472646D03*
X0281800Y0472646D03*
X0281800Y0465954D03*
D14*
X0318050Y0463040D03*
X0318050Y0455560D03*
X0413050Y0455560D03*
X0413050Y0463040D03*
X0224300Y0463040D03*
X0224300Y0455560D03*
X0204300Y0371790D03*
X0204300Y0364310D03*
X0166800Y0364310D03*
X0166800Y0371790D03*
X0158050Y0371790D03*
X0158050Y0364310D03*
X0274300Y0223040D03*
X0274300Y0215560D03*
X0369300Y0215560D03*
X0369300Y0223040D03*
X0463050Y0223040D03*
X0463050Y0215560D03*
X0485550Y0254935D03*
X0485550Y0262415D03*
D15*
X0166593Y0274300D03*
X0159507Y0274300D03*
D16*
X0414320Y0280688D02*
X0420186Y0280688D01*
X0414320Y0280688D02*
X0414320Y0281514D01*
X0420186Y0281514D01*
X0420186Y0280688D01*
X0420186Y0280963D02*
X0414320Y0280963D01*
X0414320Y0281238D02*
X0420186Y0281238D01*
X0420186Y0281513D02*
X0414320Y0281513D01*
X0414320Y0282657D02*
X0420186Y0282657D01*
X0414320Y0282657D02*
X0414320Y0283483D01*
X0420186Y0283483D01*
X0420186Y0282657D01*
X0420186Y0282932D02*
X0414320Y0282932D01*
X0414320Y0283207D02*
X0420186Y0283207D01*
X0420186Y0283482D02*
X0414320Y0283482D01*
X0414320Y0284625D02*
X0420186Y0284625D01*
X0414320Y0284625D02*
X0414320Y0285451D01*
X0420186Y0285451D01*
X0420186Y0284625D01*
X0420186Y0284900D02*
X0414320Y0284900D01*
X0414320Y0285175D02*
X0420186Y0285175D01*
X0420186Y0285450D02*
X0414320Y0285450D01*
X0414320Y0286594D02*
X0420186Y0286594D01*
X0414320Y0286594D02*
X0414320Y0287420D01*
X0420186Y0287420D01*
X0420186Y0286594D01*
X0420186Y0286869D02*
X0414320Y0286869D01*
X0414320Y0287144D02*
X0420186Y0287144D01*
X0420186Y0287419D02*
X0414320Y0287419D01*
X0414320Y0288562D02*
X0420186Y0288562D01*
X0414320Y0288562D02*
X0414320Y0289388D01*
X0420186Y0289388D01*
X0420186Y0288562D01*
X0420186Y0288837D02*
X0414320Y0288837D01*
X0414320Y0289112D02*
X0420186Y0289112D01*
X0420186Y0289387D02*
X0414320Y0289387D01*
X0414320Y0290531D02*
X0420186Y0290531D01*
X0414320Y0290531D02*
X0414320Y0291357D01*
X0420186Y0291357D01*
X0420186Y0290531D01*
X0420186Y0290806D02*
X0414320Y0290806D01*
X0414320Y0291081D02*
X0420186Y0291081D01*
X0420186Y0291356D02*
X0414320Y0291356D01*
X0414320Y0292499D02*
X0420186Y0292499D01*
X0414320Y0292499D02*
X0414320Y0293325D01*
X0420186Y0293325D01*
X0420186Y0292499D01*
X0420186Y0292774D02*
X0414320Y0292774D01*
X0414320Y0293049D02*
X0420186Y0293049D01*
X0420186Y0293324D02*
X0414320Y0293324D01*
X0414320Y0294468D02*
X0420186Y0294468D01*
X0414320Y0294468D02*
X0414320Y0295294D01*
X0420186Y0295294D01*
X0420186Y0294468D01*
X0420186Y0294743D02*
X0414320Y0294743D01*
X0414320Y0295018D02*
X0420186Y0295018D01*
X0420186Y0295293D02*
X0414320Y0295293D01*
X0414320Y0296436D02*
X0420186Y0296436D01*
X0414320Y0296436D02*
X0414320Y0297262D01*
X0420186Y0297262D01*
X0420186Y0296436D01*
X0420186Y0296711D02*
X0414320Y0296711D01*
X0414320Y0296986D02*
X0420186Y0296986D01*
X0420186Y0297261D02*
X0414320Y0297261D01*
X0414320Y0298405D02*
X0420186Y0298405D01*
X0414320Y0298405D02*
X0414320Y0299231D01*
X0420186Y0299231D01*
X0420186Y0298405D01*
X0420186Y0298680D02*
X0414320Y0298680D01*
X0414320Y0298955D02*
X0420186Y0298955D01*
X0420186Y0299230D02*
X0414320Y0299230D01*
X0414320Y0300373D02*
X0420186Y0300373D01*
X0414320Y0300373D02*
X0414320Y0301199D01*
X0420186Y0301199D01*
X0420186Y0300373D01*
X0420186Y0300648D02*
X0414320Y0300648D01*
X0414320Y0300923D02*
X0420186Y0300923D01*
X0420186Y0301198D02*
X0414320Y0301198D01*
X0414320Y0302342D02*
X0420186Y0302342D01*
X0414320Y0302342D02*
X0414320Y0303168D01*
X0420186Y0303168D01*
X0420186Y0302342D01*
X0420186Y0302617D02*
X0414320Y0302617D01*
X0414320Y0302892D02*
X0420186Y0302892D01*
X0420186Y0303167D02*
X0414320Y0303167D01*
X0414320Y0304310D02*
X0420186Y0304310D01*
X0414320Y0304310D02*
X0414320Y0305136D01*
X0420186Y0305136D01*
X0420186Y0304310D01*
X0420186Y0304585D02*
X0414320Y0304585D01*
X0414320Y0304860D02*
X0420186Y0304860D01*
X0420186Y0305135D02*
X0414320Y0305135D01*
X0414320Y0306279D02*
X0420186Y0306279D01*
X0414320Y0306279D02*
X0414320Y0307105D01*
X0420186Y0307105D01*
X0420186Y0306279D01*
X0420186Y0306554D02*
X0414320Y0306554D01*
X0414320Y0306829D02*
X0420186Y0306829D01*
X0420186Y0307104D02*
X0414320Y0307104D01*
X0414320Y0308247D02*
X0420186Y0308247D01*
X0414320Y0308247D02*
X0414320Y0309073D01*
X0420186Y0309073D01*
X0420186Y0308247D01*
X0420186Y0308522D02*
X0414320Y0308522D01*
X0414320Y0308797D02*
X0420186Y0308797D01*
X0420186Y0309072D02*
X0414320Y0309072D01*
X0414320Y0310216D02*
X0420186Y0310216D01*
X0414320Y0310216D02*
X0414320Y0311042D01*
X0420186Y0311042D01*
X0420186Y0310216D01*
X0420186Y0310491D02*
X0414320Y0310491D01*
X0414320Y0310766D02*
X0420186Y0310766D01*
X0420186Y0311041D02*
X0414320Y0311041D01*
X0414320Y0312184D02*
X0420186Y0312184D01*
X0414320Y0312184D02*
X0414320Y0313010D01*
X0420186Y0313010D01*
X0420186Y0312184D01*
X0420186Y0312459D02*
X0414320Y0312459D01*
X0414320Y0312734D02*
X0420186Y0312734D01*
X0420186Y0313009D02*
X0414320Y0313009D01*
X0414320Y0314153D02*
X0420186Y0314153D01*
X0414320Y0314153D02*
X0414320Y0314979D01*
X0420186Y0314979D01*
X0420186Y0314153D01*
X0420186Y0314428D02*
X0414320Y0314428D01*
X0414320Y0314703D02*
X0420186Y0314703D01*
X0420186Y0314978D02*
X0414320Y0314978D01*
X0414320Y0316121D02*
X0420186Y0316121D01*
X0414320Y0316121D02*
X0414320Y0316947D01*
X0420186Y0316947D01*
X0420186Y0316121D01*
X0420186Y0316396D02*
X0414320Y0316396D01*
X0414320Y0316671D02*
X0420186Y0316671D01*
X0420186Y0316946D02*
X0414320Y0316946D01*
X0414320Y0318090D02*
X0420186Y0318090D01*
X0414320Y0318090D02*
X0414320Y0318916D01*
X0420186Y0318916D01*
X0420186Y0318090D01*
X0420186Y0318365D02*
X0414320Y0318365D01*
X0414320Y0318640D02*
X0420186Y0318640D01*
X0420186Y0318915D02*
X0414320Y0318915D01*
X0414320Y0320058D02*
X0420186Y0320058D01*
X0414320Y0320058D02*
X0414320Y0320884D01*
X0420186Y0320884D01*
X0420186Y0320058D01*
X0420186Y0320333D02*
X0414320Y0320333D01*
X0414320Y0320608D02*
X0420186Y0320608D01*
X0420186Y0320883D02*
X0414320Y0320883D01*
X0414320Y0322027D02*
X0420186Y0322027D01*
X0414320Y0322027D02*
X0414320Y0322853D01*
X0420186Y0322853D01*
X0420186Y0322027D01*
X0420186Y0322302D02*
X0414320Y0322302D01*
X0414320Y0322577D02*
X0420186Y0322577D01*
X0420186Y0322852D02*
X0414320Y0322852D01*
X0414320Y0323995D02*
X0420186Y0323995D01*
X0414320Y0323995D02*
X0414320Y0324821D01*
X0420186Y0324821D01*
X0420186Y0323995D01*
X0420186Y0324270D02*
X0414320Y0324270D01*
X0414320Y0324545D02*
X0420186Y0324545D01*
X0420186Y0324820D02*
X0414320Y0324820D01*
X0414320Y0325964D02*
X0420186Y0325964D01*
X0414320Y0325964D02*
X0414320Y0326790D01*
X0420186Y0326790D01*
X0420186Y0325964D01*
X0420186Y0326239D02*
X0414320Y0326239D01*
X0414320Y0326514D02*
X0420186Y0326514D01*
X0420186Y0326789D02*
X0414320Y0326789D01*
X0414320Y0327932D02*
X0420186Y0327932D01*
X0414320Y0327932D02*
X0414320Y0328758D01*
X0420186Y0328758D01*
X0420186Y0327932D01*
X0420186Y0328207D02*
X0414320Y0328207D01*
X0414320Y0328482D02*
X0420186Y0328482D01*
X0420186Y0328757D02*
X0414320Y0328757D01*
X0414320Y0329901D02*
X0420186Y0329901D01*
X0414320Y0329901D02*
X0414320Y0330727D01*
X0420186Y0330727D01*
X0420186Y0329901D01*
X0420186Y0330176D02*
X0414320Y0330176D01*
X0414320Y0330451D02*
X0420186Y0330451D01*
X0420186Y0330726D02*
X0414320Y0330726D01*
X0414320Y0331869D02*
X0420186Y0331869D01*
X0414320Y0331869D02*
X0414320Y0332695D01*
X0420186Y0332695D01*
X0420186Y0331869D01*
X0420186Y0332144D02*
X0414320Y0332144D01*
X0414320Y0332419D02*
X0420186Y0332419D01*
X0420186Y0332694D02*
X0414320Y0332694D01*
X0414320Y0333838D02*
X0420186Y0333838D01*
X0414320Y0333838D02*
X0414320Y0334664D01*
X0420186Y0334664D01*
X0420186Y0333838D01*
X0420186Y0334113D02*
X0414320Y0334113D01*
X0414320Y0334388D02*
X0420186Y0334388D01*
X0420186Y0334663D02*
X0414320Y0334663D01*
X0414320Y0335806D02*
X0420186Y0335806D01*
X0414320Y0335806D02*
X0414320Y0336632D01*
X0420186Y0336632D01*
X0420186Y0335806D01*
X0420186Y0336081D02*
X0414320Y0336081D01*
X0414320Y0336356D02*
X0420186Y0336356D01*
X0420186Y0336631D02*
X0414320Y0336631D01*
X0414320Y0337775D02*
X0420186Y0337775D01*
X0414320Y0337775D02*
X0414320Y0338601D01*
X0420186Y0338601D01*
X0420186Y0337775D01*
X0420186Y0338050D02*
X0414320Y0338050D01*
X0414320Y0338325D02*
X0420186Y0338325D01*
X0420186Y0338600D02*
X0414320Y0338600D01*
X0414320Y0339743D02*
X0420186Y0339743D01*
X0414320Y0339743D02*
X0414320Y0340569D01*
X0420186Y0340569D01*
X0420186Y0339743D01*
X0420186Y0340018D02*
X0414320Y0340018D01*
X0414320Y0340293D02*
X0420186Y0340293D01*
X0420186Y0340568D02*
X0414320Y0340568D01*
X0414320Y0341712D02*
X0420186Y0341712D01*
X0414320Y0341712D02*
X0414320Y0342538D01*
X0420186Y0342538D01*
X0420186Y0341712D01*
X0420186Y0341987D02*
X0414320Y0341987D01*
X0414320Y0342262D02*
X0420186Y0342262D01*
X0420186Y0342537D02*
X0414320Y0342537D01*
X0414320Y0343680D02*
X0420186Y0343680D01*
X0414320Y0343680D02*
X0414320Y0344506D01*
X0420186Y0344506D01*
X0420186Y0343680D01*
X0420186Y0343955D02*
X0414320Y0343955D01*
X0414320Y0344230D02*
X0420186Y0344230D01*
X0420186Y0344505D02*
X0414320Y0344505D01*
X0414320Y0345649D02*
X0420186Y0345649D01*
X0414320Y0345649D02*
X0414320Y0346475D01*
X0420186Y0346475D01*
X0420186Y0345649D01*
X0420186Y0345924D02*
X0414320Y0345924D01*
X0414320Y0346199D02*
X0420186Y0346199D01*
X0420186Y0346474D02*
X0414320Y0346474D01*
X0414320Y0347617D02*
X0420186Y0347617D01*
X0414320Y0347617D02*
X0414320Y0348443D01*
X0420186Y0348443D01*
X0420186Y0347617D01*
X0420186Y0347892D02*
X0414320Y0347892D01*
X0414320Y0348167D02*
X0420186Y0348167D01*
X0420186Y0348442D02*
X0414320Y0348442D01*
X0414320Y0349586D02*
X0420186Y0349586D01*
X0414320Y0349586D02*
X0414320Y0350412D01*
X0420186Y0350412D01*
X0420186Y0349586D01*
X0420186Y0349861D02*
X0414320Y0349861D01*
X0414320Y0350136D02*
X0420186Y0350136D01*
X0420186Y0350411D02*
X0414320Y0350411D01*
X0425264Y0354664D02*
X0425264Y0360530D01*
X0425264Y0354664D02*
X0424438Y0354664D01*
X0424438Y0360530D01*
X0425264Y0360530D01*
X0425264Y0354939D02*
X0424438Y0354939D01*
X0424438Y0355214D02*
X0425264Y0355214D01*
X0425264Y0355489D02*
X0424438Y0355489D01*
X0424438Y0355764D02*
X0425264Y0355764D01*
X0425264Y0356039D02*
X0424438Y0356039D01*
X0424438Y0356314D02*
X0425264Y0356314D01*
X0425264Y0356589D02*
X0424438Y0356589D01*
X0424438Y0356864D02*
X0425264Y0356864D01*
X0425264Y0357139D02*
X0424438Y0357139D01*
X0424438Y0357414D02*
X0425264Y0357414D01*
X0425264Y0357689D02*
X0424438Y0357689D01*
X0424438Y0357964D02*
X0425264Y0357964D01*
X0425264Y0358239D02*
X0424438Y0358239D01*
X0424438Y0358514D02*
X0425264Y0358514D01*
X0425264Y0358789D02*
X0424438Y0358789D01*
X0424438Y0359064D02*
X0425264Y0359064D01*
X0425264Y0359339D02*
X0424438Y0359339D01*
X0424438Y0359614D02*
X0425264Y0359614D01*
X0425264Y0359889D02*
X0424438Y0359889D01*
X0424438Y0360164D02*
X0425264Y0360164D01*
X0425264Y0360439D02*
X0424438Y0360439D01*
X0427233Y0360530D02*
X0427233Y0354664D01*
X0426407Y0354664D01*
X0426407Y0360530D01*
X0427233Y0360530D01*
X0427233Y0354939D02*
X0426407Y0354939D01*
X0426407Y0355214D02*
X0427233Y0355214D01*
X0427233Y0355489D02*
X0426407Y0355489D01*
X0426407Y0355764D02*
X0427233Y0355764D01*
X0427233Y0356039D02*
X0426407Y0356039D01*
X0426407Y0356314D02*
X0427233Y0356314D01*
X0427233Y0356589D02*
X0426407Y0356589D01*
X0426407Y0356864D02*
X0427233Y0356864D01*
X0427233Y0357139D02*
X0426407Y0357139D01*
X0426407Y0357414D02*
X0427233Y0357414D01*
X0427233Y0357689D02*
X0426407Y0357689D01*
X0426407Y0357964D02*
X0427233Y0357964D01*
X0427233Y0358239D02*
X0426407Y0358239D01*
X0426407Y0358514D02*
X0427233Y0358514D01*
X0427233Y0358789D02*
X0426407Y0358789D01*
X0426407Y0359064D02*
X0427233Y0359064D01*
X0427233Y0359339D02*
X0426407Y0359339D01*
X0426407Y0359614D02*
X0427233Y0359614D01*
X0427233Y0359889D02*
X0426407Y0359889D01*
X0426407Y0360164D02*
X0427233Y0360164D01*
X0427233Y0360439D02*
X0426407Y0360439D01*
X0429201Y0360530D02*
X0429201Y0354664D01*
X0428375Y0354664D01*
X0428375Y0360530D01*
X0429201Y0360530D01*
X0429201Y0354939D02*
X0428375Y0354939D01*
X0428375Y0355214D02*
X0429201Y0355214D01*
X0429201Y0355489D02*
X0428375Y0355489D01*
X0428375Y0355764D02*
X0429201Y0355764D01*
X0429201Y0356039D02*
X0428375Y0356039D01*
X0428375Y0356314D02*
X0429201Y0356314D01*
X0429201Y0356589D02*
X0428375Y0356589D01*
X0428375Y0356864D02*
X0429201Y0356864D01*
X0429201Y0357139D02*
X0428375Y0357139D01*
X0428375Y0357414D02*
X0429201Y0357414D01*
X0429201Y0357689D02*
X0428375Y0357689D01*
X0428375Y0357964D02*
X0429201Y0357964D01*
X0429201Y0358239D02*
X0428375Y0358239D01*
X0428375Y0358514D02*
X0429201Y0358514D01*
X0429201Y0358789D02*
X0428375Y0358789D01*
X0428375Y0359064D02*
X0429201Y0359064D01*
X0429201Y0359339D02*
X0428375Y0359339D01*
X0428375Y0359614D02*
X0429201Y0359614D01*
X0429201Y0359889D02*
X0428375Y0359889D01*
X0428375Y0360164D02*
X0429201Y0360164D01*
X0429201Y0360439D02*
X0428375Y0360439D01*
X0431170Y0360530D02*
X0431170Y0354664D01*
X0430344Y0354664D01*
X0430344Y0360530D01*
X0431170Y0360530D01*
X0431170Y0354939D02*
X0430344Y0354939D01*
X0430344Y0355214D02*
X0431170Y0355214D01*
X0431170Y0355489D02*
X0430344Y0355489D01*
X0430344Y0355764D02*
X0431170Y0355764D01*
X0431170Y0356039D02*
X0430344Y0356039D01*
X0430344Y0356314D02*
X0431170Y0356314D01*
X0431170Y0356589D02*
X0430344Y0356589D01*
X0430344Y0356864D02*
X0431170Y0356864D01*
X0431170Y0357139D02*
X0430344Y0357139D01*
X0430344Y0357414D02*
X0431170Y0357414D01*
X0431170Y0357689D02*
X0430344Y0357689D01*
X0430344Y0357964D02*
X0431170Y0357964D01*
X0431170Y0358239D02*
X0430344Y0358239D01*
X0430344Y0358514D02*
X0431170Y0358514D01*
X0431170Y0358789D02*
X0430344Y0358789D01*
X0430344Y0359064D02*
X0431170Y0359064D01*
X0431170Y0359339D02*
X0430344Y0359339D01*
X0430344Y0359614D02*
X0431170Y0359614D01*
X0431170Y0359889D02*
X0430344Y0359889D01*
X0430344Y0360164D02*
X0431170Y0360164D01*
X0431170Y0360439D02*
X0430344Y0360439D01*
X0433138Y0360530D02*
X0433138Y0354664D01*
X0432312Y0354664D01*
X0432312Y0360530D01*
X0433138Y0360530D01*
X0433138Y0354939D02*
X0432312Y0354939D01*
X0432312Y0355214D02*
X0433138Y0355214D01*
X0433138Y0355489D02*
X0432312Y0355489D01*
X0432312Y0355764D02*
X0433138Y0355764D01*
X0433138Y0356039D02*
X0432312Y0356039D01*
X0432312Y0356314D02*
X0433138Y0356314D01*
X0433138Y0356589D02*
X0432312Y0356589D01*
X0432312Y0356864D02*
X0433138Y0356864D01*
X0433138Y0357139D02*
X0432312Y0357139D01*
X0432312Y0357414D02*
X0433138Y0357414D01*
X0433138Y0357689D02*
X0432312Y0357689D01*
X0432312Y0357964D02*
X0433138Y0357964D01*
X0433138Y0358239D02*
X0432312Y0358239D01*
X0432312Y0358514D02*
X0433138Y0358514D01*
X0433138Y0358789D02*
X0432312Y0358789D01*
X0432312Y0359064D02*
X0433138Y0359064D01*
X0433138Y0359339D02*
X0432312Y0359339D01*
X0432312Y0359614D02*
X0433138Y0359614D01*
X0433138Y0359889D02*
X0432312Y0359889D01*
X0432312Y0360164D02*
X0433138Y0360164D01*
X0433138Y0360439D02*
X0432312Y0360439D01*
X0435107Y0360530D02*
X0435107Y0354664D01*
X0434281Y0354664D01*
X0434281Y0360530D01*
X0435107Y0360530D01*
X0435107Y0354939D02*
X0434281Y0354939D01*
X0434281Y0355214D02*
X0435107Y0355214D01*
X0435107Y0355489D02*
X0434281Y0355489D01*
X0434281Y0355764D02*
X0435107Y0355764D01*
X0435107Y0356039D02*
X0434281Y0356039D01*
X0434281Y0356314D02*
X0435107Y0356314D01*
X0435107Y0356589D02*
X0434281Y0356589D01*
X0434281Y0356864D02*
X0435107Y0356864D01*
X0435107Y0357139D02*
X0434281Y0357139D01*
X0434281Y0357414D02*
X0435107Y0357414D01*
X0435107Y0357689D02*
X0434281Y0357689D01*
X0434281Y0357964D02*
X0435107Y0357964D01*
X0435107Y0358239D02*
X0434281Y0358239D01*
X0434281Y0358514D02*
X0435107Y0358514D01*
X0435107Y0358789D02*
X0434281Y0358789D01*
X0434281Y0359064D02*
X0435107Y0359064D01*
X0435107Y0359339D02*
X0434281Y0359339D01*
X0434281Y0359614D02*
X0435107Y0359614D01*
X0435107Y0359889D02*
X0434281Y0359889D01*
X0434281Y0360164D02*
X0435107Y0360164D01*
X0435107Y0360439D02*
X0434281Y0360439D01*
X0437075Y0360530D02*
X0437075Y0354664D01*
X0436249Y0354664D01*
X0436249Y0360530D01*
X0437075Y0360530D01*
X0437075Y0354939D02*
X0436249Y0354939D01*
X0436249Y0355214D02*
X0437075Y0355214D01*
X0437075Y0355489D02*
X0436249Y0355489D01*
X0436249Y0355764D02*
X0437075Y0355764D01*
X0437075Y0356039D02*
X0436249Y0356039D01*
X0436249Y0356314D02*
X0437075Y0356314D01*
X0437075Y0356589D02*
X0436249Y0356589D01*
X0436249Y0356864D02*
X0437075Y0356864D01*
X0437075Y0357139D02*
X0436249Y0357139D01*
X0436249Y0357414D02*
X0437075Y0357414D01*
X0437075Y0357689D02*
X0436249Y0357689D01*
X0436249Y0357964D02*
X0437075Y0357964D01*
X0437075Y0358239D02*
X0436249Y0358239D01*
X0436249Y0358514D02*
X0437075Y0358514D01*
X0437075Y0358789D02*
X0436249Y0358789D01*
X0436249Y0359064D02*
X0437075Y0359064D01*
X0437075Y0359339D02*
X0436249Y0359339D01*
X0436249Y0359614D02*
X0437075Y0359614D01*
X0437075Y0359889D02*
X0436249Y0359889D01*
X0436249Y0360164D02*
X0437075Y0360164D01*
X0437075Y0360439D02*
X0436249Y0360439D01*
X0439044Y0360530D02*
X0439044Y0354664D01*
X0438218Y0354664D01*
X0438218Y0360530D01*
X0439044Y0360530D01*
X0439044Y0354939D02*
X0438218Y0354939D01*
X0438218Y0355214D02*
X0439044Y0355214D01*
X0439044Y0355489D02*
X0438218Y0355489D01*
X0438218Y0355764D02*
X0439044Y0355764D01*
X0439044Y0356039D02*
X0438218Y0356039D01*
X0438218Y0356314D02*
X0439044Y0356314D01*
X0439044Y0356589D02*
X0438218Y0356589D01*
X0438218Y0356864D02*
X0439044Y0356864D01*
X0439044Y0357139D02*
X0438218Y0357139D01*
X0438218Y0357414D02*
X0439044Y0357414D01*
X0439044Y0357689D02*
X0438218Y0357689D01*
X0438218Y0357964D02*
X0439044Y0357964D01*
X0439044Y0358239D02*
X0438218Y0358239D01*
X0438218Y0358514D02*
X0439044Y0358514D01*
X0439044Y0358789D02*
X0438218Y0358789D01*
X0438218Y0359064D02*
X0439044Y0359064D01*
X0439044Y0359339D02*
X0438218Y0359339D01*
X0438218Y0359614D02*
X0439044Y0359614D01*
X0439044Y0359889D02*
X0438218Y0359889D01*
X0438218Y0360164D02*
X0439044Y0360164D01*
X0439044Y0360439D02*
X0438218Y0360439D01*
X0441012Y0360530D02*
X0441012Y0354664D01*
X0440186Y0354664D01*
X0440186Y0360530D01*
X0441012Y0360530D01*
X0441012Y0354939D02*
X0440186Y0354939D01*
X0440186Y0355214D02*
X0441012Y0355214D01*
X0441012Y0355489D02*
X0440186Y0355489D01*
X0440186Y0355764D02*
X0441012Y0355764D01*
X0441012Y0356039D02*
X0440186Y0356039D01*
X0440186Y0356314D02*
X0441012Y0356314D01*
X0441012Y0356589D02*
X0440186Y0356589D01*
X0440186Y0356864D02*
X0441012Y0356864D01*
X0441012Y0357139D02*
X0440186Y0357139D01*
X0440186Y0357414D02*
X0441012Y0357414D01*
X0441012Y0357689D02*
X0440186Y0357689D01*
X0440186Y0357964D02*
X0441012Y0357964D01*
X0441012Y0358239D02*
X0440186Y0358239D01*
X0440186Y0358514D02*
X0441012Y0358514D01*
X0441012Y0358789D02*
X0440186Y0358789D01*
X0440186Y0359064D02*
X0441012Y0359064D01*
X0441012Y0359339D02*
X0440186Y0359339D01*
X0440186Y0359614D02*
X0441012Y0359614D01*
X0441012Y0359889D02*
X0440186Y0359889D01*
X0440186Y0360164D02*
X0441012Y0360164D01*
X0441012Y0360439D02*
X0440186Y0360439D01*
X0442981Y0360530D02*
X0442981Y0354664D01*
X0442155Y0354664D01*
X0442155Y0360530D01*
X0442981Y0360530D01*
X0442981Y0354939D02*
X0442155Y0354939D01*
X0442155Y0355214D02*
X0442981Y0355214D01*
X0442981Y0355489D02*
X0442155Y0355489D01*
X0442155Y0355764D02*
X0442981Y0355764D01*
X0442981Y0356039D02*
X0442155Y0356039D01*
X0442155Y0356314D02*
X0442981Y0356314D01*
X0442981Y0356589D02*
X0442155Y0356589D01*
X0442155Y0356864D02*
X0442981Y0356864D01*
X0442981Y0357139D02*
X0442155Y0357139D01*
X0442155Y0357414D02*
X0442981Y0357414D01*
X0442981Y0357689D02*
X0442155Y0357689D01*
X0442155Y0357964D02*
X0442981Y0357964D01*
X0442981Y0358239D02*
X0442155Y0358239D01*
X0442155Y0358514D02*
X0442981Y0358514D01*
X0442981Y0358789D02*
X0442155Y0358789D01*
X0442155Y0359064D02*
X0442981Y0359064D01*
X0442981Y0359339D02*
X0442155Y0359339D01*
X0442155Y0359614D02*
X0442981Y0359614D01*
X0442981Y0359889D02*
X0442155Y0359889D01*
X0442155Y0360164D02*
X0442981Y0360164D01*
X0442981Y0360439D02*
X0442155Y0360439D01*
X0444949Y0360530D02*
X0444949Y0354664D01*
X0444123Y0354664D01*
X0444123Y0360530D01*
X0444949Y0360530D01*
X0444949Y0354939D02*
X0444123Y0354939D01*
X0444123Y0355214D02*
X0444949Y0355214D01*
X0444949Y0355489D02*
X0444123Y0355489D01*
X0444123Y0355764D02*
X0444949Y0355764D01*
X0444949Y0356039D02*
X0444123Y0356039D01*
X0444123Y0356314D02*
X0444949Y0356314D01*
X0444949Y0356589D02*
X0444123Y0356589D01*
X0444123Y0356864D02*
X0444949Y0356864D01*
X0444949Y0357139D02*
X0444123Y0357139D01*
X0444123Y0357414D02*
X0444949Y0357414D01*
X0444949Y0357689D02*
X0444123Y0357689D01*
X0444123Y0357964D02*
X0444949Y0357964D01*
X0444949Y0358239D02*
X0444123Y0358239D01*
X0444123Y0358514D02*
X0444949Y0358514D01*
X0444949Y0358789D02*
X0444123Y0358789D01*
X0444123Y0359064D02*
X0444949Y0359064D01*
X0444949Y0359339D02*
X0444123Y0359339D01*
X0444123Y0359614D02*
X0444949Y0359614D01*
X0444949Y0359889D02*
X0444123Y0359889D01*
X0444123Y0360164D02*
X0444949Y0360164D01*
X0444949Y0360439D02*
X0444123Y0360439D01*
X0446918Y0360530D02*
X0446918Y0354664D01*
X0446092Y0354664D01*
X0446092Y0360530D01*
X0446918Y0360530D01*
X0446918Y0354939D02*
X0446092Y0354939D01*
X0446092Y0355214D02*
X0446918Y0355214D01*
X0446918Y0355489D02*
X0446092Y0355489D01*
X0446092Y0355764D02*
X0446918Y0355764D01*
X0446918Y0356039D02*
X0446092Y0356039D01*
X0446092Y0356314D02*
X0446918Y0356314D01*
X0446918Y0356589D02*
X0446092Y0356589D01*
X0446092Y0356864D02*
X0446918Y0356864D01*
X0446918Y0357139D02*
X0446092Y0357139D01*
X0446092Y0357414D02*
X0446918Y0357414D01*
X0446918Y0357689D02*
X0446092Y0357689D01*
X0446092Y0357964D02*
X0446918Y0357964D01*
X0446918Y0358239D02*
X0446092Y0358239D01*
X0446092Y0358514D02*
X0446918Y0358514D01*
X0446918Y0358789D02*
X0446092Y0358789D01*
X0446092Y0359064D02*
X0446918Y0359064D01*
X0446918Y0359339D02*
X0446092Y0359339D01*
X0446092Y0359614D02*
X0446918Y0359614D01*
X0446918Y0359889D02*
X0446092Y0359889D01*
X0446092Y0360164D02*
X0446918Y0360164D01*
X0446918Y0360439D02*
X0446092Y0360439D01*
X0448886Y0360530D02*
X0448886Y0354664D01*
X0448060Y0354664D01*
X0448060Y0360530D01*
X0448886Y0360530D01*
X0448886Y0354939D02*
X0448060Y0354939D01*
X0448060Y0355214D02*
X0448886Y0355214D01*
X0448886Y0355489D02*
X0448060Y0355489D01*
X0448060Y0355764D02*
X0448886Y0355764D01*
X0448886Y0356039D02*
X0448060Y0356039D01*
X0448060Y0356314D02*
X0448886Y0356314D01*
X0448886Y0356589D02*
X0448060Y0356589D01*
X0448060Y0356864D02*
X0448886Y0356864D01*
X0448886Y0357139D02*
X0448060Y0357139D01*
X0448060Y0357414D02*
X0448886Y0357414D01*
X0448886Y0357689D02*
X0448060Y0357689D01*
X0448060Y0357964D02*
X0448886Y0357964D01*
X0448886Y0358239D02*
X0448060Y0358239D01*
X0448060Y0358514D02*
X0448886Y0358514D01*
X0448886Y0358789D02*
X0448060Y0358789D01*
X0448060Y0359064D02*
X0448886Y0359064D01*
X0448886Y0359339D02*
X0448060Y0359339D01*
X0448060Y0359614D02*
X0448886Y0359614D01*
X0448886Y0359889D02*
X0448060Y0359889D01*
X0448060Y0360164D02*
X0448886Y0360164D01*
X0448886Y0360439D02*
X0448060Y0360439D01*
X0450855Y0360530D02*
X0450855Y0354664D01*
X0450029Y0354664D01*
X0450029Y0360530D01*
X0450855Y0360530D01*
X0450855Y0354939D02*
X0450029Y0354939D01*
X0450029Y0355214D02*
X0450855Y0355214D01*
X0450855Y0355489D02*
X0450029Y0355489D01*
X0450029Y0355764D02*
X0450855Y0355764D01*
X0450855Y0356039D02*
X0450029Y0356039D01*
X0450029Y0356314D02*
X0450855Y0356314D01*
X0450855Y0356589D02*
X0450029Y0356589D01*
X0450029Y0356864D02*
X0450855Y0356864D01*
X0450855Y0357139D02*
X0450029Y0357139D01*
X0450029Y0357414D02*
X0450855Y0357414D01*
X0450855Y0357689D02*
X0450029Y0357689D01*
X0450029Y0357964D02*
X0450855Y0357964D01*
X0450855Y0358239D02*
X0450029Y0358239D01*
X0450029Y0358514D02*
X0450855Y0358514D01*
X0450855Y0358789D02*
X0450029Y0358789D01*
X0450029Y0359064D02*
X0450855Y0359064D01*
X0450855Y0359339D02*
X0450029Y0359339D01*
X0450029Y0359614D02*
X0450855Y0359614D01*
X0450855Y0359889D02*
X0450029Y0359889D01*
X0450029Y0360164D02*
X0450855Y0360164D01*
X0450855Y0360439D02*
X0450029Y0360439D01*
X0452823Y0360530D02*
X0452823Y0354664D01*
X0451997Y0354664D01*
X0451997Y0360530D01*
X0452823Y0360530D01*
X0452823Y0354939D02*
X0451997Y0354939D01*
X0451997Y0355214D02*
X0452823Y0355214D01*
X0452823Y0355489D02*
X0451997Y0355489D01*
X0451997Y0355764D02*
X0452823Y0355764D01*
X0452823Y0356039D02*
X0451997Y0356039D01*
X0451997Y0356314D02*
X0452823Y0356314D01*
X0452823Y0356589D02*
X0451997Y0356589D01*
X0451997Y0356864D02*
X0452823Y0356864D01*
X0452823Y0357139D02*
X0451997Y0357139D01*
X0451997Y0357414D02*
X0452823Y0357414D01*
X0452823Y0357689D02*
X0451997Y0357689D01*
X0451997Y0357964D02*
X0452823Y0357964D01*
X0452823Y0358239D02*
X0451997Y0358239D01*
X0451997Y0358514D02*
X0452823Y0358514D01*
X0452823Y0358789D02*
X0451997Y0358789D01*
X0451997Y0359064D02*
X0452823Y0359064D01*
X0452823Y0359339D02*
X0451997Y0359339D01*
X0451997Y0359614D02*
X0452823Y0359614D01*
X0452823Y0359889D02*
X0451997Y0359889D01*
X0451997Y0360164D02*
X0452823Y0360164D01*
X0452823Y0360439D02*
X0451997Y0360439D01*
X0454792Y0360530D02*
X0454792Y0354664D01*
X0453966Y0354664D01*
X0453966Y0360530D01*
X0454792Y0360530D01*
X0454792Y0354939D02*
X0453966Y0354939D01*
X0453966Y0355214D02*
X0454792Y0355214D01*
X0454792Y0355489D02*
X0453966Y0355489D01*
X0453966Y0355764D02*
X0454792Y0355764D01*
X0454792Y0356039D02*
X0453966Y0356039D01*
X0453966Y0356314D02*
X0454792Y0356314D01*
X0454792Y0356589D02*
X0453966Y0356589D01*
X0453966Y0356864D02*
X0454792Y0356864D01*
X0454792Y0357139D02*
X0453966Y0357139D01*
X0453966Y0357414D02*
X0454792Y0357414D01*
X0454792Y0357689D02*
X0453966Y0357689D01*
X0453966Y0357964D02*
X0454792Y0357964D01*
X0454792Y0358239D02*
X0453966Y0358239D01*
X0453966Y0358514D02*
X0454792Y0358514D01*
X0454792Y0358789D02*
X0453966Y0358789D01*
X0453966Y0359064D02*
X0454792Y0359064D01*
X0454792Y0359339D02*
X0453966Y0359339D01*
X0453966Y0359614D02*
X0454792Y0359614D01*
X0454792Y0359889D02*
X0453966Y0359889D01*
X0453966Y0360164D02*
X0454792Y0360164D01*
X0454792Y0360439D02*
X0453966Y0360439D01*
X0456760Y0360530D02*
X0456760Y0354664D01*
X0455934Y0354664D01*
X0455934Y0360530D01*
X0456760Y0360530D01*
X0456760Y0354939D02*
X0455934Y0354939D01*
X0455934Y0355214D02*
X0456760Y0355214D01*
X0456760Y0355489D02*
X0455934Y0355489D01*
X0455934Y0355764D02*
X0456760Y0355764D01*
X0456760Y0356039D02*
X0455934Y0356039D01*
X0455934Y0356314D02*
X0456760Y0356314D01*
X0456760Y0356589D02*
X0455934Y0356589D01*
X0455934Y0356864D02*
X0456760Y0356864D01*
X0456760Y0357139D02*
X0455934Y0357139D01*
X0455934Y0357414D02*
X0456760Y0357414D01*
X0456760Y0357689D02*
X0455934Y0357689D01*
X0455934Y0357964D02*
X0456760Y0357964D01*
X0456760Y0358239D02*
X0455934Y0358239D01*
X0455934Y0358514D02*
X0456760Y0358514D01*
X0456760Y0358789D02*
X0455934Y0358789D01*
X0455934Y0359064D02*
X0456760Y0359064D01*
X0456760Y0359339D02*
X0455934Y0359339D01*
X0455934Y0359614D02*
X0456760Y0359614D01*
X0456760Y0359889D02*
X0455934Y0359889D01*
X0455934Y0360164D02*
X0456760Y0360164D01*
X0456760Y0360439D02*
X0455934Y0360439D01*
X0458729Y0360530D02*
X0458729Y0354664D01*
X0457903Y0354664D01*
X0457903Y0360530D01*
X0458729Y0360530D01*
X0458729Y0354939D02*
X0457903Y0354939D01*
X0457903Y0355214D02*
X0458729Y0355214D01*
X0458729Y0355489D02*
X0457903Y0355489D01*
X0457903Y0355764D02*
X0458729Y0355764D01*
X0458729Y0356039D02*
X0457903Y0356039D01*
X0457903Y0356314D02*
X0458729Y0356314D01*
X0458729Y0356589D02*
X0457903Y0356589D01*
X0457903Y0356864D02*
X0458729Y0356864D01*
X0458729Y0357139D02*
X0457903Y0357139D01*
X0457903Y0357414D02*
X0458729Y0357414D01*
X0458729Y0357689D02*
X0457903Y0357689D01*
X0457903Y0357964D02*
X0458729Y0357964D01*
X0458729Y0358239D02*
X0457903Y0358239D01*
X0457903Y0358514D02*
X0458729Y0358514D01*
X0458729Y0358789D02*
X0457903Y0358789D01*
X0457903Y0359064D02*
X0458729Y0359064D01*
X0458729Y0359339D02*
X0457903Y0359339D01*
X0457903Y0359614D02*
X0458729Y0359614D01*
X0458729Y0359889D02*
X0457903Y0359889D01*
X0457903Y0360164D02*
X0458729Y0360164D01*
X0458729Y0360439D02*
X0457903Y0360439D01*
X0460697Y0360530D02*
X0460697Y0354664D01*
X0459871Y0354664D01*
X0459871Y0360530D01*
X0460697Y0360530D01*
X0460697Y0354939D02*
X0459871Y0354939D01*
X0459871Y0355214D02*
X0460697Y0355214D01*
X0460697Y0355489D02*
X0459871Y0355489D01*
X0459871Y0355764D02*
X0460697Y0355764D01*
X0460697Y0356039D02*
X0459871Y0356039D01*
X0459871Y0356314D02*
X0460697Y0356314D01*
X0460697Y0356589D02*
X0459871Y0356589D01*
X0459871Y0356864D02*
X0460697Y0356864D01*
X0460697Y0357139D02*
X0459871Y0357139D01*
X0459871Y0357414D02*
X0460697Y0357414D01*
X0460697Y0357689D02*
X0459871Y0357689D01*
X0459871Y0357964D02*
X0460697Y0357964D01*
X0460697Y0358239D02*
X0459871Y0358239D01*
X0459871Y0358514D02*
X0460697Y0358514D01*
X0460697Y0358789D02*
X0459871Y0358789D01*
X0459871Y0359064D02*
X0460697Y0359064D01*
X0460697Y0359339D02*
X0459871Y0359339D01*
X0459871Y0359614D02*
X0460697Y0359614D01*
X0460697Y0359889D02*
X0459871Y0359889D01*
X0459871Y0360164D02*
X0460697Y0360164D01*
X0460697Y0360439D02*
X0459871Y0360439D01*
X0462666Y0360530D02*
X0462666Y0354664D01*
X0461840Y0354664D01*
X0461840Y0360530D01*
X0462666Y0360530D01*
X0462666Y0354939D02*
X0461840Y0354939D01*
X0461840Y0355214D02*
X0462666Y0355214D01*
X0462666Y0355489D02*
X0461840Y0355489D01*
X0461840Y0355764D02*
X0462666Y0355764D01*
X0462666Y0356039D02*
X0461840Y0356039D01*
X0461840Y0356314D02*
X0462666Y0356314D01*
X0462666Y0356589D02*
X0461840Y0356589D01*
X0461840Y0356864D02*
X0462666Y0356864D01*
X0462666Y0357139D02*
X0461840Y0357139D01*
X0461840Y0357414D02*
X0462666Y0357414D01*
X0462666Y0357689D02*
X0461840Y0357689D01*
X0461840Y0357964D02*
X0462666Y0357964D01*
X0462666Y0358239D02*
X0461840Y0358239D01*
X0461840Y0358514D02*
X0462666Y0358514D01*
X0462666Y0358789D02*
X0461840Y0358789D01*
X0461840Y0359064D02*
X0462666Y0359064D01*
X0462666Y0359339D02*
X0461840Y0359339D01*
X0461840Y0359614D02*
X0462666Y0359614D01*
X0462666Y0359889D02*
X0461840Y0359889D01*
X0461840Y0360164D02*
X0462666Y0360164D01*
X0462666Y0360439D02*
X0461840Y0360439D01*
X0464634Y0360530D02*
X0464634Y0354664D01*
X0463808Y0354664D01*
X0463808Y0360530D01*
X0464634Y0360530D01*
X0464634Y0354939D02*
X0463808Y0354939D01*
X0463808Y0355214D02*
X0464634Y0355214D01*
X0464634Y0355489D02*
X0463808Y0355489D01*
X0463808Y0355764D02*
X0464634Y0355764D01*
X0464634Y0356039D02*
X0463808Y0356039D01*
X0463808Y0356314D02*
X0464634Y0356314D01*
X0464634Y0356589D02*
X0463808Y0356589D01*
X0463808Y0356864D02*
X0464634Y0356864D01*
X0464634Y0357139D02*
X0463808Y0357139D01*
X0463808Y0357414D02*
X0464634Y0357414D01*
X0464634Y0357689D02*
X0463808Y0357689D01*
X0463808Y0357964D02*
X0464634Y0357964D01*
X0464634Y0358239D02*
X0463808Y0358239D01*
X0463808Y0358514D02*
X0464634Y0358514D01*
X0464634Y0358789D02*
X0463808Y0358789D01*
X0463808Y0359064D02*
X0464634Y0359064D01*
X0464634Y0359339D02*
X0463808Y0359339D01*
X0463808Y0359614D02*
X0464634Y0359614D01*
X0464634Y0359889D02*
X0463808Y0359889D01*
X0463808Y0360164D02*
X0464634Y0360164D01*
X0464634Y0360439D02*
X0463808Y0360439D01*
X0466603Y0360530D02*
X0466603Y0354664D01*
X0465777Y0354664D01*
X0465777Y0360530D01*
X0466603Y0360530D01*
X0466603Y0354939D02*
X0465777Y0354939D01*
X0465777Y0355214D02*
X0466603Y0355214D01*
X0466603Y0355489D02*
X0465777Y0355489D01*
X0465777Y0355764D02*
X0466603Y0355764D01*
X0466603Y0356039D02*
X0465777Y0356039D01*
X0465777Y0356314D02*
X0466603Y0356314D01*
X0466603Y0356589D02*
X0465777Y0356589D01*
X0465777Y0356864D02*
X0466603Y0356864D01*
X0466603Y0357139D02*
X0465777Y0357139D01*
X0465777Y0357414D02*
X0466603Y0357414D01*
X0466603Y0357689D02*
X0465777Y0357689D01*
X0465777Y0357964D02*
X0466603Y0357964D01*
X0466603Y0358239D02*
X0465777Y0358239D01*
X0465777Y0358514D02*
X0466603Y0358514D01*
X0466603Y0358789D02*
X0465777Y0358789D01*
X0465777Y0359064D02*
X0466603Y0359064D01*
X0466603Y0359339D02*
X0465777Y0359339D01*
X0465777Y0359614D02*
X0466603Y0359614D01*
X0466603Y0359889D02*
X0465777Y0359889D01*
X0465777Y0360164D02*
X0466603Y0360164D01*
X0466603Y0360439D02*
X0465777Y0360439D01*
X0468571Y0360530D02*
X0468571Y0354664D01*
X0467745Y0354664D01*
X0467745Y0360530D01*
X0468571Y0360530D01*
X0468571Y0354939D02*
X0467745Y0354939D01*
X0467745Y0355214D02*
X0468571Y0355214D01*
X0468571Y0355489D02*
X0467745Y0355489D01*
X0467745Y0355764D02*
X0468571Y0355764D01*
X0468571Y0356039D02*
X0467745Y0356039D01*
X0467745Y0356314D02*
X0468571Y0356314D01*
X0468571Y0356589D02*
X0467745Y0356589D01*
X0467745Y0356864D02*
X0468571Y0356864D01*
X0468571Y0357139D02*
X0467745Y0357139D01*
X0467745Y0357414D02*
X0468571Y0357414D01*
X0468571Y0357689D02*
X0467745Y0357689D01*
X0467745Y0357964D02*
X0468571Y0357964D01*
X0468571Y0358239D02*
X0467745Y0358239D01*
X0467745Y0358514D02*
X0468571Y0358514D01*
X0468571Y0358789D02*
X0467745Y0358789D01*
X0467745Y0359064D02*
X0468571Y0359064D01*
X0468571Y0359339D02*
X0467745Y0359339D01*
X0467745Y0359614D02*
X0468571Y0359614D01*
X0468571Y0359889D02*
X0467745Y0359889D01*
X0467745Y0360164D02*
X0468571Y0360164D01*
X0468571Y0360439D02*
X0467745Y0360439D01*
X0470540Y0360530D02*
X0470540Y0354664D01*
X0469714Y0354664D01*
X0469714Y0360530D01*
X0470540Y0360530D01*
X0470540Y0354939D02*
X0469714Y0354939D01*
X0469714Y0355214D02*
X0470540Y0355214D01*
X0470540Y0355489D02*
X0469714Y0355489D01*
X0469714Y0355764D02*
X0470540Y0355764D01*
X0470540Y0356039D02*
X0469714Y0356039D01*
X0469714Y0356314D02*
X0470540Y0356314D01*
X0470540Y0356589D02*
X0469714Y0356589D01*
X0469714Y0356864D02*
X0470540Y0356864D01*
X0470540Y0357139D02*
X0469714Y0357139D01*
X0469714Y0357414D02*
X0470540Y0357414D01*
X0470540Y0357689D02*
X0469714Y0357689D01*
X0469714Y0357964D02*
X0470540Y0357964D01*
X0470540Y0358239D02*
X0469714Y0358239D01*
X0469714Y0358514D02*
X0470540Y0358514D01*
X0470540Y0358789D02*
X0469714Y0358789D01*
X0469714Y0359064D02*
X0470540Y0359064D01*
X0470540Y0359339D02*
X0469714Y0359339D01*
X0469714Y0359614D02*
X0470540Y0359614D01*
X0470540Y0359889D02*
X0469714Y0359889D01*
X0469714Y0360164D02*
X0470540Y0360164D01*
X0470540Y0360439D02*
X0469714Y0360439D01*
X0472508Y0360530D02*
X0472508Y0354664D01*
X0471682Y0354664D01*
X0471682Y0360530D01*
X0472508Y0360530D01*
X0472508Y0354939D02*
X0471682Y0354939D01*
X0471682Y0355214D02*
X0472508Y0355214D01*
X0472508Y0355489D02*
X0471682Y0355489D01*
X0471682Y0355764D02*
X0472508Y0355764D01*
X0472508Y0356039D02*
X0471682Y0356039D01*
X0471682Y0356314D02*
X0472508Y0356314D01*
X0472508Y0356589D02*
X0471682Y0356589D01*
X0471682Y0356864D02*
X0472508Y0356864D01*
X0472508Y0357139D02*
X0471682Y0357139D01*
X0471682Y0357414D02*
X0472508Y0357414D01*
X0472508Y0357689D02*
X0471682Y0357689D01*
X0471682Y0357964D02*
X0472508Y0357964D01*
X0472508Y0358239D02*
X0471682Y0358239D01*
X0471682Y0358514D02*
X0472508Y0358514D01*
X0472508Y0358789D02*
X0471682Y0358789D01*
X0471682Y0359064D02*
X0472508Y0359064D01*
X0472508Y0359339D02*
X0471682Y0359339D01*
X0471682Y0359614D02*
X0472508Y0359614D01*
X0472508Y0359889D02*
X0471682Y0359889D01*
X0471682Y0360164D02*
X0472508Y0360164D01*
X0472508Y0360439D02*
X0471682Y0360439D01*
X0474477Y0360530D02*
X0474477Y0354664D01*
X0473651Y0354664D01*
X0473651Y0360530D01*
X0474477Y0360530D01*
X0474477Y0354939D02*
X0473651Y0354939D01*
X0473651Y0355214D02*
X0474477Y0355214D01*
X0474477Y0355489D02*
X0473651Y0355489D01*
X0473651Y0355764D02*
X0474477Y0355764D01*
X0474477Y0356039D02*
X0473651Y0356039D01*
X0473651Y0356314D02*
X0474477Y0356314D01*
X0474477Y0356589D02*
X0473651Y0356589D01*
X0473651Y0356864D02*
X0474477Y0356864D01*
X0474477Y0357139D02*
X0473651Y0357139D01*
X0473651Y0357414D02*
X0474477Y0357414D01*
X0474477Y0357689D02*
X0473651Y0357689D01*
X0473651Y0357964D02*
X0474477Y0357964D01*
X0474477Y0358239D02*
X0473651Y0358239D01*
X0473651Y0358514D02*
X0474477Y0358514D01*
X0474477Y0358789D02*
X0473651Y0358789D01*
X0473651Y0359064D02*
X0474477Y0359064D01*
X0474477Y0359339D02*
X0473651Y0359339D01*
X0473651Y0359614D02*
X0474477Y0359614D01*
X0474477Y0359889D02*
X0473651Y0359889D01*
X0473651Y0360164D02*
X0474477Y0360164D01*
X0474477Y0360439D02*
X0473651Y0360439D01*
X0476445Y0360530D02*
X0476445Y0354664D01*
X0475619Y0354664D01*
X0475619Y0360530D01*
X0476445Y0360530D01*
X0476445Y0354939D02*
X0475619Y0354939D01*
X0475619Y0355214D02*
X0476445Y0355214D01*
X0476445Y0355489D02*
X0475619Y0355489D01*
X0475619Y0355764D02*
X0476445Y0355764D01*
X0476445Y0356039D02*
X0475619Y0356039D01*
X0475619Y0356314D02*
X0476445Y0356314D01*
X0476445Y0356589D02*
X0475619Y0356589D01*
X0475619Y0356864D02*
X0476445Y0356864D01*
X0476445Y0357139D02*
X0475619Y0357139D01*
X0475619Y0357414D02*
X0476445Y0357414D01*
X0476445Y0357689D02*
X0475619Y0357689D01*
X0475619Y0357964D02*
X0476445Y0357964D01*
X0476445Y0358239D02*
X0475619Y0358239D01*
X0475619Y0358514D02*
X0476445Y0358514D01*
X0476445Y0358789D02*
X0475619Y0358789D01*
X0475619Y0359064D02*
X0476445Y0359064D01*
X0476445Y0359339D02*
X0475619Y0359339D01*
X0475619Y0359614D02*
X0476445Y0359614D01*
X0476445Y0359889D02*
X0475619Y0359889D01*
X0475619Y0360164D02*
X0476445Y0360164D01*
X0476445Y0360439D02*
X0475619Y0360439D01*
X0478414Y0360530D02*
X0478414Y0354664D01*
X0477588Y0354664D01*
X0477588Y0360530D01*
X0478414Y0360530D01*
X0478414Y0354939D02*
X0477588Y0354939D01*
X0477588Y0355214D02*
X0478414Y0355214D01*
X0478414Y0355489D02*
X0477588Y0355489D01*
X0477588Y0355764D02*
X0478414Y0355764D01*
X0478414Y0356039D02*
X0477588Y0356039D01*
X0477588Y0356314D02*
X0478414Y0356314D01*
X0478414Y0356589D02*
X0477588Y0356589D01*
X0477588Y0356864D02*
X0478414Y0356864D01*
X0478414Y0357139D02*
X0477588Y0357139D01*
X0477588Y0357414D02*
X0478414Y0357414D01*
X0478414Y0357689D02*
X0477588Y0357689D01*
X0477588Y0357964D02*
X0478414Y0357964D01*
X0478414Y0358239D02*
X0477588Y0358239D01*
X0477588Y0358514D02*
X0478414Y0358514D01*
X0478414Y0358789D02*
X0477588Y0358789D01*
X0477588Y0359064D02*
X0478414Y0359064D01*
X0478414Y0359339D02*
X0477588Y0359339D01*
X0477588Y0359614D02*
X0478414Y0359614D01*
X0478414Y0359889D02*
X0477588Y0359889D01*
X0477588Y0360164D02*
X0478414Y0360164D01*
X0478414Y0360439D02*
X0477588Y0360439D01*
X0480382Y0360530D02*
X0480382Y0354664D01*
X0479556Y0354664D01*
X0479556Y0360530D01*
X0480382Y0360530D01*
X0480382Y0354939D02*
X0479556Y0354939D01*
X0479556Y0355214D02*
X0480382Y0355214D01*
X0480382Y0355489D02*
X0479556Y0355489D01*
X0479556Y0355764D02*
X0480382Y0355764D01*
X0480382Y0356039D02*
X0479556Y0356039D01*
X0479556Y0356314D02*
X0480382Y0356314D01*
X0480382Y0356589D02*
X0479556Y0356589D01*
X0479556Y0356864D02*
X0480382Y0356864D01*
X0480382Y0357139D02*
X0479556Y0357139D01*
X0479556Y0357414D02*
X0480382Y0357414D01*
X0480382Y0357689D02*
X0479556Y0357689D01*
X0479556Y0357964D02*
X0480382Y0357964D01*
X0480382Y0358239D02*
X0479556Y0358239D01*
X0479556Y0358514D02*
X0480382Y0358514D01*
X0480382Y0358789D02*
X0479556Y0358789D01*
X0479556Y0359064D02*
X0480382Y0359064D01*
X0480382Y0359339D02*
X0479556Y0359339D01*
X0479556Y0359614D02*
X0480382Y0359614D01*
X0480382Y0359889D02*
X0479556Y0359889D01*
X0479556Y0360164D02*
X0480382Y0360164D01*
X0480382Y0360439D02*
X0479556Y0360439D01*
X0482351Y0360530D02*
X0482351Y0354664D01*
X0481525Y0354664D01*
X0481525Y0360530D01*
X0482351Y0360530D01*
X0482351Y0354939D02*
X0481525Y0354939D01*
X0481525Y0355214D02*
X0482351Y0355214D01*
X0482351Y0355489D02*
X0481525Y0355489D01*
X0481525Y0355764D02*
X0482351Y0355764D01*
X0482351Y0356039D02*
X0481525Y0356039D01*
X0481525Y0356314D02*
X0482351Y0356314D01*
X0482351Y0356589D02*
X0481525Y0356589D01*
X0481525Y0356864D02*
X0482351Y0356864D01*
X0482351Y0357139D02*
X0481525Y0357139D01*
X0481525Y0357414D02*
X0482351Y0357414D01*
X0482351Y0357689D02*
X0481525Y0357689D01*
X0481525Y0357964D02*
X0482351Y0357964D01*
X0482351Y0358239D02*
X0481525Y0358239D01*
X0481525Y0358514D02*
X0482351Y0358514D01*
X0482351Y0358789D02*
X0481525Y0358789D01*
X0481525Y0359064D02*
X0482351Y0359064D01*
X0482351Y0359339D02*
X0481525Y0359339D01*
X0481525Y0359614D02*
X0482351Y0359614D01*
X0482351Y0359889D02*
X0481525Y0359889D01*
X0481525Y0360164D02*
X0482351Y0360164D01*
X0482351Y0360439D02*
X0481525Y0360439D01*
X0484319Y0360530D02*
X0484319Y0354664D01*
X0483493Y0354664D01*
X0483493Y0360530D01*
X0484319Y0360530D01*
X0484319Y0354939D02*
X0483493Y0354939D01*
X0483493Y0355214D02*
X0484319Y0355214D01*
X0484319Y0355489D02*
X0483493Y0355489D01*
X0483493Y0355764D02*
X0484319Y0355764D01*
X0484319Y0356039D02*
X0483493Y0356039D01*
X0483493Y0356314D02*
X0484319Y0356314D01*
X0484319Y0356589D02*
X0483493Y0356589D01*
X0483493Y0356864D02*
X0484319Y0356864D01*
X0484319Y0357139D02*
X0483493Y0357139D01*
X0483493Y0357414D02*
X0484319Y0357414D01*
X0484319Y0357689D02*
X0483493Y0357689D01*
X0483493Y0357964D02*
X0484319Y0357964D01*
X0484319Y0358239D02*
X0483493Y0358239D01*
X0483493Y0358514D02*
X0484319Y0358514D01*
X0484319Y0358789D02*
X0483493Y0358789D01*
X0483493Y0359064D02*
X0484319Y0359064D01*
X0484319Y0359339D02*
X0483493Y0359339D01*
X0483493Y0359614D02*
X0484319Y0359614D01*
X0484319Y0359889D02*
X0483493Y0359889D01*
X0483493Y0360164D02*
X0484319Y0360164D01*
X0484319Y0360439D02*
X0483493Y0360439D01*
X0486288Y0360530D02*
X0486288Y0354664D01*
X0485462Y0354664D01*
X0485462Y0360530D01*
X0486288Y0360530D01*
X0486288Y0354939D02*
X0485462Y0354939D01*
X0485462Y0355214D02*
X0486288Y0355214D01*
X0486288Y0355489D02*
X0485462Y0355489D01*
X0485462Y0355764D02*
X0486288Y0355764D01*
X0486288Y0356039D02*
X0485462Y0356039D01*
X0485462Y0356314D02*
X0486288Y0356314D01*
X0486288Y0356589D02*
X0485462Y0356589D01*
X0485462Y0356864D02*
X0486288Y0356864D01*
X0486288Y0357139D02*
X0485462Y0357139D01*
X0485462Y0357414D02*
X0486288Y0357414D01*
X0486288Y0357689D02*
X0485462Y0357689D01*
X0485462Y0357964D02*
X0486288Y0357964D01*
X0486288Y0358239D02*
X0485462Y0358239D01*
X0485462Y0358514D02*
X0486288Y0358514D01*
X0486288Y0358789D02*
X0485462Y0358789D01*
X0485462Y0359064D02*
X0486288Y0359064D01*
X0486288Y0359339D02*
X0485462Y0359339D01*
X0485462Y0359614D02*
X0486288Y0359614D01*
X0486288Y0359889D02*
X0485462Y0359889D01*
X0485462Y0360164D02*
X0486288Y0360164D01*
X0486288Y0360439D02*
X0485462Y0360439D01*
X0488256Y0360530D02*
X0488256Y0354664D01*
X0487430Y0354664D01*
X0487430Y0360530D01*
X0488256Y0360530D01*
X0488256Y0354939D02*
X0487430Y0354939D01*
X0487430Y0355214D02*
X0488256Y0355214D01*
X0488256Y0355489D02*
X0487430Y0355489D01*
X0487430Y0355764D02*
X0488256Y0355764D01*
X0488256Y0356039D02*
X0487430Y0356039D01*
X0487430Y0356314D02*
X0488256Y0356314D01*
X0488256Y0356589D02*
X0487430Y0356589D01*
X0487430Y0356864D02*
X0488256Y0356864D01*
X0488256Y0357139D02*
X0487430Y0357139D01*
X0487430Y0357414D02*
X0488256Y0357414D01*
X0488256Y0357689D02*
X0487430Y0357689D01*
X0487430Y0357964D02*
X0488256Y0357964D01*
X0488256Y0358239D02*
X0487430Y0358239D01*
X0487430Y0358514D02*
X0488256Y0358514D01*
X0488256Y0358789D02*
X0487430Y0358789D01*
X0487430Y0359064D02*
X0488256Y0359064D01*
X0488256Y0359339D02*
X0487430Y0359339D01*
X0487430Y0359614D02*
X0488256Y0359614D01*
X0488256Y0359889D02*
X0487430Y0359889D01*
X0487430Y0360164D02*
X0488256Y0360164D01*
X0488256Y0360439D02*
X0487430Y0360439D01*
X0490225Y0360530D02*
X0490225Y0354664D01*
X0489399Y0354664D01*
X0489399Y0360530D01*
X0490225Y0360530D01*
X0490225Y0354939D02*
X0489399Y0354939D01*
X0489399Y0355214D02*
X0490225Y0355214D01*
X0490225Y0355489D02*
X0489399Y0355489D01*
X0489399Y0355764D02*
X0490225Y0355764D01*
X0490225Y0356039D02*
X0489399Y0356039D01*
X0489399Y0356314D02*
X0490225Y0356314D01*
X0490225Y0356589D02*
X0489399Y0356589D01*
X0489399Y0356864D02*
X0490225Y0356864D01*
X0490225Y0357139D02*
X0489399Y0357139D01*
X0489399Y0357414D02*
X0490225Y0357414D01*
X0490225Y0357689D02*
X0489399Y0357689D01*
X0489399Y0357964D02*
X0490225Y0357964D01*
X0490225Y0358239D02*
X0489399Y0358239D01*
X0489399Y0358514D02*
X0490225Y0358514D01*
X0490225Y0358789D02*
X0489399Y0358789D01*
X0489399Y0359064D02*
X0490225Y0359064D01*
X0490225Y0359339D02*
X0489399Y0359339D01*
X0489399Y0359614D02*
X0490225Y0359614D01*
X0490225Y0359889D02*
X0489399Y0359889D01*
X0489399Y0360164D02*
X0490225Y0360164D01*
X0490225Y0360439D02*
X0489399Y0360439D01*
X0492193Y0360530D02*
X0492193Y0354664D01*
X0491367Y0354664D01*
X0491367Y0360530D01*
X0492193Y0360530D01*
X0492193Y0354939D02*
X0491367Y0354939D01*
X0491367Y0355214D02*
X0492193Y0355214D01*
X0492193Y0355489D02*
X0491367Y0355489D01*
X0491367Y0355764D02*
X0492193Y0355764D01*
X0492193Y0356039D02*
X0491367Y0356039D01*
X0491367Y0356314D02*
X0492193Y0356314D01*
X0492193Y0356589D02*
X0491367Y0356589D01*
X0491367Y0356864D02*
X0492193Y0356864D01*
X0492193Y0357139D02*
X0491367Y0357139D01*
X0491367Y0357414D02*
X0492193Y0357414D01*
X0492193Y0357689D02*
X0491367Y0357689D01*
X0491367Y0357964D02*
X0492193Y0357964D01*
X0492193Y0358239D02*
X0491367Y0358239D01*
X0491367Y0358514D02*
X0492193Y0358514D01*
X0492193Y0358789D02*
X0491367Y0358789D01*
X0491367Y0359064D02*
X0492193Y0359064D01*
X0492193Y0359339D02*
X0491367Y0359339D01*
X0491367Y0359614D02*
X0492193Y0359614D01*
X0492193Y0359889D02*
X0491367Y0359889D01*
X0491367Y0360164D02*
X0492193Y0360164D01*
X0492193Y0360439D02*
X0491367Y0360439D01*
X0494162Y0360530D02*
X0494162Y0354664D01*
X0493336Y0354664D01*
X0493336Y0360530D01*
X0494162Y0360530D01*
X0494162Y0354939D02*
X0493336Y0354939D01*
X0493336Y0355214D02*
X0494162Y0355214D01*
X0494162Y0355489D02*
X0493336Y0355489D01*
X0493336Y0355764D02*
X0494162Y0355764D01*
X0494162Y0356039D02*
X0493336Y0356039D01*
X0493336Y0356314D02*
X0494162Y0356314D01*
X0494162Y0356589D02*
X0493336Y0356589D01*
X0493336Y0356864D02*
X0494162Y0356864D01*
X0494162Y0357139D02*
X0493336Y0357139D01*
X0493336Y0357414D02*
X0494162Y0357414D01*
X0494162Y0357689D02*
X0493336Y0357689D01*
X0493336Y0357964D02*
X0494162Y0357964D01*
X0494162Y0358239D02*
X0493336Y0358239D01*
X0493336Y0358514D02*
X0494162Y0358514D01*
X0494162Y0358789D02*
X0493336Y0358789D01*
X0493336Y0359064D02*
X0494162Y0359064D01*
X0494162Y0359339D02*
X0493336Y0359339D01*
X0493336Y0359614D02*
X0494162Y0359614D01*
X0494162Y0359889D02*
X0493336Y0359889D01*
X0493336Y0360164D02*
X0494162Y0360164D01*
X0494162Y0360439D02*
X0493336Y0360439D01*
X0498414Y0349586D02*
X0504280Y0349586D01*
X0498414Y0349586D02*
X0498414Y0350412D01*
X0504280Y0350412D01*
X0504280Y0349586D01*
X0504280Y0349861D02*
X0498414Y0349861D01*
X0498414Y0350136D02*
X0504280Y0350136D01*
X0504280Y0350411D02*
X0498414Y0350411D01*
X0498414Y0347617D02*
X0504280Y0347617D01*
X0498414Y0347617D02*
X0498414Y0348443D01*
X0504280Y0348443D01*
X0504280Y0347617D01*
X0504280Y0347892D02*
X0498414Y0347892D01*
X0498414Y0348167D02*
X0504280Y0348167D01*
X0504280Y0348442D02*
X0498414Y0348442D01*
X0498414Y0345649D02*
X0504280Y0345649D01*
X0498414Y0345649D02*
X0498414Y0346475D01*
X0504280Y0346475D01*
X0504280Y0345649D01*
X0504280Y0345924D02*
X0498414Y0345924D01*
X0498414Y0346199D02*
X0504280Y0346199D01*
X0504280Y0346474D02*
X0498414Y0346474D01*
X0498414Y0343680D02*
X0504280Y0343680D01*
X0498414Y0343680D02*
X0498414Y0344506D01*
X0504280Y0344506D01*
X0504280Y0343680D01*
X0504280Y0343955D02*
X0498414Y0343955D01*
X0498414Y0344230D02*
X0504280Y0344230D01*
X0504280Y0344505D02*
X0498414Y0344505D01*
X0498414Y0341712D02*
X0504280Y0341712D01*
X0498414Y0341712D02*
X0498414Y0342538D01*
X0504280Y0342538D01*
X0504280Y0341712D01*
X0504280Y0341987D02*
X0498414Y0341987D01*
X0498414Y0342262D02*
X0504280Y0342262D01*
X0504280Y0342537D02*
X0498414Y0342537D01*
X0498414Y0339743D02*
X0504280Y0339743D01*
X0498414Y0339743D02*
X0498414Y0340569D01*
X0504280Y0340569D01*
X0504280Y0339743D01*
X0504280Y0340018D02*
X0498414Y0340018D01*
X0498414Y0340293D02*
X0504280Y0340293D01*
X0504280Y0340568D02*
X0498414Y0340568D01*
X0498414Y0337775D02*
X0504280Y0337775D01*
X0498414Y0337775D02*
X0498414Y0338601D01*
X0504280Y0338601D01*
X0504280Y0337775D01*
X0504280Y0338050D02*
X0498414Y0338050D01*
X0498414Y0338325D02*
X0504280Y0338325D01*
X0504280Y0338600D02*
X0498414Y0338600D01*
X0498414Y0335806D02*
X0504280Y0335806D01*
X0498414Y0335806D02*
X0498414Y0336632D01*
X0504280Y0336632D01*
X0504280Y0335806D01*
X0504280Y0336081D02*
X0498414Y0336081D01*
X0498414Y0336356D02*
X0504280Y0336356D01*
X0504280Y0336631D02*
X0498414Y0336631D01*
X0498414Y0333838D02*
X0504280Y0333838D01*
X0498414Y0333838D02*
X0498414Y0334664D01*
X0504280Y0334664D01*
X0504280Y0333838D01*
X0504280Y0334113D02*
X0498414Y0334113D01*
X0498414Y0334388D02*
X0504280Y0334388D01*
X0504280Y0334663D02*
X0498414Y0334663D01*
X0498414Y0331869D02*
X0504280Y0331869D01*
X0498414Y0331869D02*
X0498414Y0332695D01*
X0504280Y0332695D01*
X0504280Y0331869D01*
X0504280Y0332144D02*
X0498414Y0332144D01*
X0498414Y0332419D02*
X0504280Y0332419D01*
X0504280Y0332694D02*
X0498414Y0332694D01*
X0498414Y0329901D02*
X0504280Y0329901D01*
X0498414Y0329901D02*
X0498414Y0330727D01*
X0504280Y0330727D01*
X0504280Y0329901D01*
X0504280Y0330176D02*
X0498414Y0330176D01*
X0498414Y0330451D02*
X0504280Y0330451D01*
X0504280Y0330726D02*
X0498414Y0330726D01*
X0498414Y0327932D02*
X0504280Y0327932D01*
X0498414Y0327932D02*
X0498414Y0328758D01*
X0504280Y0328758D01*
X0504280Y0327932D01*
X0504280Y0328207D02*
X0498414Y0328207D01*
X0498414Y0328482D02*
X0504280Y0328482D01*
X0504280Y0328757D02*
X0498414Y0328757D01*
X0498414Y0325964D02*
X0504280Y0325964D01*
X0498414Y0325964D02*
X0498414Y0326790D01*
X0504280Y0326790D01*
X0504280Y0325964D01*
X0504280Y0326239D02*
X0498414Y0326239D01*
X0498414Y0326514D02*
X0504280Y0326514D01*
X0504280Y0326789D02*
X0498414Y0326789D01*
X0498414Y0323995D02*
X0504280Y0323995D01*
X0498414Y0323995D02*
X0498414Y0324821D01*
X0504280Y0324821D01*
X0504280Y0323995D01*
X0504280Y0324270D02*
X0498414Y0324270D01*
X0498414Y0324545D02*
X0504280Y0324545D01*
X0504280Y0324820D02*
X0498414Y0324820D01*
X0498414Y0322027D02*
X0504280Y0322027D01*
X0498414Y0322027D02*
X0498414Y0322853D01*
X0504280Y0322853D01*
X0504280Y0322027D01*
X0504280Y0322302D02*
X0498414Y0322302D01*
X0498414Y0322577D02*
X0504280Y0322577D01*
X0504280Y0322852D02*
X0498414Y0322852D01*
X0498414Y0320058D02*
X0504280Y0320058D01*
X0498414Y0320058D02*
X0498414Y0320884D01*
X0504280Y0320884D01*
X0504280Y0320058D01*
X0504280Y0320333D02*
X0498414Y0320333D01*
X0498414Y0320608D02*
X0504280Y0320608D01*
X0504280Y0320883D02*
X0498414Y0320883D01*
X0498414Y0318090D02*
X0504280Y0318090D01*
X0498414Y0318090D02*
X0498414Y0318916D01*
X0504280Y0318916D01*
X0504280Y0318090D01*
X0504280Y0318365D02*
X0498414Y0318365D01*
X0498414Y0318640D02*
X0504280Y0318640D01*
X0504280Y0318915D02*
X0498414Y0318915D01*
X0498414Y0316121D02*
X0504280Y0316121D01*
X0498414Y0316121D02*
X0498414Y0316947D01*
X0504280Y0316947D01*
X0504280Y0316121D01*
X0504280Y0316396D02*
X0498414Y0316396D01*
X0498414Y0316671D02*
X0504280Y0316671D01*
X0504280Y0316946D02*
X0498414Y0316946D01*
X0498414Y0314153D02*
X0504280Y0314153D01*
X0498414Y0314153D02*
X0498414Y0314979D01*
X0504280Y0314979D01*
X0504280Y0314153D01*
X0504280Y0314428D02*
X0498414Y0314428D01*
X0498414Y0314703D02*
X0504280Y0314703D01*
X0504280Y0314978D02*
X0498414Y0314978D01*
X0498414Y0312184D02*
X0504280Y0312184D01*
X0498414Y0312184D02*
X0498414Y0313010D01*
X0504280Y0313010D01*
X0504280Y0312184D01*
X0504280Y0312459D02*
X0498414Y0312459D01*
X0498414Y0312734D02*
X0504280Y0312734D01*
X0504280Y0313009D02*
X0498414Y0313009D01*
X0498414Y0310216D02*
X0504280Y0310216D01*
X0498414Y0310216D02*
X0498414Y0311042D01*
X0504280Y0311042D01*
X0504280Y0310216D01*
X0504280Y0310491D02*
X0498414Y0310491D01*
X0498414Y0310766D02*
X0504280Y0310766D01*
X0504280Y0311041D02*
X0498414Y0311041D01*
X0498414Y0308247D02*
X0504280Y0308247D01*
X0498414Y0308247D02*
X0498414Y0309073D01*
X0504280Y0309073D01*
X0504280Y0308247D01*
X0504280Y0308522D02*
X0498414Y0308522D01*
X0498414Y0308797D02*
X0504280Y0308797D01*
X0504280Y0309072D02*
X0498414Y0309072D01*
X0498414Y0306279D02*
X0504280Y0306279D01*
X0498414Y0306279D02*
X0498414Y0307105D01*
X0504280Y0307105D01*
X0504280Y0306279D01*
X0504280Y0306554D02*
X0498414Y0306554D01*
X0498414Y0306829D02*
X0504280Y0306829D01*
X0504280Y0307104D02*
X0498414Y0307104D01*
X0498414Y0304310D02*
X0504280Y0304310D01*
X0498414Y0304310D02*
X0498414Y0305136D01*
X0504280Y0305136D01*
X0504280Y0304310D01*
X0504280Y0304585D02*
X0498414Y0304585D01*
X0498414Y0304860D02*
X0504280Y0304860D01*
X0504280Y0305135D02*
X0498414Y0305135D01*
X0498414Y0302342D02*
X0504280Y0302342D01*
X0498414Y0302342D02*
X0498414Y0303168D01*
X0504280Y0303168D01*
X0504280Y0302342D01*
X0504280Y0302617D02*
X0498414Y0302617D01*
X0498414Y0302892D02*
X0504280Y0302892D01*
X0504280Y0303167D02*
X0498414Y0303167D01*
X0498414Y0300373D02*
X0504280Y0300373D01*
X0498414Y0300373D02*
X0498414Y0301199D01*
X0504280Y0301199D01*
X0504280Y0300373D01*
X0504280Y0300648D02*
X0498414Y0300648D01*
X0498414Y0300923D02*
X0504280Y0300923D01*
X0504280Y0301198D02*
X0498414Y0301198D01*
X0498414Y0298405D02*
X0504280Y0298405D01*
X0498414Y0298405D02*
X0498414Y0299231D01*
X0504280Y0299231D01*
X0504280Y0298405D01*
X0504280Y0298680D02*
X0498414Y0298680D01*
X0498414Y0298955D02*
X0504280Y0298955D01*
X0504280Y0299230D02*
X0498414Y0299230D01*
X0498414Y0296436D02*
X0504280Y0296436D01*
X0498414Y0296436D02*
X0498414Y0297262D01*
X0504280Y0297262D01*
X0504280Y0296436D01*
X0504280Y0296711D02*
X0498414Y0296711D01*
X0498414Y0296986D02*
X0504280Y0296986D01*
X0504280Y0297261D02*
X0498414Y0297261D01*
X0498414Y0294468D02*
X0504280Y0294468D01*
X0498414Y0294468D02*
X0498414Y0295294D01*
X0504280Y0295294D01*
X0504280Y0294468D01*
X0504280Y0294743D02*
X0498414Y0294743D01*
X0498414Y0295018D02*
X0504280Y0295018D01*
X0504280Y0295293D02*
X0498414Y0295293D01*
X0498414Y0292499D02*
X0504280Y0292499D01*
X0498414Y0292499D02*
X0498414Y0293325D01*
X0504280Y0293325D01*
X0504280Y0292499D01*
X0504280Y0292774D02*
X0498414Y0292774D01*
X0498414Y0293049D02*
X0504280Y0293049D01*
X0504280Y0293324D02*
X0498414Y0293324D01*
X0498414Y0290531D02*
X0504280Y0290531D01*
X0498414Y0290531D02*
X0498414Y0291357D01*
X0504280Y0291357D01*
X0504280Y0290531D01*
X0504280Y0290806D02*
X0498414Y0290806D01*
X0498414Y0291081D02*
X0504280Y0291081D01*
X0504280Y0291356D02*
X0498414Y0291356D01*
X0498414Y0288562D02*
X0504280Y0288562D01*
X0498414Y0288562D02*
X0498414Y0289388D01*
X0504280Y0289388D01*
X0504280Y0288562D01*
X0504280Y0288837D02*
X0498414Y0288837D01*
X0498414Y0289112D02*
X0504280Y0289112D01*
X0504280Y0289387D02*
X0498414Y0289387D01*
X0498414Y0286594D02*
X0504280Y0286594D01*
X0498414Y0286594D02*
X0498414Y0287420D01*
X0504280Y0287420D01*
X0504280Y0286594D01*
X0504280Y0286869D02*
X0498414Y0286869D01*
X0498414Y0287144D02*
X0504280Y0287144D01*
X0504280Y0287419D02*
X0498414Y0287419D01*
X0498414Y0284625D02*
X0504280Y0284625D01*
X0498414Y0284625D02*
X0498414Y0285451D01*
X0504280Y0285451D01*
X0504280Y0284625D01*
X0504280Y0284900D02*
X0498414Y0284900D01*
X0498414Y0285175D02*
X0504280Y0285175D01*
X0504280Y0285450D02*
X0498414Y0285450D01*
X0498414Y0282657D02*
X0504280Y0282657D01*
X0498414Y0282657D02*
X0498414Y0283483D01*
X0504280Y0283483D01*
X0504280Y0282657D01*
X0504280Y0282932D02*
X0498414Y0282932D01*
X0498414Y0283207D02*
X0504280Y0283207D01*
X0504280Y0283482D02*
X0498414Y0283482D01*
X0498414Y0280688D02*
X0504280Y0280688D01*
X0498414Y0280688D02*
X0498414Y0281514D01*
X0504280Y0281514D01*
X0504280Y0280688D01*
X0504280Y0280963D02*
X0498414Y0280963D01*
X0498414Y0281238D02*
X0504280Y0281238D01*
X0504280Y0281513D02*
X0498414Y0281513D01*
X0494162Y0276436D02*
X0494162Y0270570D01*
X0493336Y0270570D01*
X0493336Y0276436D01*
X0494162Y0276436D01*
X0494162Y0270845D02*
X0493336Y0270845D01*
X0493336Y0271120D02*
X0494162Y0271120D01*
X0494162Y0271395D02*
X0493336Y0271395D01*
X0493336Y0271670D02*
X0494162Y0271670D01*
X0494162Y0271945D02*
X0493336Y0271945D01*
X0493336Y0272220D02*
X0494162Y0272220D01*
X0494162Y0272495D02*
X0493336Y0272495D01*
X0493336Y0272770D02*
X0494162Y0272770D01*
X0494162Y0273045D02*
X0493336Y0273045D01*
X0493336Y0273320D02*
X0494162Y0273320D01*
X0494162Y0273595D02*
X0493336Y0273595D01*
X0493336Y0273870D02*
X0494162Y0273870D01*
X0494162Y0274145D02*
X0493336Y0274145D01*
X0493336Y0274420D02*
X0494162Y0274420D01*
X0494162Y0274695D02*
X0493336Y0274695D01*
X0493336Y0274970D02*
X0494162Y0274970D01*
X0494162Y0275245D02*
X0493336Y0275245D01*
X0493336Y0275520D02*
X0494162Y0275520D01*
X0494162Y0275795D02*
X0493336Y0275795D01*
X0493336Y0276070D02*
X0494162Y0276070D01*
X0494162Y0276345D02*
X0493336Y0276345D01*
X0492193Y0276436D02*
X0492193Y0270570D01*
X0491367Y0270570D01*
X0491367Y0276436D01*
X0492193Y0276436D01*
X0492193Y0270845D02*
X0491367Y0270845D01*
X0491367Y0271120D02*
X0492193Y0271120D01*
X0492193Y0271395D02*
X0491367Y0271395D01*
X0491367Y0271670D02*
X0492193Y0271670D01*
X0492193Y0271945D02*
X0491367Y0271945D01*
X0491367Y0272220D02*
X0492193Y0272220D01*
X0492193Y0272495D02*
X0491367Y0272495D01*
X0491367Y0272770D02*
X0492193Y0272770D01*
X0492193Y0273045D02*
X0491367Y0273045D01*
X0491367Y0273320D02*
X0492193Y0273320D01*
X0492193Y0273595D02*
X0491367Y0273595D01*
X0491367Y0273870D02*
X0492193Y0273870D01*
X0492193Y0274145D02*
X0491367Y0274145D01*
X0491367Y0274420D02*
X0492193Y0274420D01*
X0492193Y0274695D02*
X0491367Y0274695D01*
X0491367Y0274970D02*
X0492193Y0274970D01*
X0492193Y0275245D02*
X0491367Y0275245D01*
X0491367Y0275520D02*
X0492193Y0275520D01*
X0492193Y0275795D02*
X0491367Y0275795D01*
X0491367Y0276070D02*
X0492193Y0276070D01*
X0492193Y0276345D02*
X0491367Y0276345D01*
X0490225Y0276436D02*
X0490225Y0270570D01*
X0489399Y0270570D01*
X0489399Y0276436D01*
X0490225Y0276436D01*
X0490225Y0270845D02*
X0489399Y0270845D01*
X0489399Y0271120D02*
X0490225Y0271120D01*
X0490225Y0271395D02*
X0489399Y0271395D01*
X0489399Y0271670D02*
X0490225Y0271670D01*
X0490225Y0271945D02*
X0489399Y0271945D01*
X0489399Y0272220D02*
X0490225Y0272220D01*
X0490225Y0272495D02*
X0489399Y0272495D01*
X0489399Y0272770D02*
X0490225Y0272770D01*
X0490225Y0273045D02*
X0489399Y0273045D01*
X0489399Y0273320D02*
X0490225Y0273320D01*
X0490225Y0273595D02*
X0489399Y0273595D01*
X0489399Y0273870D02*
X0490225Y0273870D01*
X0490225Y0274145D02*
X0489399Y0274145D01*
X0489399Y0274420D02*
X0490225Y0274420D01*
X0490225Y0274695D02*
X0489399Y0274695D01*
X0489399Y0274970D02*
X0490225Y0274970D01*
X0490225Y0275245D02*
X0489399Y0275245D01*
X0489399Y0275520D02*
X0490225Y0275520D01*
X0490225Y0275795D02*
X0489399Y0275795D01*
X0489399Y0276070D02*
X0490225Y0276070D01*
X0490225Y0276345D02*
X0489399Y0276345D01*
X0488256Y0276436D02*
X0488256Y0270570D01*
X0487430Y0270570D01*
X0487430Y0276436D01*
X0488256Y0276436D01*
X0488256Y0270845D02*
X0487430Y0270845D01*
X0487430Y0271120D02*
X0488256Y0271120D01*
X0488256Y0271395D02*
X0487430Y0271395D01*
X0487430Y0271670D02*
X0488256Y0271670D01*
X0488256Y0271945D02*
X0487430Y0271945D01*
X0487430Y0272220D02*
X0488256Y0272220D01*
X0488256Y0272495D02*
X0487430Y0272495D01*
X0487430Y0272770D02*
X0488256Y0272770D01*
X0488256Y0273045D02*
X0487430Y0273045D01*
X0487430Y0273320D02*
X0488256Y0273320D01*
X0488256Y0273595D02*
X0487430Y0273595D01*
X0487430Y0273870D02*
X0488256Y0273870D01*
X0488256Y0274145D02*
X0487430Y0274145D01*
X0487430Y0274420D02*
X0488256Y0274420D01*
X0488256Y0274695D02*
X0487430Y0274695D01*
X0487430Y0274970D02*
X0488256Y0274970D01*
X0488256Y0275245D02*
X0487430Y0275245D01*
X0487430Y0275520D02*
X0488256Y0275520D01*
X0488256Y0275795D02*
X0487430Y0275795D01*
X0487430Y0276070D02*
X0488256Y0276070D01*
X0488256Y0276345D02*
X0487430Y0276345D01*
X0486288Y0276436D02*
X0486288Y0270570D01*
X0485462Y0270570D01*
X0485462Y0276436D01*
X0486288Y0276436D01*
X0486288Y0270845D02*
X0485462Y0270845D01*
X0485462Y0271120D02*
X0486288Y0271120D01*
X0486288Y0271395D02*
X0485462Y0271395D01*
X0485462Y0271670D02*
X0486288Y0271670D01*
X0486288Y0271945D02*
X0485462Y0271945D01*
X0485462Y0272220D02*
X0486288Y0272220D01*
X0486288Y0272495D02*
X0485462Y0272495D01*
X0485462Y0272770D02*
X0486288Y0272770D01*
X0486288Y0273045D02*
X0485462Y0273045D01*
X0485462Y0273320D02*
X0486288Y0273320D01*
X0486288Y0273595D02*
X0485462Y0273595D01*
X0485462Y0273870D02*
X0486288Y0273870D01*
X0486288Y0274145D02*
X0485462Y0274145D01*
X0485462Y0274420D02*
X0486288Y0274420D01*
X0486288Y0274695D02*
X0485462Y0274695D01*
X0485462Y0274970D02*
X0486288Y0274970D01*
X0486288Y0275245D02*
X0485462Y0275245D01*
X0485462Y0275520D02*
X0486288Y0275520D01*
X0486288Y0275795D02*
X0485462Y0275795D01*
X0485462Y0276070D02*
X0486288Y0276070D01*
X0486288Y0276345D02*
X0485462Y0276345D01*
X0484319Y0276436D02*
X0484319Y0270570D01*
X0483493Y0270570D01*
X0483493Y0276436D01*
X0484319Y0276436D01*
X0484319Y0270845D02*
X0483493Y0270845D01*
X0483493Y0271120D02*
X0484319Y0271120D01*
X0484319Y0271395D02*
X0483493Y0271395D01*
X0483493Y0271670D02*
X0484319Y0271670D01*
X0484319Y0271945D02*
X0483493Y0271945D01*
X0483493Y0272220D02*
X0484319Y0272220D01*
X0484319Y0272495D02*
X0483493Y0272495D01*
X0483493Y0272770D02*
X0484319Y0272770D01*
X0484319Y0273045D02*
X0483493Y0273045D01*
X0483493Y0273320D02*
X0484319Y0273320D01*
X0484319Y0273595D02*
X0483493Y0273595D01*
X0483493Y0273870D02*
X0484319Y0273870D01*
X0484319Y0274145D02*
X0483493Y0274145D01*
X0483493Y0274420D02*
X0484319Y0274420D01*
X0484319Y0274695D02*
X0483493Y0274695D01*
X0483493Y0274970D02*
X0484319Y0274970D01*
X0484319Y0275245D02*
X0483493Y0275245D01*
X0483493Y0275520D02*
X0484319Y0275520D01*
X0484319Y0275795D02*
X0483493Y0275795D01*
X0483493Y0276070D02*
X0484319Y0276070D01*
X0484319Y0276345D02*
X0483493Y0276345D01*
X0482351Y0276436D02*
X0482351Y0270570D01*
X0481525Y0270570D01*
X0481525Y0276436D01*
X0482351Y0276436D01*
X0482351Y0270845D02*
X0481525Y0270845D01*
X0481525Y0271120D02*
X0482351Y0271120D01*
X0482351Y0271395D02*
X0481525Y0271395D01*
X0481525Y0271670D02*
X0482351Y0271670D01*
X0482351Y0271945D02*
X0481525Y0271945D01*
X0481525Y0272220D02*
X0482351Y0272220D01*
X0482351Y0272495D02*
X0481525Y0272495D01*
X0481525Y0272770D02*
X0482351Y0272770D01*
X0482351Y0273045D02*
X0481525Y0273045D01*
X0481525Y0273320D02*
X0482351Y0273320D01*
X0482351Y0273595D02*
X0481525Y0273595D01*
X0481525Y0273870D02*
X0482351Y0273870D01*
X0482351Y0274145D02*
X0481525Y0274145D01*
X0481525Y0274420D02*
X0482351Y0274420D01*
X0482351Y0274695D02*
X0481525Y0274695D01*
X0481525Y0274970D02*
X0482351Y0274970D01*
X0482351Y0275245D02*
X0481525Y0275245D01*
X0481525Y0275520D02*
X0482351Y0275520D01*
X0482351Y0275795D02*
X0481525Y0275795D01*
X0481525Y0276070D02*
X0482351Y0276070D01*
X0482351Y0276345D02*
X0481525Y0276345D01*
X0480382Y0276436D02*
X0480382Y0270570D01*
X0479556Y0270570D01*
X0479556Y0276436D01*
X0480382Y0276436D01*
X0480382Y0270845D02*
X0479556Y0270845D01*
X0479556Y0271120D02*
X0480382Y0271120D01*
X0480382Y0271395D02*
X0479556Y0271395D01*
X0479556Y0271670D02*
X0480382Y0271670D01*
X0480382Y0271945D02*
X0479556Y0271945D01*
X0479556Y0272220D02*
X0480382Y0272220D01*
X0480382Y0272495D02*
X0479556Y0272495D01*
X0479556Y0272770D02*
X0480382Y0272770D01*
X0480382Y0273045D02*
X0479556Y0273045D01*
X0479556Y0273320D02*
X0480382Y0273320D01*
X0480382Y0273595D02*
X0479556Y0273595D01*
X0479556Y0273870D02*
X0480382Y0273870D01*
X0480382Y0274145D02*
X0479556Y0274145D01*
X0479556Y0274420D02*
X0480382Y0274420D01*
X0480382Y0274695D02*
X0479556Y0274695D01*
X0479556Y0274970D02*
X0480382Y0274970D01*
X0480382Y0275245D02*
X0479556Y0275245D01*
X0479556Y0275520D02*
X0480382Y0275520D01*
X0480382Y0275795D02*
X0479556Y0275795D01*
X0479556Y0276070D02*
X0480382Y0276070D01*
X0480382Y0276345D02*
X0479556Y0276345D01*
X0478414Y0276436D02*
X0478414Y0270570D01*
X0477588Y0270570D01*
X0477588Y0276436D01*
X0478414Y0276436D01*
X0478414Y0270845D02*
X0477588Y0270845D01*
X0477588Y0271120D02*
X0478414Y0271120D01*
X0478414Y0271395D02*
X0477588Y0271395D01*
X0477588Y0271670D02*
X0478414Y0271670D01*
X0478414Y0271945D02*
X0477588Y0271945D01*
X0477588Y0272220D02*
X0478414Y0272220D01*
X0478414Y0272495D02*
X0477588Y0272495D01*
X0477588Y0272770D02*
X0478414Y0272770D01*
X0478414Y0273045D02*
X0477588Y0273045D01*
X0477588Y0273320D02*
X0478414Y0273320D01*
X0478414Y0273595D02*
X0477588Y0273595D01*
X0477588Y0273870D02*
X0478414Y0273870D01*
X0478414Y0274145D02*
X0477588Y0274145D01*
X0477588Y0274420D02*
X0478414Y0274420D01*
X0478414Y0274695D02*
X0477588Y0274695D01*
X0477588Y0274970D02*
X0478414Y0274970D01*
X0478414Y0275245D02*
X0477588Y0275245D01*
X0477588Y0275520D02*
X0478414Y0275520D01*
X0478414Y0275795D02*
X0477588Y0275795D01*
X0477588Y0276070D02*
X0478414Y0276070D01*
X0478414Y0276345D02*
X0477588Y0276345D01*
X0476445Y0276436D02*
X0476445Y0270570D01*
X0475619Y0270570D01*
X0475619Y0276436D01*
X0476445Y0276436D01*
X0476445Y0270845D02*
X0475619Y0270845D01*
X0475619Y0271120D02*
X0476445Y0271120D01*
X0476445Y0271395D02*
X0475619Y0271395D01*
X0475619Y0271670D02*
X0476445Y0271670D01*
X0476445Y0271945D02*
X0475619Y0271945D01*
X0475619Y0272220D02*
X0476445Y0272220D01*
X0476445Y0272495D02*
X0475619Y0272495D01*
X0475619Y0272770D02*
X0476445Y0272770D01*
X0476445Y0273045D02*
X0475619Y0273045D01*
X0475619Y0273320D02*
X0476445Y0273320D01*
X0476445Y0273595D02*
X0475619Y0273595D01*
X0475619Y0273870D02*
X0476445Y0273870D01*
X0476445Y0274145D02*
X0475619Y0274145D01*
X0475619Y0274420D02*
X0476445Y0274420D01*
X0476445Y0274695D02*
X0475619Y0274695D01*
X0475619Y0274970D02*
X0476445Y0274970D01*
X0476445Y0275245D02*
X0475619Y0275245D01*
X0475619Y0275520D02*
X0476445Y0275520D01*
X0476445Y0275795D02*
X0475619Y0275795D01*
X0475619Y0276070D02*
X0476445Y0276070D01*
X0476445Y0276345D02*
X0475619Y0276345D01*
X0474477Y0276436D02*
X0474477Y0270570D01*
X0473651Y0270570D01*
X0473651Y0276436D01*
X0474477Y0276436D01*
X0474477Y0270845D02*
X0473651Y0270845D01*
X0473651Y0271120D02*
X0474477Y0271120D01*
X0474477Y0271395D02*
X0473651Y0271395D01*
X0473651Y0271670D02*
X0474477Y0271670D01*
X0474477Y0271945D02*
X0473651Y0271945D01*
X0473651Y0272220D02*
X0474477Y0272220D01*
X0474477Y0272495D02*
X0473651Y0272495D01*
X0473651Y0272770D02*
X0474477Y0272770D01*
X0474477Y0273045D02*
X0473651Y0273045D01*
X0473651Y0273320D02*
X0474477Y0273320D01*
X0474477Y0273595D02*
X0473651Y0273595D01*
X0473651Y0273870D02*
X0474477Y0273870D01*
X0474477Y0274145D02*
X0473651Y0274145D01*
X0473651Y0274420D02*
X0474477Y0274420D01*
X0474477Y0274695D02*
X0473651Y0274695D01*
X0473651Y0274970D02*
X0474477Y0274970D01*
X0474477Y0275245D02*
X0473651Y0275245D01*
X0473651Y0275520D02*
X0474477Y0275520D01*
X0474477Y0275795D02*
X0473651Y0275795D01*
X0473651Y0276070D02*
X0474477Y0276070D01*
X0474477Y0276345D02*
X0473651Y0276345D01*
X0472508Y0276436D02*
X0472508Y0270570D01*
X0471682Y0270570D01*
X0471682Y0276436D01*
X0472508Y0276436D01*
X0472508Y0270845D02*
X0471682Y0270845D01*
X0471682Y0271120D02*
X0472508Y0271120D01*
X0472508Y0271395D02*
X0471682Y0271395D01*
X0471682Y0271670D02*
X0472508Y0271670D01*
X0472508Y0271945D02*
X0471682Y0271945D01*
X0471682Y0272220D02*
X0472508Y0272220D01*
X0472508Y0272495D02*
X0471682Y0272495D01*
X0471682Y0272770D02*
X0472508Y0272770D01*
X0472508Y0273045D02*
X0471682Y0273045D01*
X0471682Y0273320D02*
X0472508Y0273320D01*
X0472508Y0273595D02*
X0471682Y0273595D01*
X0471682Y0273870D02*
X0472508Y0273870D01*
X0472508Y0274145D02*
X0471682Y0274145D01*
X0471682Y0274420D02*
X0472508Y0274420D01*
X0472508Y0274695D02*
X0471682Y0274695D01*
X0471682Y0274970D02*
X0472508Y0274970D01*
X0472508Y0275245D02*
X0471682Y0275245D01*
X0471682Y0275520D02*
X0472508Y0275520D01*
X0472508Y0275795D02*
X0471682Y0275795D01*
X0471682Y0276070D02*
X0472508Y0276070D01*
X0472508Y0276345D02*
X0471682Y0276345D01*
X0470540Y0276436D02*
X0470540Y0270570D01*
X0469714Y0270570D01*
X0469714Y0276436D01*
X0470540Y0276436D01*
X0470540Y0270845D02*
X0469714Y0270845D01*
X0469714Y0271120D02*
X0470540Y0271120D01*
X0470540Y0271395D02*
X0469714Y0271395D01*
X0469714Y0271670D02*
X0470540Y0271670D01*
X0470540Y0271945D02*
X0469714Y0271945D01*
X0469714Y0272220D02*
X0470540Y0272220D01*
X0470540Y0272495D02*
X0469714Y0272495D01*
X0469714Y0272770D02*
X0470540Y0272770D01*
X0470540Y0273045D02*
X0469714Y0273045D01*
X0469714Y0273320D02*
X0470540Y0273320D01*
X0470540Y0273595D02*
X0469714Y0273595D01*
X0469714Y0273870D02*
X0470540Y0273870D01*
X0470540Y0274145D02*
X0469714Y0274145D01*
X0469714Y0274420D02*
X0470540Y0274420D01*
X0470540Y0274695D02*
X0469714Y0274695D01*
X0469714Y0274970D02*
X0470540Y0274970D01*
X0470540Y0275245D02*
X0469714Y0275245D01*
X0469714Y0275520D02*
X0470540Y0275520D01*
X0470540Y0275795D02*
X0469714Y0275795D01*
X0469714Y0276070D02*
X0470540Y0276070D01*
X0470540Y0276345D02*
X0469714Y0276345D01*
X0468571Y0276436D02*
X0468571Y0270570D01*
X0467745Y0270570D01*
X0467745Y0276436D01*
X0468571Y0276436D01*
X0468571Y0270845D02*
X0467745Y0270845D01*
X0467745Y0271120D02*
X0468571Y0271120D01*
X0468571Y0271395D02*
X0467745Y0271395D01*
X0467745Y0271670D02*
X0468571Y0271670D01*
X0468571Y0271945D02*
X0467745Y0271945D01*
X0467745Y0272220D02*
X0468571Y0272220D01*
X0468571Y0272495D02*
X0467745Y0272495D01*
X0467745Y0272770D02*
X0468571Y0272770D01*
X0468571Y0273045D02*
X0467745Y0273045D01*
X0467745Y0273320D02*
X0468571Y0273320D01*
X0468571Y0273595D02*
X0467745Y0273595D01*
X0467745Y0273870D02*
X0468571Y0273870D01*
X0468571Y0274145D02*
X0467745Y0274145D01*
X0467745Y0274420D02*
X0468571Y0274420D01*
X0468571Y0274695D02*
X0467745Y0274695D01*
X0467745Y0274970D02*
X0468571Y0274970D01*
X0468571Y0275245D02*
X0467745Y0275245D01*
X0467745Y0275520D02*
X0468571Y0275520D01*
X0468571Y0275795D02*
X0467745Y0275795D01*
X0467745Y0276070D02*
X0468571Y0276070D01*
X0468571Y0276345D02*
X0467745Y0276345D01*
X0466603Y0276436D02*
X0466603Y0270570D01*
X0465777Y0270570D01*
X0465777Y0276436D01*
X0466603Y0276436D01*
X0466603Y0270845D02*
X0465777Y0270845D01*
X0465777Y0271120D02*
X0466603Y0271120D01*
X0466603Y0271395D02*
X0465777Y0271395D01*
X0465777Y0271670D02*
X0466603Y0271670D01*
X0466603Y0271945D02*
X0465777Y0271945D01*
X0465777Y0272220D02*
X0466603Y0272220D01*
X0466603Y0272495D02*
X0465777Y0272495D01*
X0465777Y0272770D02*
X0466603Y0272770D01*
X0466603Y0273045D02*
X0465777Y0273045D01*
X0465777Y0273320D02*
X0466603Y0273320D01*
X0466603Y0273595D02*
X0465777Y0273595D01*
X0465777Y0273870D02*
X0466603Y0273870D01*
X0466603Y0274145D02*
X0465777Y0274145D01*
X0465777Y0274420D02*
X0466603Y0274420D01*
X0466603Y0274695D02*
X0465777Y0274695D01*
X0465777Y0274970D02*
X0466603Y0274970D01*
X0466603Y0275245D02*
X0465777Y0275245D01*
X0465777Y0275520D02*
X0466603Y0275520D01*
X0466603Y0275795D02*
X0465777Y0275795D01*
X0465777Y0276070D02*
X0466603Y0276070D01*
X0466603Y0276345D02*
X0465777Y0276345D01*
X0464634Y0276436D02*
X0464634Y0270570D01*
X0463808Y0270570D01*
X0463808Y0276436D01*
X0464634Y0276436D01*
X0464634Y0270845D02*
X0463808Y0270845D01*
X0463808Y0271120D02*
X0464634Y0271120D01*
X0464634Y0271395D02*
X0463808Y0271395D01*
X0463808Y0271670D02*
X0464634Y0271670D01*
X0464634Y0271945D02*
X0463808Y0271945D01*
X0463808Y0272220D02*
X0464634Y0272220D01*
X0464634Y0272495D02*
X0463808Y0272495D01*
X0463808Y0272770D02*
X0464634Y0272770D01*
X0464634Y0273045D02*
X0463808Y0273045D01*
X0463808Y0273320D02*
X0464634Y0273320D01*
X0464634Y0273595D02*
X0463808Y0273595D01*
X0463808Y0273870D02*
X0464634Y0273870D01*
X0464634Y0274145D02*
X0463808Y0274145D01*
X0463808Y0274420D02*
X0464634Y0274420D01*
X0464634Y0274695D02*
X0463808Y0274695D01*
X0463808Y0274970D02*
X0464634Y0274970D01*
X0464634Y0275245D02*
X0463808Y0275245D01*
X0463808Y0275520D02*
X0464634Y0275520D01*
X0464634Y0275795D02*
X0463808Y0275795D01*
X0463808Y0276070D02*
X0464634Y0276070D01*
X0464634Y0276345D02*
X0463808Y0276345D01*
X0462666Y0276436D02*
X0462666Y0270570D01*
X0461840Y0270570D01*
X0461840Y0276436D01*
X0462666Y0276436D01*
X0462666Y0270845D02*
X0461840Y0270845D01*
X0461840Y0271120D02*
X0462666Y0271120D01*
X0462666Y0271395D02*
X0461840Y0271395D01*
X0461840Y0271670D02*
X0462666Y0271670D01*
X0462666Y0271945D02*
X0461840Y0271945D01*
X0461840Y0272220D02*
X0462666Y0272220D01*
X0462666Y0272495D02*
X0461840Y0272495D01*
X0461840Y0272770D02*
X0462666Y0272770D01*
X0462666Y0273045D02*
X0461840Y0273045D01*
X0461840Y0273320D02*
X0462666Y0273320D01*
X0462666Y0273595D02*
X0461840Y0273595D01*
X0461840Y0273870D02*
X0462666Y0273870D01*
X0462666Y0274145D02*
X0461840Y0274145D01*
X0461840Y0274420D02*
X0462666Y0274420D01*
X0462666Y0274695D02*
X0461840Y0274695D01*
X0461840Y0274970D02*
X0462666Y0274970D01*
X0462666Y0275245D02*
X0461840Y0275245D01*
X0461840Y0275520D02*
X0462666Y0275520D01*
X0462666Y0275795D02*
X0461840Y0275795D01*
X0461840Y0276070D02*
X0462666Y0276070D01*
X0462666Y0276345D02*
X0461840Y0276345D01*
X0460697Y0276436D02*
X0460697Y0270570D01*
X0459871Y0270570D01*
X0459871Y0276436D01*
X0460697Y0276436D01*
X0460697Y0270845D02*
X0459871Y0270845D01*
X0459871Y0271120D02*
X0460697Y0271120D01*
X0460697Y0271395D02*
X0459871Y0271395D01*
X0459871Y0271670D02*
X0460697Y0271670D01*
X0460697Y0271945D02*
X0459871Y0271945D01*
X0459871Y0272220D02*
X0460697Y0272220D01*
X0460697Y0272495D02*
X0459871Y0272495D01*
X0459871Y0272770D02*
X0460697Y0272770D01*
X0460697Y0273045D02*
X0459871Y0273045D01*
X0459871Y0273320D02*
X0460697Y0273320D01*
X0460697Y0273595D02*
X0459871Y0273595D01*
X0459871Y0273870D02*
X0460697Y0273870D01*
X0460697Y0274145D02*
X0459871Y0274145D01*
X0459871Y0274420D02*
X0460697Y0274420D01*
X0460697Y0274695D02*
X0459871Y0274695D01*
X0459871Y0274970D02*
X0460697Y0274970D01*
X0460697Y0275245D02*
X0459871Y0275245D01*
X0459871Y0275520D02*
X0460697Y0275520D01*
X0460697Y0275795D02*
X0459871Y0275795D01*
X0459871Y0276070D02*
X0460697Y0276070D01*
X0460697Y0276345D02*
X0459871Y0276345D01*
X0458729Y0276436D02*
X0458729Y0270570D01*
X0457903Y0270570D01*
X0457903Y0276436D01*
X0458729Y0276436D01*
X0458729Y0270845D02*
X0457903Y0270845D01*
X0457903Y0271120D02*
X0458729Y0271120D01*
X0458729Y0271395D02*
X0457903Y0271395D01*
X0457903Y0271670D02*
X0458729Y0271670D01*
X0458729Y0271945D02*
X0457903Y0271945D01*
X0457903Y0272220D02*
X0458729Y0272220D01*
X0458729Y0272495D02*
X0457903Y0272495D01*
X0457903Y0272770D02*
X0458729Y0272770D01*
X0458729Y0273045D02*
X0457903Y0273045D01*
X0457903Y0273320D02*
X0458729Y0273320D01*
X0458729Y0273595D02*
X0457903Y0273595D01*
X0457903Y0273870D02*
X0458729Y0273870D01*
X0458729Y0274145D02*
X0457903Y0274145D01*
X0457903Y0274420D02*
X0458729Y0274420D01*
X0458729Y0274695D02*
X0457903Y0274695D01*
X0457903Y0274970D02*
X0458729Y0274970D01*
X0458729Y0275245D02*
X0457903Y0275245D01*
X0457903Y0275520D02*
X0458729Y0275520D01*
X0458729Y0275795D02*
X0457903Y0275795D01*
X0457903Y0276070D02*
X0458729Y0276070D01*
X0458729Y0276345D02*
X0457903Y0276345D01*
X0456760Y0276436D02*
X0456760Y0270570D01*
X0455934Y0270570D01*
X0455934Y0276436D01*
X0456760Y0276436D01*
X0456760Y0270845D02*
X0455934Y0270845D01*
X0455934Y0271120D02*
X0456760Y0271120D01*
X0456760Y0271395D02*
X0455934Y0271395D01*
X0455934Y0271670D02*
X0456760Y0271670D01*
X0456760Y0271945D02*
X0455934Y0271945D01*
X0455934Y0272220D02*
X0456760Y0272220D01*
X0456760Y0272495D02*
X0455934Y0272495D01*
X0455934Y0272770D02*
X0456760Y0272770D01*
X0456760Y0273045D02*
X0455934Y0273045D01*
X0455934Y0273320D02*
X0456760Y0273320D01*
X0456760Y0273595D02*
X0455934Y0273595D01*
X0455934Y0273870D02*
X0456760Y0273870D01*
X0456760Y0274145D02*
X0455934Y0274145D01*
X0455934Y0274420D02*
X0456760Y0274420D01*
X0456760Y0274695D02*
X0455934Y0274695D01*
X0455934Y0274970D02*
X0456760Y0274970D01*
X0456760Y0275245D02*
X0455934Y0275245D01*
X0455934Y0275520D02*
X0456760Y0275520D01*
X0456760Y0275795D02*
X0455934Y0275795D01*
X0455934Y0276070D02*
X0456760Y0276070D01*
X0456760Y0276345D02*
X0455934Y0276345D01*
X0454792Y0276436D02*
X0454792Y0270570D01*
X0453966Y0270570D01*
X0453966Y0276436D01*
X0454792Y0276436D01*
X0454792Y0270845D02*
X0453966Y0270845D01*
X0453966Y0271120D02*
X0454792Y0271120D01*
X0454792Y0271395D02*
X0453966Y0271395D01*
X0453966Y0271670D02*
X0454792Y0271670D01*
X0454792Y0271945D02*
X0453966Y0271945D01*
X0453966Y0272220D02*
X0454792Y0272220D01*
X0454792Y0272495D02*
X0453966Y0272495D01*
X0453966Y0272770D02*
X0454792Y0272770D01*
X0454792Y0273045D02*
X0453966Y0273045D01*
X0453966Y0273320D02*
X0454792Y0273320D01*
X0454792Y0273595D02*
X0453966Y0273595D01*
X0453966Y0273870D02*
X0454792Y0273870D01*
X0454792Y0274145D02*
X0453966Y0274145D01*
X0453966Y0274420D02*
X0454792Y0274420D01*
X0454792Y0274695D02*
X0453966Y0274695D01*
X0453966Y0274970D02*
X0454792Y0274970D01*
X0454792Y0275245D02*
X0453966Y0275245D01*
X0453966Y0275520D02*
X0454792Y0275520D01*
X0454792Y0275795D02*
X0453966Y0275795D01*
X0453966Y0276070D02*
X0454792Y0276070D01*
X0454792Y0276345D02*
X0453966Y0276345D01*
X0452823Y0276436D02*
X0452823Y0270570D01*
X0451997Y0270570D01*
X0451997Y0276436D01*
X0452823Y0276436D01*
X0452823Y0270845D02*
X0451997Y0270845D01*
X0451997Y0271120D02*
X0452823Y0271120D01*
X0452823Y0271395D02*
X0451997Y0271395D01*
X0451997Y0271670D02*
X0452823Y0271670D01*
X0452823Y0271945D02*
X0451997Y0271945D01*
X0451997Y0272220D02*
X0452823Y0272220D01*
X0452823Y0272495D02*
X0451997Y0272495D01*
X0451997Y0272770D02*
X0452823Y0272770D01*
X0452823Y0273045D02*
X0451997Y0273045D01*
X0451997Y0273320D02*
X0452823Y0273320D01*
X0452823Y0273595D02*
X0451997Y0273595D01*
X0451997Y0273870D02*
X0452823Y0273870D01*
X0452823Y0274145D02*
X0451997Y0274145D01*
X0451997Y0274420D02*
X0452823Y0274420D01*
X0452823Y0274695D02*
X0451997Y0274695D01*
X0451997Y0274970D02*
X0452823Y0274970D01*
X0452823Y0275245D02*
X0451997Y0275245D01*
X0451997Y0275520D02*
X0452823Y0275520D01*
X0452823Y0275795D02*
X0451997Y0275795D01*
X0451997Y0276070D02*
X0452823Y0276070D01*
X0452823Y0276345D02*
X0451997Y0276345D01*
X0450855Y0276436D02*
X0450855Y0270570D01*
X0450029Y0270570D01*
X0450029Y0276436D01*
X0450855Y0276436D01*
X0450855Y0270845D02*
X0450029Y0270845D01*
X0450029Y0271120D02*
X0450855Y0271120D01*
X0450855Y0271395D02*
X0450029Y0271395D01*
X0450029Y0271670D02*
X0450855Y0271670D01*
X0450855Y0271945D02*
X0450029Y0271945D01*
X0450029Y0272220D02*
X0450855Y0272220D01*
X0450855Y0272495D02*
X0450029Y0272495D01*
X0450029Y0272770D02*
X0450855Y0272770D01*
X0450855Y0273045D02*
X0450029Y0273045D01*
X0450029Y0273320D02*
X0450855Y0273320D01*
X0450855Y0273595D02*
X0450029Y0273595D01*
X0450029Y0273870D02*
X0450855Y0273870D01*
X0450855Y0274145D02*
X0450029Y0274145D01*
X0450029Y0274420D02*
X0450855Y0274420D01*
X0450855Y0274695D02*
X0450029Y0274695D01*
X0450029Y0274970D02*
X0450855Y0274970D01*
X0450855Y0275245D02*
X0450029Y0275245D01*
X0450029Y0275520D02*
X0450855Y0275520D01*
X0450855Y0275795D02*
X0450029Y0275795D01*
X0450029Y0276070D02*
X0450855Y0276070D01*
X0450855Y0276345D02*
X0450029Y0276345D01*
X0448886Y0276436D02*
X0448886Y0270570D01*
X0448060Y0270570D01*
X0448060Y0276436D01*
X0448886Y0276436D01*
X0448886Y0270845D02*
X0448060Y0270845D01*
X0448060Y0271120D02*
X0448886Y0271120D01*
X0448886Y0271395D02*
X0448060Y0271395D01*
X0448060Y0271670D02*
X0448886Y0271670D01*
X0448886Y0271945D02*
X0448060Y0271945D01*
X0448060Y0272220D02*
X0448886Y0272220D01*
X0448886Y0272495D02*
X0448060Y0272495D01*
X0448060Y0272770D02*
X0448886Y0272770D01*
X0448886Y0273045D02*
X0448060Y0273045D01*
X0448060Y0273320D02*
X0448886Y0273320D01*
X0448886Y0273595D02*
X0448060Y0273595D01*
X0448060Y0273870D02*
X0448886Y0273870D01*
X0448886Y0274145D02*
X0448060Y0274145D01*
X0448060Y0274420D02*
X0448886Y0274420D01*
X0448886Y0274695D02*
X0448060Y0274695D01*
X0448060Y0274970D02*
X0448886Y0274970D01*
X0448886Y0275245D02*
X0448060Y0275245D01*
X0448060Y0275520D02*
X0448886Y0275520D01*
X0448886Y0275795D02*
X0448060Y0275795D01*
X0448060Y0276070D02*
X0448886Y0276070D01*
X0448886Y0276345D02*
X0448060Y0276345D01*
X0446918Y0276436D02*
X0446918Y0270570D01*
X0446092Y0270570D01*
X0446092Y0276436D01*
X0446918Y0276436D01*
X0446918Y0270845D02*
X0446092Y0270845D01*
X0446092Y0271120D02*
X0446918Y0271120D01*
X0446918Y0271395D02*
X0446092Y0271395D01*
X0446092Y0271670D02*
X0446918Y0271670D01*
X0446918Y0271945D02*
X0446092Y0271945D01*
X0446092Y0272220D02*
X0446918Y0272220D01*
X0446918Y0272495D02*
X0446092Y0272495D01*
X0446092Y0272770D02*
X0446918Y0272770D01*
X0446918Y0273045D02*
X0446092Y0273045D01*
X0446092Y0273320D02*
X0446918Y0273320D01*
X0446918Y0273595D02*
X0446092Y0273595D01*
X0446092Y0273870D02*
X0446918Y0273870D01*
X0446918Y0274145D02*
X0446092Y0274145D01*
X0446092Y0274420D02*
X0446918Y0274420D01*
X0446918Y0274695D02*
X0446092Y0274695D01*
X0446092Y0274970D02*
X0446918Y0274970D01*
X0446918Y0275245D02*
X0446092Y0275245D01*
X0446092Y0275520D02*
X0446918Y0275520D01*
X0446918Y0275795D02*
X0446092Y0275795D01*
X0446092Y0276070D02*
X0446918Y0276070D01*
X0446918Y0276345D02*
X0446092Y0276345D01*
X0444949Y0276436D02*
X0444949Y0270570D01*
X0444123Y0270570D01*
X0444123Y0276436D01*
X0444949Y0276436D01*
X0444949Y0270845D02*
X0444123Y0270845D01*
X0444123Y0271120D02*
X0444949Y0271120D01*
X0444949Y0271395D02*
X0444123Y0271395D01*
X0444123Y0271670D02*
X0444949Y0271670D01*
X0444949Y0271945D02*
X0444123Y0271945D01*
X0444123Y0272220D02*
X0444949Y0272220D01*
X0444949Y0272495D02*
X0444123Y0272495D01*
X0444123Y0272770D02*
X0444949Y0272770D01*
X0444949Y0273045D02*
X0444123Y0273045D01*
X0444123Y0273320D02*
X0444949Y0273320D01*
X0444949Y0273595D02*
X0444123Y0273595D01*
X0444123Y0273870D02*
X0444949Y0273870D01*
X0444949Y0274145D02*
X0444123Y0274145D01*
X0444123Y0274420D02*
X0444949Y0274420D01*
X0444949Y0274695D02*
X0444123Y0274695D01*
X0444123Y0274970D02*
X0444949Y0274970D01*
X0444949Y0275245D02*
X0444123Y0275245D01*
X0444123Y0275520D02*
X0444949Y0275520D01*
X0444949Y0275795D02*
X0444123Y0275795D01*
X0444123Y0276070D02*
X0444949Y0276070D01*
X0444949Y0276345D02*
X0444123Y0276345D01*
X0442981Y0276436D02*
X0442981Y0270570D01*
X0442155Y0270570D01*
X0442155Y0276436D01*
X0442981Y0276436D01*
X0442981Y0270845D02*
X0442155Y0270845D01*
X0442155Y0271120D02*
X0442981Y0271120D01*
X0442981Y0271395D02*
X0442155Y0271395D01*
X0442155Y0271670D02*
X0442981Y0271670D01*
X0442981Y0271945D02*
X0442155Y0271945D01*
X0442155Y0272220D02*
X0442981Y0272220D01*
X0442981Y0272495D02*
X0442155Y0272495D01*
X0442155Y0272770D02*
X0442981Y0272770D01*
X0442981Y0273045D02*
X0442155Y0273045D01*
X0442155Y0273320D02*
X0442981Y0273320D01*
X0442981Y0273595D02*
X0442155Y0273595D01*
X0442155Y0273870D02*
X0442981Y0273870D01*
X0442981Y0274145D02*
X0442155Y0274145D01*
X0442155Y0274420D02*
X0442981Y0274420D01*
X0442981Y0274695D02*
X0442155Y0274695D01*
X0442155Y0274970D02*
X0442981Y0274970D01*
X0442981Y0275245D02*
X0442155Y0275245D01*
X0442155Y0275520D02*
X0442981Y0275520D01*
X0442981Y0275795D02*
X0442155Y0275795D01*
X0442155Y0276070D02*
X0442981Y0276070D01*
X0442981Y0276345D02*
X0442155Y0276345D01*
X0441012Y0276436D02*
X0441012Y0270570D01*
X0440186Y0270570D01*
X0440186Y0276436D01*
X0441012Y0276436D01*
X0441012Y0270845D02*
X0440186Y0270845D01*
X0440186Y0271120D02*
X0441012Y0271120D01*
X0441012Y0271395D02*
X0440186Y0271395D01*
X0440186Y0271670D02*
X0441012Y0271670D01*
X0441012Y0271945D02*
X0440186Y0271945D01*
X0440186Y0272220D02*
X0441012Y0272220D01*
X0441012Y0272495D02*
X0440186Y0272495D01*
X0440186Y0272770D02*
X0441012Y0272770D01*
X0441012Y0273045D02*
X0440186Y0273045D01*
X0440186Y0273320D02*
X0441012Y0273320D01*
X0441012Y0273595D02*
X0440186Y0273595D01*
X0440186Y0273870D02*
X0441012Y0273870D01*
X0441012Y0274145D02*
X0440186Y0274145D01*
X0440186Y0274420D02*
X0441012Y0274420D01*
X0441012Y0274695D02*
X0440186Y0274695D01*
X0440186Y0274970D02*
X0441012Y0274970D01*
X0441012Y0275245D02*
X0440186Y0275245D01*
X0440186Y0275520D02*
X0441012Y0275520D01*
X0441012Y0275795D02*
X0440186Y0275795D01*
X0440186Y0276070D02*
X0441012Y0276070D01*
X0441012Y0276345D02*
X0440186Y0276345D01*
X0439044Y0276436D02*
X0439044Y0270570D01*
X0438218Y0270570D01*
X0438218Y0276436D01*
X0439044Y0276436D01*
X0439044Y0270845D02*
X0438218Y0270845D01*
X0438218Y0271120D02*
X0439044Y0271120D01*
X0439044Y0271395D02*
X0438218Y0271395D01*
X0438218Y0271670D02*
X0439044Y0271670D01*
X0439044Y0271945D02*
X0438218Y0271945D01*
X0438218Y0272220D02*
X0439044Y0272220D01*
X0439044Y0272495D02*
X0438218Y0272495D01*
X0438218Y0272770D02*
X0439044Y0272770D01*
X0439044Y0273045D02*
X0438218Y0273045D01*
X0438218Y0273320D02*
X0439044Y0273320D01*
X0439044Y0273595D02*
X0438218Y0273595D01*
X0438218Y0273870D02*
X0439044Y0273870D01*
X0439044Y0274145D02*
X0438218Y0274145D01*
X0438218Y0274420D02*
X0439044Y0274420D01*
X0439044Y0274695D02*
X0438218Y0274695D01*
X0438218Y0274970D02*
X0439044Y0274970D01*
X0439044Y0275245D02*
X0438218Y0275245D01*
X0438218Y0275520D02*
X0439044Y0275520D01*
X0439044Y0275795D02*
X0438218Y0275795D01*
X0438218Y0276070D02*
X0439044Y0276070D01*
X0439044Y0276345D02*
X0438218Y0276345D01*
X0437075Y0276436D02*
X0437075Y0270570D01*
X0436249Y0270570D01*
X0436249Y0276436D01*
X0437075Y0276436D01*
X0437075Y0270845D02*
X0436249Y0270845D01*
X0436249Y0271120D02*
X0437075Y0271120D01*
X0437075Y0271395D02*
X0436249Y0271395D01*
X0436249Y0271670D02*
X0437075Y0271670D01*
X0437075Y0271945D02*
X0436249Y0271945D01*
X0436249Y0272220D02*
X0437075Y0272220D01*
X0437075Y0272495D02*
X0436249Y0272495D01*
X0436249Y0272770D02*
X0437075Y0272770D01*
X0437075Y0273045D02*
X0436249Y0273045D01*
X0436249Y0273320D02*
X0437075Y0273320D01*
X0437075Y0273595D02*
X0436249Y0273595D01*
X0436249Y0273870D02*
X0437075Y0273870D01*
X0437075Y0274145D02*
X0436249Y0274145D01*
X0436249Y0274420D02*
X0437075Y0274420D01*
X0437075Y0274695D02*
X0436249Y0274695D01*
X0436249Y0274970D02*
X0437075Y0274970D01*
X0437075Y0275245D02*
X0436249Y0275245D01*
X0436249Y0275520D02*
X0437075Y0275520D01*
X0437075Y0275795D02*
X0436249Y0275795D01*
X0436249Y0276070D02*
X0437075Y0276070D01*
X0437075Y0276345D02*
X0436249Y0276345D01*
X0435107Y0276436D02*
X0435107Y0270570D01*
X0434281Y0270570D01*
X0434281Y0276436D01*
X0435107Y0276436D01*
X0435107Y0270845D02*
X0434281Y0270845D01*
X0434281Y0271120D02*
X0435107Y0271120D01*
X0435107Y0271395D02*
X0434281Y0271395D01*
X0434281Y0271670D02*
X0435107Y0271670D01*
X0435107Y0271945D02*
X0434281Y0271945D01*
X0434281Y0272220D02*
X0435107Y0272220D01*
X0435107Y0272495D02*
X0434281Y0272495D01*
X0434281Y0272770D02*
X0435107Y0272770D01*
X0435107Y0273045D02*
X0434281Y0273045D01*
X0434281Y0273320D02*
X0435107Y0273320D01*
X0435107Y0273595D02*
X0434281Y0273595D01*
X0434281Y0273870D02*
X0435107Y0273870D01*
X0435107Y0274145D02*
X0434281Y0274145D01*
X0434281Y0274420D02*
X0435107Y0274420D01*
X0435107Y0274695D02*
X0434281Y0274695D01*
X0434281Y0274970D02*
X0435107Y0274970D01*
X0435107Y0275245D02*
X0434281Y0275245D01*
X0434281Y0275520D02*
X0435107Y0275520D01*
X0435107Y0275795D02*
X0434281Y0275795D01*
X0434281Y0276070D02*
X0435107Y0276070D01*
X0435107Y0276345D02*
X0434281Y0276345D01*
X0433138Y0276436D02*
X0433138Y0270570D01*
X0432312Y0270570D01*
X0432312Y0276436D01*
X0433138Y0276436D01*
X0433138Y0270845D02*
X0432312Y0270845D01*
X0432312Y0271120D02*
X0433138Y0271120D01*
X0433138Y0271395D02*
X0432312Y0271395D01*
X0432312Y0271670D02*
X0433138Y0271670D01*
X0433138Y0271945D02*
X0432312Y0271945D01*
X0432312Y0272220D02*
X0433138Y0272220D01*
X0433138Y0272495D02*
X0432312Y0272495D01*
X0432312Y0272770D02*
X0433138Y0272770D01*
X0433138Y0273045D02*
X0432312Y0273045D01*
X0432312Y0273320D02*
X0433138Y0273320D01*
X0433138Y0273595D02*
X0432312Y0273595D01*
X0432312Y0273870D02*
X0433138Y0273870D01*
X0433138Y0274145D02*
X0432312Y0274145D01*
X0432312Y0274420D02*
X0433138Y0274420D01*
X0433138Y0274695D02*
X0432312Y0274695D01*
X0432312Y0274970D02*
X0433138Y0274970D01*
X0433138Y0275245D02*
X0432312Y0275245D01*
X0432312Y0275520D02*
X0433138Y0275520D01*
X0433138Y0275795D02*
X0432312Y0275795D01*
X0432312Y0276070D02*
X0433138Y0276070D01*
X0433138Y0276345D02*
X0432312Y0276345D01*
X0431170Y0276436D02*
X0431170Y0270570D01*
X0430344Y0270570D01*
X0430344Y0276436D01*
X0431170Y0276436D01*
X0431170Y0270845D02*
X0430344Y0270845D01*
X0430344Y0271120D02*
X0431170Y0271120D01*
X0431170Y0271395D02*
X0430344Y0271395D01*
X0430344Y0271670D02*
X0431170Y0271670D01*
X0431170Y0271945D02*
X0430344Y0271945D01*
X0430344Y0272220D02*
X0431170Y0272220D01*
X0431170Y0272495D02*
X0430344Y0272495D01*
X0430344Y0272770D02*
X0431170Y0272770D01*
X0431170Y0273045D02*
X0430344Y0273045D01*
X0430344Y0273320D02*
X0431170Y0273320D01*
X0431170Y0273595D02*
X0430344Y0273595D01*
X0430344Y0273870D02*
X0431170Y0273870D01*
X0431170Y0274145D02*
X0430344Y0274145D01*
X0430344Y0274420D02*
X0431170Y0274420D01*
X0431170Y0274695D02*
X0430344Y0274695D01*
X0430344Y0274970D02*
X0431170Y0274970D01*
X0431170Y0275245D02*
X0430344Y0275245D01*
X0430344Y0275520D02*
X0431170Y0275520D01*
X0431170Y0275795D02*
X0430344Y0275795D01*
X0430344Y0276070D02*
X0431170Y0276070D01*
X0431170Y0276345D02*
X0430344Y0276345D01*
X0429201Y0276436D02*
X0429201Y0270570D01*
X0428375Y0270570D01*
X0428375Y0276436D01*
X0429201Y0276436D01*
X0429201Y0270845D02*
X0428375Y0270845D01*
X0428375Y0271120D02*
X0429201Y0271120D01*
X0429201Y0271395D02*
X0428375Y0271395D01*
X0428375Y0271670D02*
X0429201Y0271670D01*
X0429201Y0271945D02*
X0428375Y0271945D01*
X0428375Y0272220D02*
X0429201Y0272220D01*
X0429201Y0272495D02*
X0428375Y0272495D01*
X0428375Y0272770D02*
X0429201Y0272770D01*
X0429201Y0273045D02*
X0428375Y0273045D01*
X0428375Y0273320D02*
X0429201Y0273320D01*
X0429201Y0273595D02*
X0428375Y0273595D01*
X0428375Y0273870D02*
X0429201Y0273870D01*
X0429201Y0274145D02*
X0428375Y0274145D01*
X0428375Y0274420D02*
X0429201Y0274420D01*
X0429201Y0274695D02*
X0428375Y0274695D01*
X0428375Y0274970D02*
X0429201Y0274970D01*
X0429201Y0275245D02*
X0428375Y0275245D01*
X0428375Y0275520D02*
X0429201Y0275520D01*
X0429201Y0275795D02*
X0428375Y0275795D01*
X0428375Y0276070D02*
X0429201Y0276070D01*
X0429201Y0276345D02*
X0428375Y0276345D01*
X0427233Y0276436D02*
X0427233Y0270570D01*
X0426407Y0270570D01*
X0426407Y0276436D01*
X0427233Y0276436D01*
X0427233Y0270845D02*
X0426407Y0270845D01*
X0426407Y0271120D02*
X0427233Y0271120D01*
X0427233Y0271395D02*
X0426407Y0271395D01*
X0426407Y0271670D02*
X0427233Y0271670D01*
X0427233Y0271945D02*
X0426407Y0271945D01*
X0426407Y0272220D02*
X0427233Y0272220D01*
X0427233Y0272495D02*
X0426407Y0272495D01*
X0426407Y0272770D02*
X0427233Y0272770D01*
X0427233Y0273045D02*
X0426407Y0273045D01*
X0426407Y0273320D02*
X0427233Y0273320D01*
X0427233Y0273595D02*
X0426407Y0273595D01*
X0426407Y0273870D02*
X0427233Y0273870D01*
X0427233Y0274145D02*
X0426407Y0274145D01*
X0426407Y0274420D02*
X0427233Y0274420D01*
X0427233Y0274695D02*
X0426407Y0274695D01*
X0426407Y0274970D02*
X0427233Y0274970D01*
X0427233Y0275245D02*
X0426407Y0275245D01*
X0426407Y0275520D02*
X0427233Y0275520D01*
X0427233Y0275795D02*
X0426407Y0275795D01*
X0426407Y0276070D02*
X0427233Y0276070D01*
X0427233Y0276345D02*
X0426407Y0276345D01*
X0425264Y0276436D02*
X0425264Y0270570D01*
X0424438Y0270570D01*
X0424438Y0276436D01*
X0425264Y0276436D01*
X0425264Y0270845D02*
X0424438Y0270845D01*
X0424438Y0271120D02*
X0425264Y0271120D01*
X0425264Y0271395D02*
X0424438Y0271395D01*
X0424438Y0271670D02*
X0425264Y0271670D01*
X0425264Y0271945D02*
X0424438Y0271945D01*
X0424438Y0272220D02*
X0425264Y0272220D01*
X0425264Y0272495D02*
X0424438Y0272495D01*
X0424438Y0272770D02*
X0425264Y0272770D01*
X0425264Y0273045D02*
X0424438Y0273045D01*
X0424438Y0273320D02*
X0425264Y0273320D01*
X0425264Y0273595D02*
X0424438Y0273595D01*
X0424438Y0273870D02*
X0425264Y0273870D01*
X0425264Y0274145D02*
X0424438Y0274145D01*
X0424438Y0274420D02*
X0425264Y0274420D01*
X0425264Y0274695D02*
X0424438Y0274695D01*
X0424438Y0274970D02*
X0425264Y0274970D01*
X0425264Y0275245D02*
X0424438Y0275245D01*
X0424438Y0275520D02*
X0425264Y0275520D01*
X0425264Y0275795D02*
X0424438Y0275795D01*
X0424438Y0276070D02*
X0425264Y0276070D01*
X0425264Y0276345D02*
X0424438Y0276345D01*
D17*
X0272130Y0274886D02*
X0266804Y0274886D01*
X0272130Y0274886D02*
X0272130Y0273262D01*
X0266804Y0273262D01*
X0266804Y0274886D01*
X0266804Y0273802D02*
X0272130Y0273802D01*
X0272130Y0274342D02*
X0266804Y0274342D01*
X0266804Y0274882D02*
X0272130Y0274882D01*
X0272130Y0271736D02*
X0266804Y0271736D01*
X0272130Y0271736D02*
X0272130Y0270112D01*
X0266804Y0270112D01*
X0266804Y0271736D01*
X0266804Y0270652D02*
X0272130Y0270652D01*
X0272130Y0271192D02*
X0266804Y0271192D01*
X0266804Y0271732D02*
X0272130Y0271732D01*
X0272130Y0268586D02*
X0266804Y0268586D01*
X0272130Y0268586D02*
X0272130Y0266962D01*
X0266804Y0266962D01*
X0266804Y0268586D01*
X0266804Y0267502D02*
X0272130Y0267502D01*
X0272130Y0268042D02*
X0266804Y0268042D01*
X0266804Y0268582D02*
X0272130Y0268582D01*
X0272130Y0265437D02*
X0266804Y0265437D01*
X0272130Y0265437D02*
X0272130Y0263813D01*
X0266804Y0263813D01*
X0266804Y0265437D01*
X0266804Y0264353D02*
X0272130Y0264353D01*
X0272130Y0264893D02*
X0266804Y0264893D01*
X0266804Y0265433D02*
X0272130Y0265433D01*
X0272130Y0262287D02*
X0266804Y0262287D01*
X0272130Y0262287D02*
X0272130Y0260663D01*
X0266804Y0260663D01*
X0266804Y0262287D01*
X0266804Y0261203D02*
X0272130Y0261203D01*
X0272130Y0261743D02*
X0266804Y0261743D01*
X0266804Y0262283D02*
X0272130Y0262283D01*
X0272130Y0259138D02*
X0266804Y0259138D01*
X0272130Y0259138D02*
X0272130Y0257514D01*
X0266804Y0257514D01*
X0266804Y0259138D01*
X0266804Y0258054D02*
X0272130Y0258054D01*
X0272130Y0258594D02*
X0266804Y0258594D01*
X0266804Y0259134D02*
X0272130Y0259134D01*
X0272130Y0255988D02*
X0266804Y0255988D01*
X0272130Y0255988D02*
X0272130Y0254364D01*
X0266804Y0254364D01*
X0266804Y0255988D01*
X0266804Y0254904D02*
X0272130Y0254904D01*
X0272130Y0255444D02*
X0266804Y0255444D01*
X0266804Y0255984D02*
X0272130Y0255984D01*
X0272130Y0252838D02*
X0266804Y0252838D01*
X0272130Y0252838D02*
X0272130Y0251214D01*
X0266804Y0251214D01*
X0266804Y0252838D01*
X0266804Y0251754D02*
X0272130Y0251754D01*
X0272130Y0252294D02*
X0266804Y0252294D01*
X0266804Y0252834D02*
X0272130Y0252834D01*
X0263262Y0249296D02*
X0263262Y0243970D01*
X0263262Y0249296D02*
X0264886Y0249296D01*
X0264886Y0243970D01*
X0263262Y0243970D01*
X0263262Y0244510D02*
X0264886Y0244510D01*
X0264886Y0245050D02*
X0263262Y0245050D01*
X0263262Y0245590D02*
X0264886Y0245590D01*
X0264886Y0246130D02*
X0263262Y0246130D01*
X0263262Y0246670D02*
X0264886Y0246670D01*
X0264886Y0247210D02*
X0263262Y0247210D01*
X0263262Y0247750D02*
X0264886Y0247750D01*
X0264886Y0248290D02*
X0263262Y0248290D01*
X0263262Y0248830D02*
X0264886Y0248830D01*
X0260112Y0249296D02*
X0260112Y0243970D01*
X0260112Y0249296D02*
X0261736Y0249296D01*
X0261736Y0243970D01*
X0260112Y0243970D01*
X0260112Y0244510D02*
X0261736Y0244510D01*
X0261736Y0245050D02*
X0260112Y0245050D01*
X0260112Y0245590D02*
X0261736Y0245590D01*
X0261736Y0246130D02*
X0260112Y0246130D01*
X0260112Y0246670D02*
X0261736Y0246670D01*
X0261736Y0247210D02*
X0260112Y0247210D01*
X0260112Y0247750D02*
X0261736Y0247750D01*
X0261736Y0248290D02*
X0260112Y0248290D01*
X0260112Y0248830D02*
X0261736Y0248830D01*
X0256962Y0249296D02*
X0256962Y0243970D01*
X0256962Y0249296D02*
X0258586Y0249296D01*
X0258586Y0243970D01*
X0256962Y0243970D01*
X0256962Y0244510D02*
X0258586Y0244510D01*
X0258586Y0245050D02*
X0256962Y0245050D01*
X0256962Y0245590D02*
X0258586Y0245590D01*
X0258586Y0246130D02*
X0256962Y0246130D01*
X0256962Y0246670D02*
X0258586Y0246670D01*
X0258586Y0247210D02*
X0256962Y0247210D01*
X0256962Y0247750D02*
X0258586Y0247750D01*
X0258586Y0248290D02*
X0256962Y0248290D01*
X0256962Y0248830D02*
X0258586Y0248830D01*
X0253813Y0249296D02*
X0253813Y0243970D01*
X0253813Y0249296D02*
X0255437Y0249296D01*
X0255437Y0243970D01*
X0253813Y0243970D01*
X0253813Y0244510D02*
X0255437Y0244510D01*
X0255437Y0245050D02*
X0253813Y0245050D01*
X0253813Y0245590D02*
X0255437Y0245590D01*
X0255437Y0246130D02*
X0253813Y0246130D01*
X0253813Y0246670D02*
X0255437Y0246670D01*
X0255437Y0247210D02*
X0253813Y0247210D01*
X0253813Y0247750D02*
X0255437Y0247750D01*
X0255437Y0248290D02*
X0253813Y0248290D01*
X0253813Y0248830D02*
X0255437Y0248830D01*
X0250663Y0249296D02*
X0250663Y0243970D01*
X0250663Y0249296D02*
X0252287Y0249296D01*
X0252287Y0243970D01*
X0250663Y0243970D01*
X0250663Y0244510D02*
X0252287Y0244510D01*
X0252287Y0245050D02*
X0250663Y0245050D01*
X0250663Y0245590D02*
X0252287Y0245590D01*
X0252287Y0246130D02*
X0250663Y0246130D01*
X0250663Y0246670D02*
X0252287Y0246670D01*
X0252287Y0247210D02*
X0250663Y0247210D01*
X0250663Y0247750D02*
X0252287Y0247750D01*
X0252287Y0248290D02*
X0250663Y0248290D01*
X0250663Y0248830D02*
X0252287Y0248830D01*
X0247514Y0249296D02*
X0247514Y0243970D01*
X0247514Y0249296D02*
X0249138Y0249296D01*
X0249138Y0243970D01*
X0247514Y0243970D01*
X0247514Y0244510D02*
X0249138Y0244510D01*
X0249138Y0245050D02*
X0247514Y0245050D01*
X0247514Y0245590D02*
X0249138Y0245590D01*
X0249138Y0246130D02*
X0247514Y0246130D01*
X0247514Y0246670D02*
X0249138Y0246670D01*
X0249138Y0247210D02*
X0247514Y0247210D01*
X0247514Y0247750D02*
X0249138Y0247750D01*
X0249138Y0248290D02*
X0247514Y0248290D01*
X0247514Y0248830D02*
X0249138Y0248830D01*
X0244364Y0249296D02*
X0244364Y0243970D01*
X0244364Y0249296D02*
X0245988Y0249296D01*
X0245988Y0243970D01*
X0244364Y0243970D01*
X0244364Y0244510D02*
X0245988Y0244510D01*
X0245988Y0245050D02*
X0244364Y0245050D01*
X0244364Y0245590D02*
X0245988Y0245590D01*
X0245988Y0246130D02*
X0244364Y0246130D01*
X0244364Y0246670D02*
X0245988Y0246670D01*
X0245988Y0247210D02*
X0244364Y0247210D01*
X0244364Y0247750D02*
X0245988Y0247750D01*
X0245988Y0248290D02*
X0244364Y0248290D01*
X0244364Y0248830D02*
X0245988Y0248830D01*
X0241214Y0249296D02*
X0241214Y0243970D01*
X0241214Y0249296D02*
X0242838Y0249296D01*
X0242838Y0243970D01*
X0241214Y0243970D01*
X0241214Y0244510D02*
X0242838Y0244510D01*
X0242838Y0245050D02*
X0241214Y0245050D01*
X0241214Y0245590D02*
X0242838Y0245590D01*
X0242838Y0246130D02*
X0241214Y0246130D01*
X0241214Y0246670D02*
X0242838Y0246670D01*
X0242838Y0247210D02*
X0241214Y0247210D01*
X0241214Y0247750D02*
X0242838Y0247750D01*
X0242838Y0248290D02*
X0241214Y0248290D01*
X0241214Y0248830D02*
X0242838Y0248830D01*
X0239296Y0252838D02*
X0233970Y0252838D01*
X0239296Y0252838D02*
X0239296Y0251214D01*
X0233970Y0251214D01*
X0233970Y0252838D01*
X0233970Y0251754D02*
X0239296Y0251754D01*
X0239296Y0252294D02*
X0233970Y0252294D01*
X0233970Y0252834D02*
X0239296Y0252834D01*
X0239296Y0255988D02*
X0233970Y0255988D01*
X0239296Y0255988D02*
X0239296Y0254364D01*
X0233970Y0254364D01*
X0233970Y0255988D01*
X0233970Y0254904D02*
X0239296Y0254904D01*
X0239296Y0255444D02*
X0233970Y0255444D01*
X0233970Y0255984D02*
X0239296Y0255984D01*
X0239296Y0259138D02*
X0233970Y0259138D01*
X0239296Y0259138D02*
X0239296Y0257514D01*
X0233970Y0257514D01*
X0233970Y0259138D01*
X0233970Y0258054D02*
X0239296Y0258054D01*
X0239296Y0258594D02*
X0233970Y0258594D01*
X0233970Y0259134D02*
X0239296Y0259134D01*
X0239296Y0262287D02*
X0233970Y0262287D01*
X0239296Y0262287D02*
X0239296Y0260663D01*
X0233970Y0260663D01*
X0233970Y0262287D01*
X0233970Y0261203D02*
X0239296Y0261203D01*
X0239296Y0261743D02*
X0233970Y0261743D01*
X0233970Y0262283D02*
X0239296Y0262283D01*
X0239296Y0265437D02*
X0233970Y0265437D01*
X0239296Y0265437D02*
X0239296Y0263813D01*
X0233970Y0263813D01*
X0233970Y0265437D01*
X0233970Y0264353D02*
X0239296Y0264353D01*
X0239296Y0264893D02*
X0233970Y0264893D01*
X0233970Y0265433D02*
X0239296Y0265433D01*
X0239296Y0268586D02*
X0233970Y0268586D01*
X0239296Y0268586D02*
X0239296Y0266962D01*
X0233970Y0266962D01*
X0233970Y0268586D01*
X0233970Y0267502D02*
X0239296Y0267502D01*
X0239296Y0268042D02*
X0233970Y0268042D01*
X0233970Y0268582D02*
X0239296Y0268582D01*
X0239296Y0271736D02*
X0233970Y0271736D01*
X0239296Y0271736D02*
X0239296Y0270112D01*
X0233970Y0270112D01*
X0233970Y0271736D01*
X0233970Y0270652D02*
X0239296Y0270652D01*
X0239296Y0271192D02*
X0233970Y0271192D01*
X0233970Y0271732D02*
X0239296Y0271732D01*
X0239296Y0274886D02*
X0233970Y0274886D01*
X0239296Y0274886D02*
X0239296Y0273262D01*
X0233970Y0273262D01*
X0233970Y0274886D01*
X0233970Y0273802D02*
X0239296Y0273802D01*
X0239296Y0274342D02*
X0233970Y0274342D01*
X0233970Y0274882D02*
X0239296Y0274882D01*
X0241214Y0276804D02*
X0241214Y0282130D01*
X0242838Y0282130D01*
X0242838Y0276804D01*
X0241214Y0276804D01*
X0241214Y0277344D02*
X0242838Y0277344D01*
X0242838Y0277884D02*
X0241214Y0277884D01*
X0241214Y0278424D02*
X0242838Y0278424D01*
X0242838Y0278964D02*
X0241214Y0278964D01*
X0241214Y0279504D02*
X0242838Y0279504D01*
X0242838Y0280044D02*
X0241214Y0280044D01*
X0241214Y0280584D02*
X0242838Y0280584D01*
X0242838Y0281124D02*
X0241214Y0281124D01*
X0241214Y0281664D02*
X0242838Y0281664D01*
X0244364Y0282130D02*
X0244364Y0276804D01*
X0244364Y0282130D02*
X0245988Y0282130D01*
X0245988Y0276804D01*
X0244364Y0276804D01*
X0244364Y0277344D02*
X0245988Y0277344D01*
X0245988Y0277884D02*
X0244364Y0277884D01*
X0244364Y0278424D02*
X0245988Y0278424D01*
X0245988Y0278964D02*
X0244364Y0278964D01*
X0244364Y0279504D02*
X0245988Y0279504D01*
X0245988Y0280044D02*
X0244364Y0280044D01*
X0244364Y0280584D02*
X0245988Y0280584D01*
X0245988Y0281124D02*
X0244364Y0281124D01*
X0244364Y0281664D02*
X0245988Y0281664D01*
X0247514Y0282130D02*
X0247514Y0276804D01*
X0247514Y0282130D02*
X0249138Y0282130D01*
X0249138Y0276804D01*
X0247514Y0276804D01*
X0247514Y0277344D02*
X0249138Y0277344D01*
X0249138Y0277884D02*
X0247514Y0277884D01*
X0247514Y0278424D02*
X0249138Y0278424D01*
X0249138Y0278964D02*
X0247514Y0278964D01*
X0247514Y0279504D02*
X0249138Y0279504D01*
X0249138Y0280044D02*
X0247514Y0280044D01*
X0247514Y0280584D02*
X0249138Y0280584D01*
X0249138Y0281124D02*
X0247514Y0281124D01*
X0247514Y0281664D02*
X0249138Y0281664D01*
X0250663Y0282130D02*
X0250663Y0276804D01*
X0250663Y0282130D02*
X0252287Y0282130D01*
X0252287Y0276804D01*
X0250663Y0276804D01*
X0250663Y0277344D02*
X0252287Y0277344D01*
X0252287Y0277884D02*
X0250663Y0277884D01*
X0250663Y0278424D02*
X0252287Y0278424D01*
X0252287Y0278964D02*
X0250663Y0278964D01*
X0250663Y0279504D02*
X0252287Y0279504D01*
X0252287Y0280044D02*
X0250663Y0280044D01*
X0250663Y0280584D02*
X0252287Y0280584D01*
X0252287Y0281124D02*
X0250663Y0281124D01*
X0250663Y0281664D02*
X0252287Y0281664D01*
X0253813Y0282130D02*
X0253813Y0276804D01*
X0253813Y0282130D02*
X0255437Y0282130D01*
X0255437Y0276804D01*
X0253813Y0276804D01*
X0253813Y0277344D02*
X0255437Y0277344D01*
X0255437Y0277884D02*
X0253813Y0277884D01*
X0253813Y0278424D02*
X0255437Y0278424D01*
X0255437Y0278964D02*
X0253813Y0278964D01*
X0253813Y0279504D02*
X0255437Y0279504D01*
X0255437Y0280044D02*
X0253813Y0280044D01*
X0253813Y0280584D02*
X0255437Y0280584D01*
X0255437Y0281124D02*
X0253813Y0281124D01*
X0253813Y0281664D02*
X0255437Y0281664D01*
X0256962Y0282130D02*
X0256962Y0276804D01*
X0256962Y0282130D02*
X0258586Y0282130D01*
X0258586Y0276804D01*
X0256962Y0276804D01*
X0256962Y0277344D02*
X0258586Y0277344D01*
X0258586Y0277884D02*
X0256962Y0277884D01*
X0256962Y0278424D02*
X0258586Y0278424D01*
X0258586Y0278964D02*
X0256962Y0278964D01*
X0256962Y0279504D02*
X0258586Y0279504D01*
X0258586Y0280044D02*
X0256962Y0280044D01*
X0256962Y0280584D02*
X0258586Y0280584D01*
X0258586Y0281124D02*
X0256962Y0281124D01*
X0256962Y0281664D02*
X0258586Y0281664D01*
X0260112Y0282130D02*
X0260112Y0276804D01*
X0260112Y0282130D02*
X0261736Y0282130D01*
X0261736Y0276804D01*
X0260112Y0276804D01*
X0260112Y0277344D02*
X0261736Y0277344D01*
X0261736Y0277884D02*
X0260112Y0277884D01*
X0260112Y0278424D02*
X0261736Y0278424D01*
X0261736Y0278964D02*
X0260112Y0278964D01*
X0260112Y0279504D02*
X0261736Y0279504D01*
X0261736Y0280044D02*
X0260112Y0280044D01*
X0260112Y0280584D02*
X0261736Y0280584D01*
X0261736Y0281124D02*
X0260112Y0281124D01*
X0260112Y0281664D02*
X0261736Y0281664D01*
X0263262Y0282130D02*
X0263262Y0276804D01*
X0263262Y0282130D02*
X0264886Y0282130D01*
X0264886Y0276804D01*
X0263262Y0276804D01*
X0263262Y0277344D02*
X0264886Y0277344D01*
X0264886Y0277884D02*
X0263262Y0277884D01*
X0263262Y0278424D02*
X0264886Y0278424D01*
X0264886Y0278964D02*
X0263262Y0278964D01*
X0263262Y0279504D02*
X0264886Y0279504D01*
X0264886Y0280044D02*
X0263262Y0280044D01*
X0263262Y0280584D02*
X0264886Y0280584D01*
X0264886Y0281124D02*
X0263262Y0281124D01*
X0263262Y0281664D02*
X0264886Y0281664D01*
D18*
X0253050Y0263050D03*
D19*
X0199074Y0261800D03*
X0199074Y0266800D03*
X0199074Y0256800D03*
X0199074Y0251800D03*
X0199074Y0246800D03*
X0199074Y0241800D03*
X0199074Y0236800D03*
X0199074Y0231800D03*
X0177026Y0231800D03*
X0177026Y0236800D03*
X0177026Y0241800D03*
X0177026Y0246800D03*
X0177026Y0251800D03*
X0177026Y0256800D03*
X0177026Y0261800D03*
X0177026Y0266800D03*
D20*
X0164615Y0250668D03*
X0164615Y0248109D03*
X0164615Y0245550D03*
X0164615Y0242991D03*
X0164615Y0240432D03*
D21*
X0209300Y0233434D03*
X0216800Y0233434D03*
X0216800Y0225166D03*
X0209300Y0225166D03*
X0297666Y0284300D03*
X0305934Y0284300D03*
X0305934Y0294300D03*
X0297666Y0294300D03*
X0297666Y0304300D03*
X0305934Y0304300D03*
X0305934Y0314300D03*
X0297666Y0314300D03*
X0297666Y0324300D03*
X0305934Y0324300D03*
X0305934Y0334300D03*
X0297666Y0334300D03*
X0297666Y0344300D03*
X0305934Y0344300D03*
X0305934Y0354300D03*
X0297666Y0354300D03*
X0289300Y0447666D03*
X0281800Y0447666D03*
X0281800Y0455934D03*
X0289300Y0455934D03*
X0376800Y0455934D03*
X0384300Y0455934D03*
X0384300Y0447666D03*
X0376800Y0447666D03*
X0469300Y0447666D03*
X0476800Y0447666D03*
X0476800Y0455934D03*
X0469300Y0455934D03*
X0515166Y0454300D03*
X0523434Y0454300D03*
X0406800Y0233434D03*
X0399300Y0233434D03*
X0399300Y0225166D03*
X0406800Y0225166D03*
X0311800Y0225166D03*
X0304300Y0225166D03*
X0304300Y0233434D03*
X0311800Y0233434D03*
D22*
X0211239Y0448050D03*
X0211239Y0474300D03*
X0184861Y0474300D03*
X0184861Y0448050D03*
D23*
X0185550Y0355417D03*
X0176495Y0355417D03*
X0194605Y0355417D03*
D24*
X0185550Y0379433D03*
D25*
X0234398Y0455028D03*
X0234398Y0459753D03*
X0234398Y0464477D03*
X0234398Y0469202D03*
X0234398Y0473926D03*
X0234398Y0478650D03*
X0234398Y0483375D03*
X0263926Y0478650D03*
X0263926Y0473926D03*
X0263926Y0469202D03*
X0263926Y0464477D03*
X0263926Y0459753D03*
X0263926Y0455028D03*
X0328887Y0455028D03*
X0328887Y0459753D03*
X0328887Y0464477D03*
X0328887Y0469202D03*
X0328887Y0473926D03*
X0328887Y0478650D03*
X0328887Y0483375D03*
X0358414Y0478650D03*
X0358414Y0473926D03*
X0358414Y0469202D03*
X0358414Y0464477D03*
X0358414Y0459753D03*
X0358414Y0455028D03*
X0423375Y0455028D03*
X0423375Y0459753D03*
X0423375Y0464477D03*
X0423375Y0469202D03*
X0423375Y0473926D03*
X0423375Y0478650D03*
X0423375Y0483375D03*
X0452902Y0478650D03*
X0452902Y0473926D03*
X0452902Y0469202D03*
X0452902Y0464477D03*
X0452902Y0459753D03*
X0452902Y0455028D03*
X0452902Y0223532D03*
X0452902Y0218808D03*
X0452902Y0214083D03*
X0452902Y0209359D03*
X0452902Y0204635D03*
X0452902Y0199910D03*
X0452902Y0195186D03*
X0423375Y0199910D03*
X0423375Y0204635D03*
X0423375Y0209359D03*
X0423375Y0214083D03*
X0423375Y0218808D03*
X0423375Y0223532D03*
X0358414Y0223532D03*
X0358414Y0218808D03*
X0358414Y0214083D03*
X0358414Y0209359D03*
X0358414Y0204635D03*
X0358414Y0199910D03*
X0358414Y0195186D03*
X0328887Y0199910D03*
X0328887Y0204635D03*
X0328887Y0209359D03*
X0328887Y0214083D03*
X0328887Y0218808D03*
X0328887Y0223532D03*
X0263926Y0223532D03*
X0263926Y0218808D03*
X0263926Y0214083D03*
X0263926Y0209359D03*
X0263926Y0204635D03*
X0263926Y0199910D03*
X0263926Y0195186D03*
X0234398Y0199910D03*
X0234398Y0204635D03*
X0234398Y0209359D03*
X0234398Y0214083D03*
X0234398Y0218808D03*
X0234398Y0223532D03*
D26*
X0242469Y0230028D03*
X0246800Y0230028D03*
X0251524Y0230028D03*
X0255855Y0230028D03*
X0336957Y0230028D03*
X0341288Y0230028D03*
X0346013Y0230028D03*
X0350343Y0230028D03*
X0431446Y0230028D03*
X0435776Y0230028D03*
X0440501Y0230028D03*
X0444831Y0230028D03*
X0444831Y0448532D03*
X0440501Y0448532D03*
X0435776Y0448532D03*
X0431446Y0448532D03*
X0350343Y0448532D03*
X0346013Y0448532D03*
X0341288Y0448532D03*
X0336957Y0448532D03*
X0255855Y0448532D03*
X0251524Y0448532D03*
X0246800Y0448532D03*
X0242469Y0448532D03*
D27*
X0397105Y0343926D03*
X0403995Y0343926D03*
X0403995Y0334674D03*
X0397105Y0334674D03*
X0397105Y0308926D03*
X0403995Y0308926D03*
X0403995Y0299674D03*
X0397105Y0299674D03*
X0286495Y0271426D03*
X0279605Y0271426D03*
X0279605Y0262174D03*
X0286495Y0262174D03*
X0217745Y0259674D03*
X0210855Y0259674D03*
X0210855Y0268926D03*
X0217745Y0268926D03*
D28*
X0490078Y0437194D03*
D29*
X0490078Y0433060D03*
X0490078Y0428729D03*
X0490078Y0424398D03*
X0490078Y0420068D03*
X0490078Y0415737D03*
X0490078Y0407076D03*
D30*
X0490078Y0411406D03*
D31*
X0514290Y0396702D03*
X0528857Y0396702D03*
D32*
X0532696Y0410481D03*
X0532696Y0433985D03*
D33*
X0491456Y0441957D03*
D34*
X0490570Y0397391D03*
D35*
X0168759Y0265550D03*
X0157341Y0265550D03*
D36*
X0240550Y0341300D03*
X0240550Y0347300D03*
X0250550Y0347300D03*
X0250550Y0341300D03*
X0260550Y0341300D03*
X0260550Y0347300D03*
D37*
X0298800Y0271150D03*
X0300800Y0271150D03*
X0302800Y0271150D03*
X0304800Y0271150D03*
X0304800Y0259950D03*
X0302800Y0259950D03*
X0300800Y0259950D03*
X0298800Y0259950D03*
D38*
X0325363Y0261810D03*
X0325363Y0269290D03*
X0333237Y0265550D03*
D39*
X0258050Y0409300D03*
D40*
X0258050Y0376500D03*
X0251350Y0376500D03*
X0244650Y0376500D03*
X0264750Y0376500D03*
X0271450Y0376500D03*
D41*
X0289812Y0406800D03*
X0328788Y0406800D03*
D42*
X0310589Y0374300D03*
X0290511Y0374300D03*
D43*
X0451800Y0430550D03*
D44*
X0451800Y0421987D03*
X0448060Y0414113D03*
X0455540Y0414113D03*
D45*
X0475968Y0214679D02*
X0483144Y0214679D01*
X0475968Y0214679D02*
X0475968Y0216421D01*
X0483144Y0216421D01*
X0483144Y0214679D01*
X0483144Y0215259D02*
X0475968Y0215259D01*
X0475968Y0215839D02*
X0483144Y0215839D01*
X0483144Y0216419D02*
X0475968Y0216419D01*
X0475968Y0209679D02*
X0483144Y0209679D01*
X0475968Y0209679D02*
X0475968Y0211421D01*
X0483144Y0211421D01*
X0483144Y0209679D01*
X0483144Y0210259D02*
X0475968Y0210259D01*
X0475968Y0210839D02*
X0483144Y0210839D01*
X0483144Y0211419D02*
X0475968Y0211419D01*
X0475968Y0204679D02*
X0483144Y0204679D01*
X0475968Y0204679D02*
X0475968Y0206421D01*
X0483144Y0206421D01*
X0483144Y0204679D01*
X0483144Y0205259D02*
X0475968Y0205259D01*
X0475968Y0205839D02*
X0483144Y0205839D01*
X0483144Y0206419D02*
X0475968Y0206419D01*
X0475968Y0199679D02*
X0483144Y0199679D01*
X0475968Y0199679D02*
X0475968Y0201421D01*
X0483144Y0201421D01*
X0483144Y0199679D01*
X0483144Y0200259D02*
X0475968Y0200259D01*
X0475968Y0200839D02*
X0483144Y0200839D01*
X0483144Y0201419D02*
X0475968Y0201419D01*
X0495456Y0199679D02*
X0502632Y0199679D01*
X0495456Y0199679D02*
X0495456Y0201421D01*
X0502632Y0201421D01*
X0502632Y0199679D01*
X0502632Y0200259D02*
X0495456Y0200259D01*
X0495456Y0200839D02*
X0502632Y0200839D01*
X0502632Y0201419D02*
X0495456Y0201419D01*
X0495456Y0204679D02*
X0502632Y0204679D01*
X0495456Y0204679D02*
X0495456Y0206421D01*
X0502632Y0206421D01*
X0502632Y0204679D01*
X0502632Y0205259D02*
X0495456Y0205259D01*
X0495456Y0205839D02*
X0502632Y0205839D01*
X0502632Y0206419D02*
X0495456Y0206419D01*
X0495456Y0209679D02*
X0502632Y0209679D01*
X0495456Y0209679D02*
X0495456Y0211421D01*
X0502632Y0211421D01*
X0502632Y0209679D01*
X0502632Y0210259D02*
X0495456Y0210259D01*
X0495456Y0210839D02*
X0502632Y0210839D01*
X0502632Y0211419D02*
X0495456Y0211419D01*
X0495456Y0214679D02*
X0502632Y0214679D01*
X0495456Y0214679D02*
X0495456Y0216421D01*
X0502632Y0216421D01*
X0502632Y0214679D01*
X0502632Y0215259D02*
X0495456Y0215259D01*
X0495456Y0215839D02*
X0502632Y0215839D01*
X0502632Y0216419D02*
X0495456Y0216419D01*
M02*
