G75*
%MOIN*%
%OFA0B0*%
%FSLAX25Y25*%
%IPPOS*%
%LPD*%
%AMOC8*
5,1,8,0,0,1.08239X$1,22.5*
%
%ADD10C,0.00000*%
%ADD11R,0.05518X0.06306*%
%ADD12R,0.04731X0.04337*%
%ADD13R,0.04337X0.04731*%
%ADD14R,0.06306X0.05518*%
%ADD15R,0.03550X0.05124*%
%ADD16C,0.00376*%
%ADD17C,0.00641*%
%ADD18R,0.18904X0.18904*%
%ADD19R,0.05124X0.02762*%
%ADD20R,0.07290X0.01975*%
%ADD21R,0.08274X0.08274*%
%ADD22C,0.04534*%
%ADD23C,0.07487*%
%ADD24R,0.05124X0.05124*%
%ADD25R,0.09455X0.06306*%
%ADD26R,0.06700X0.05000*%
%ADD27R,0.01200X0.02900*%
%ADD28R,0.07200X0.00600*%
%ADD29C,0.07000*%
%ADD30R,0.05518X0.05518*%
%ADD31R,0.14573X0.05518*%
%ADD32R,0.06306X0.03550*%
%ADD33R,0.03550X0.06306*%
%ADD34R,0.04731X0.05124*%
%ADD35C,0.12998*%
%ADD36R,0.04731X0.03353*%
%ADD37R,0.04731X0.03746*%
%ADD38R,0.04731X0.03845*%
%ADD39R,0.04337X0.05124*%
%ADD40R,0.05715X0.07880*%
%ADD41R,0.07487X0.05006*%
%ADD42R,0.05715X0.06502*%
%ADD43R,0.06306X0.05124*%
%ADD44C,0.06022*%
%ADD45C,0.13455*%
%ADD46OC8,0.06700*%
%ADD47C,0.06700*%
%ADD48R,0.01400X0.04600*%
%ADD49R,0.05400X0.04337*%
%ADD50R,0.42920X0.41384*%
%ADD51R,0.04600X0.08900*%
%ADD52C,0.05943*%
%ADD53R,0.11817X0.21660*%
%ADD54R,0.07487X0.09061*%
%ADD55R,0.05000X0.06700*%
%ADD56R,0.04337X0.05400*%
%ADD57C,0.00681*%
D10*
X0146800Y0181800D02*
X0146800Y0496761D01*
X0540501Y0496761D01*
X0540501Y0181800D01*
X0146800Y0181800D01*
X0156249Y0197548D02*
X0156251Y0197706D01*
X0156257Y0197864D01*
X0156267Y0198022D01*
X0156281Y0198180D01*
X0156299Y0198337D01*
X0156320Y0198494D01*
X0156346Y0198650D01*
X0156376Y0198806D01*
X0156409Y0198961D01*
X0156447Y0199114D01*
X0156488Y0199267D01*
X0156533Y0199419D01*
X0156582Y0199570D01*
X0156635Y0199719D01*
X0156691Y0199867D01*
X0156751Y0200013D01*
X0156815Y0200158D01*
X0156883Y0200301D01*
X0156954Y0200443D01*
X0157028Y0200583D01*
X0157106Y0200720D01*
X0157188Y0200856D01*
X0157272Y0200990D01*
X0157361Y0201121D01*
X0157452Y0201250D01*
X0157547Y0201377D01*
X0157644Y0201502D01*
X0157745Y0201624D01*
X0157849Y0201743D01*
X0157956Y0201860D01*
X0158066Y0201974D01*
X0158179Y0202085D01*
X0158294Y0202194D01*
X0158412Y0202299D01*
X0158533Y0202401D01*
X0158656Y0202501D01*
X0158782Y0202597D01*
X0158910Y0202690D01*
X0159040Y0202780D01*
X0159173Y0202866D01*
X0159308Y0202950D01*
X0159444Y0203029D01*
X0159583Y0203106D01*
X0159724Y0203178D01*
X0159866Y0203248D01*
X0160010Y0203313D01*
X0160156Y0203375D01*
X0160303Y0203433D01*
X0160452Y0203488D01*
X0160602Y0203539D01*
X0160753Y0203586D01*
X0160905Y0203629D01*
X0161058Y0203668D01*
X0161213Y0203704D01*
X0161368Y0203735D01*
X0161524Y0203763D01*
X0161680Y0203787D01*
X0161837Y0203807D01*
X0161995Y0203823D01*
X0162152Y0203835D01*
X0162311Y0203843D01*
X0162469Y0203847D01*
X0162627Y0203847D01*
X0162785Y0203843D01*
X0162944Y0203835D01*
X0163101Y0203823D01*
X0163259Y0203807D01*
X0163416Y0203787D01*
X0163572Y0203763D01*
X0163728Y0203735D01*
X0163883Y0203704D01*
X0164038Y0203668D01*
X0164191Y0203629D01*
X0164343Y0203586D01*
X0164494Y0203539D01*
X0164644Y0203488D01*
X0164793Y0203433D01*
X0164940Y0203375D01*
X0165086Y0203313D01*
X0165230Y0203248D01*
X0165372Y0203178D01*
X0165513Y0203106D01*
X0165652Y0203029D01*
X0165788Y0202950D01*
X0165923Y0202866D01*
X0166056Y0202780D01*
X0166186Y0202690D01*
X0166314Y0202597D01*
X0166440Y0202501D01*
X0166563Y0202401D01*
X0166684Y0202299D01*
X0166802Y0202194D01*
X0166917Y0202085D01*
X0167030Y0201974D01*
X0167140Y0201860D01*
X0167247Y0201743D01*
X0167351Y0201624D01*
X0167452Y0201502D01*
X0167549Y0201377D01*
X0167644Y0201250D01*
X0167735Y0201121D01*
X0167824Y0200990D01*
X0167908Y0200856D01*
X0167990Y0200720D01*
X0168068Y0200583D01*
X0168142Y0200443D01*
X0168213Y0200301D01*
X0168281Y0200158D01*
X0168345Y0200013D01*
X0168405Y0199867D01*
X0168461Y0199719D01*
X0168514Y0199570D01*
X0168563Y0199419D01*
X0168608Y0199267D01*
X0168649Y0199114D01*
X0168687Y0198961D01*
X0168720Y0198806D01*
X0168750Y0198650D01*
X0168776Y0198494D01*
X0168797Y0198337D01*
X0168815Y0198180D01*
X0168829Y0198022D01*
X0168839Y0197864D01*
X0168845Y0197706D01*
X0168847Y0197548D01*
X0168845Y0197390D01*
X0168839Y0197232D01*
X0168829Y0197074D01*
X0168815Y0196916D01*
X0168797Y0196759D01*
X0168776Y0196602D01*
X0168750Y0196446D01*
X0168720Y0196290D01*
X0168687Y0196135D01*
X0168649Y0195982D01*
X0168608Y0195829D01*
X0168563Y0195677D01*
X0168514Y0195526D01*
X0168461Y0195377D01*
X0168405Y0195229D01*
X0168345Y0195083D01*
X0168281Y0194938D01*
X0168213Y0194795D01*
X0168142Y0194653D01*
X0168068Y0194513D01*
X0167990Y0194376D01*
X0167908Y0194240D01*
X0167824Y0194106D01*
X0167735Y0193975D01*
X0167644Y0193846D01*
X0167549Y0193719D01*
X0167452Y0193594D01*
X0167351Y0193472D01*
X0167247Y0193353D01*
X0167140Y0193236D01*
X0167030Y0193122D01*
X0166917Y0193011D01*
X0166802Y0192902D01*
X0166684Y0192797D01*
X0166563Y0192695D01*
X0166440Y0192595D01*
X0166314Y0192499D01*
X0166186Y0192406D01*
X0166056Y0192316D01*
X0165923Y0192230D01*
X0165788Y0192146D01*
X0165652Y0192067D01*
X0165513Y0191990D01*
X0165372Y0191918D01*
X0165230Y0191848D01*
X0165086Y0191783D01*
X0164940Y0191721D01*
X0164793Y0191663D01*
X0164644Y0191608D01*
X0164494Y0191557D01*
X0164343Y0191510D01*
X0164191Y0191467D01*
X0164038Y0191428D01*
X0163883Y0191392D01*
X0163728Y0191361D01*
X0163572Y0191333D01*
X0163416Y0191309D01*
X0163259Y0191289D01*
X0163101Y0191273D01*
X0162944Y0191261D01*
X0162785Y0191253D01*
X0162627Y0191249D01*
X0162469Y0191249D01*
X0162311Y0191253D01*
X0162152Y0191261D01*
X0161995Y0191273D01*
X0161837Y0191289D01*
X0161680Y0191309D01*
X0161524Y0191333D01*
X0161368Y0191361D01*
X0161213Y0191392D01*
X0161058Y0191428D01*
X0160905Y0191467D01*
X0160753Y0191510D01*
X0160602Y0191557D01*
X0160452Y0191608D01*
X0160303Y0191663D01*
X0160156Y0191721D01*
X0160010Y0191783D01*
X0159866Y0191848D01*
X0159724Y0191918D01*
X0159583Y0191990D01*
X0159444Y0192067D01*
X0159308Y0192146D01*
X0159173Y0192230D01*
X0159040Y0192316D01*
X0158910Y0192406D01*
X0158782Y0192499D01*
X0158656Y0192595D01*
X0158533Y0192695D01*
X0158412Y0192797D01*
X0158294Y0192902D01*
X0158179Y0193011D01*
X0158066Y0193122D01*
X0157956Y0193236D01*
X0157849Y0193353D01*
X0157745Y0193472D01*
X0157644Y0193594D01*
X0157547Y0193719D01*
X0157452Y0193846D01*
X0157361Y0193975D01*
X0157272Y0194106D01*
X0157188Y0194240D01*
X0157106Y0194376D01*
X0157028Y0194513D01*
X0156954Y0194653D01*
X0156883Y0194795D01*
X0156815Y0194938D01*
X0156751Y0195083D01*
X0156691Y0195229D01*
X0156635Y0195377D01*
X0156582Y0195526D01*
X0156533Y0195677D01*
X0156488Y0195829D01*
X0156447Y0195982D01*
X0156409Y0196135D01*
X0156376Y0196290D01*
X0156346Y0196446D01*
X0156320Y0196602D01*
X0156299Y0196759D01*
X0156281Y0196916D01*
X0156267Y0197074D01*
X0156257Y0197232D01*
X0156251Y0197390D01*
X0156249Y0197548D01*
X0163355Y0236003D02*
X0163357Y0236094D01*
X0163363Y0236184D01*
X0163373Y0236275D01*
X0163387Y0236364D01*
X0163405Y0236453D01*
X0163426Y0236542D01*
X0163452Y0236629D01*
X0163481Y0236715D01*
X0163515Y0236799D01*
X0163551Y0236882D01*
X0163592Y0236964D01*
X0163636Y0237043D01*
X0163683Y0237121D01*
X0163734Y0237196D01*
X0163788Y0237269D01*
X0163845Y0237339D01*
X0163905Y0237407D01*
X0163968Y0237473D01*
X0164034Y0237535D01*
X0164103Y0237594D01*
X0164174Y0237651D01*
X0164248Y0237704D01*
X0164324Y0237754D01*
X0164402Y0237801D01*
X0164482Y0237844D01*
X0164563Y0237883D01*
X0164647Y0237919D01*
X0164732Y0237951D01*
X0164818Y0237980D01*
X0164905Y0238004D01*
X0164994Y0238025D01*
X0165083Y0238042D01*
X0165173Y0238055D01*
X0165263Y0238064D01*
X0165354Y0238069D01*
X0165445Y0238070D01*
X0165535Y0238067D01*
X0165626Y0238060D01*
X0165716Y0238049D01*
X0165806Y0238034D01*
X0165895Y0238015D01*
X0165983Y0237993D01*
X0166069Y0237966D01*
X0166155Y0237936D01*
X0166239Y0237902D01*
X0166322Y0237864D01*
X0166403Y0237823D01*
X0166482Y0237778D01*
X0166559Y0237729D01*
X0166633Y0237678D01*
X0166706Y0237623D01*
X0166776Y0237565D01*
X0166843Y0237504D01*
X0166907Y0237440D01*
X0166969Y0237374D01*
X0167028Y0237304D01*
X0167083Y0237233D01*
X0167136Y0237158D01*
X0167185Y0237082D01*
X0167231Y0237004D01*
X0167273Y0236923D01*
X0167312Y0236841D01*
X0167347Y0236757D01*
X0167378Y0236672D01*
X0167405Y0236585D01*
X0167429Y0236498D01*
X0167449Y0236409D01*
X0167465Y0236320D01*
X0167477Y0236230D01*
X0167485Y0236139D01*
X0167489Y0236048D01*
X0167489Y0235958D01*
X0167485Y0235867D01*
X0167477Y0235776D01*
X0167465Y0235686D01*
X0167449Y0235597D01*
X0167429Y0235508D01*
X0167405Y0235421D01*
X0167378Y0235334D01*
X0167347Y0235249D01*
X0167312Y0235165D01*
X0167273Y0235083D01*
X0167231Y0235002D01*
X0167185Y0234924D01*
X0167136Y0234848D01*
X0167083Y0234773D01*
X0167028Y0234702D01*
X0166969Y0234632D01*
X0166907Y0234566D01*
X0166843Y0234502D01*
X0166776Y0234441D01*
X0166706Y0234383D01*
X0166633Y0234328D01*
X0166559Y0234277D01*
X0166482Y0234228D01*
X0166403Y0234183D01*
X0166322Y0234142D01*
X0166239Y0234104D01*
X0166155Y0234070D01*
X0166069Y0234040D01*
X0165983Y0234013D01*
X0165895Y0233991D01*
X0165806Y0233972D01*
X0165716Y0233957D01*
X0165626Y0233946D01*
X0165535Y0233939D01*
X0165445Y0233936D01*
X0165354Y0233937D01*
X0165263Y0233942D01*
X0165173Y0233951D01*
X0165083Y0233964D01*
X0164994Y0233981D01*
X0164905Y0234002D01*
X0164818Y0234026D01*
X0164732Y0234055D01*
X0164647Y0234087D01*
X0164563Y0234123D01*
X0164482Y0234162D01*
X0164402Y0234205D01*
X0164324Y0234252D01*
X0164248Y0234302D01*
X0164174Y0234355D01*
X0164103Y0234412D01*
X0164034Y0234471D01*
X0163968Y0234533D01*
X0163905Y0234599D01*
X0163845Y0234667D01*
X0163788Y0234737D01*
X0163734Y0234810D01*
X0163683Y0234885D01*
X0163636Y0234963D01*
X0163592Y0235042D01*
X0163551Y0235124D01*
X0163515Y0235207D01*
X0163481Y0235291D01*
X0163452Y0235377D01*
X0163426Y0235464D01*
X0163405Y0235553D01*
X0163387Y0235642D01*
X0163373Y0235731D01*
X0163363Y0235822D01*
X0163357Y0235912D01*
X0163355Y0236003D01*
X0163355Y0255097D02*
X0163357Y0255188D01*
X0163363Y0255278D01*
X0163373Y0255369D01*
X0163387Y0255458D01*
X0163405Y0255547D01*
X0163426Y0255636D01*
X0163452Y0255723D01*
X0163481Y0255809D01*
X0163515Y0255893D01*
X0163551Y0255976D01*
X0163592Y0256058D01*
X0163636Y0256137D01*
X0163683Y0256215D01*
X0163734Y0256290D01*
X0163788Y0256363D01*
X0163845Y0256433D01*
X0163905Y0256501D01*
X0163968Y0256567D01*
X0164034Y0256629D01*
X0164103Y0256688D01*
X0164174Y0256745D01*
X0164248Y0256798D01*
X0164324Y0256848D01*
X0164402Y0256895D01*
X0164482Y0256938D01*
X0164563Y0256977D01*
X0164647Y0257013D01*
X0164732Y0257045D01*
X0164818Y0257074D01*
X0164905Y0257098D01*
X0164994Y0257119D01*
X0165083Y0257136D01*
X0165173Y0257149D01*
X0165263Y0257158D01*
X0165354Y0257163D01*
X0165445Y0257164D01*
X0165535Y0257161D01*
X0165626Y0257154D01*
X0165716Y0257143D01*
X0165806Y0257128D01*
X0165895Y0257109D01*
X0165983Y0257087D01*
X0166069Y0257060D01*
X0166155Y0257030D01*
X0166239Y0256996D01*
X0166322Y0256958D01*
X0166403Y0256917D01*
X0166482Y0256872D01*
X0166559Y0256823D01*
X0166633Y0256772D01*
X0166706Y0256717D01*
X0166776Y0256659D01*
X0166843Y0256598D01*
X0166907Y0256534D01*
X0166969Y0256468D01*
X0167028Y0256398D01*
X0167083Y0256327D01*
X0167136Y0256252D01*
X0167185Y0256176D01*
X0167231Y0256098D01*
X0167273Y0256017D01*
X0167312Y0255935D01*
X0167347Y0255851D01*
X0167378Y0255766D01*
X0167405Y0255679D01*
X0167429Y0255592D01*
X0167449Y0255503D01*
X0167465Y0255414D01*
X0167477Y0255324D01*
X0167485Y0255233D01*
X0167489Y0255142D01*
X0167489Y0255052D01*
X0167485Y0254961D01*
X0167477Y0254870D01*
X0167465Y0254780D01*
X0167449Y0254691D01*
X0167429Y0254602D01*
X0167405Y0254515D01*
X0167378Y0254428D01*
X0167347Y0254343D01*
X0167312Y0254259D01*
X0167273Y0254177D01*
X0167231Y0254096D01*
X0167185Y0254018D01*
X0167136Y0253942D01*
X0167083Y0253867D01*
X0167028Y0253796D01*
X0166969Y0253726D01*
X0166907Y0253660D01*
X0166843Y0253596D01*
X0166776Y0253535D01*
X0166706Y0253477D01*
X0166633Y0253422D01*
X0166559Y0253371D01*
X0166482Y0253322D01*
X0166403Y0253277D01*
X0166322Y0253236D01*
X0166239Y0253198D01*
X0166155Y0253164D01*
X0166069Y0253134D01*
X0165983Y0253107D01*
X0165895Y0253085D01*
X0165806Y0253066D01*
X0165716Y0253051D01*
X0165626Y0253040D01*
X0165535Y0253033D01*
X0165445Y0253030D01*
X0165354Y0253031D01*
X0165263Y0253036D01*
X0165173Y0253045D01*
X0165083Y0253058D01*
X0164994Y0253075D01*
X0164905Y0253096D01*
X0164818Y0253120D01*
X0164732Y0253149D01*
X0164647Y0253181D01*
X0164563Y0253217D01*
X0164482Y0253256D01*
X0164402Y0253299D01*
X0164324Y0253346D01*
X0164248Y0253396D01*
X0164174Y0253449D01*
X0164103Y0253506D01*
X0164034Y0253565D01*
X0163968Y0253627D01*
X0163905Y0253693D01*
X0163845Y0253761D01*
X0163788Y0253831D01*
X0163734Y0253904D01*
X0163683Y0253979D01*
X0163636Y0254057D01*
X0163592Y0254136D01*
X0163551Y0254218D01*
X0163515Y0254301D01*
X0163481Y0254385D01*
X0163452Y0254471D01*
X0163426Y0254558D01*
X0163405Y0254647D01*
X0163387Y0254736D01*
X0163373Y0254825D01*
X0163363Y0254916D01*
X0163357Y0255006D01*
X0163355Y0255097D01*
X0156249Y0481013D02*
X0156251Y0481171D01*
X0156257Y0481329D01*
X0156267Y0481487D01*
X0156281Y0481645D01*
X0156299Y0481802D01*
X0156320Y0481959D01*
X0156346Y0482115D01*
X0156376Y0482271D01*
X0156409Y0482426D01*
X0156447Y0482579D01*
X0156488Y0482732D01*
X0156533Y0482884D01*
X0156582Y0483035D01*
X0156635Y0483184D01*
X0156691Y0483332D01*
X0156751Y0483478D01*
X0156815Y0483623D01*
X0156883Y0483766D01*
X0156954Y0483908D01*
X0157028Y0484048D01*
X0157106Y0484185D01*
X0157188Y0484321D01*
X0157272Y0484455D01*
X0157361Y0484586D01*
X0157452Y0484715D01*
X0157547Y0484842D01*
X0157644Y0484967D01*
X0157745Y0485089D01*
X0157849Y0485208D01*
X0157956Y0485325D01*
X0158066Y0485439D01*
X0158179Y0485550D01*
X0158294Y0485659D01*
X0158412Y0485764D01*
X0158533Y0485866D01*
X0158656Y0485966D01*
X0158782Y0486062D01*
X0158910Y0486155D01*
X0159040Y0486245D01*
X0159173Y0486331D01*
X0159308Y0486415D01*
X0159444Y0486494D01*
X0159583Y0486571D01*
X0159724Y0486643D01*
X0159866Y0486713D01*
X0160010Y0486778D01*
X0160156Y0486840D01*
X0160303Y0486898D01*
X0160452Y0486953D01*
X0160602Y0487004D01*
X0160753Y0487051D01*
X0160905Y0487094D01*
X0161058Y0487133D01*
X0161213Y0487169D01*
X0161368Y0487200D01*
X0161524Y0487228D01*
X0161680Y0487252D01*
X0161837Y0487272D01*
X0161995Y0487288D01*
X0162152Y0487300D01*
X0162311Y0487308D01*
X0162469Y0487312D01*
X0162627Y0487312D01*
X0162785Y0487308D01*
X0162944Y0487300D01*
X0163101Y0487288D01*
X0163259Y0487272D01*
X0163416Y0487252D01*
X0163572Y0487228D01*
X0163728Y0487200D01*
X0163883Y0487169D01*
X0164038Y0487133D01*
X0164191Y0487094D01*
X0164343Y0487051D01*
X0164494Y0487004D01*
X0164644Y0486953D01*
X0164793Y0486898D01*
X0164940Y0486840D01*
X0165086Y0486778D01*
X0165230Y0486713D01*
X0165372Y0486643D01*
X0165513Y0486571D01*
X0165652Y0486494D01*
X0165788Y0486415D01*
X0165923Y0486331D01*
X0166056Y0486245D01*
X0166186Y0486155D01*
X0166314Y0486062D01*
X0166440Y0485966D01*
X0166563Y0485866D01*
X0166684Y0485764D01*
X0166802Y0485659D01*
X0166917Y0485550D01*
X0167030Y0485439D01*
X0167140Y0485325D01*
X0167247Y0485208D01*
X0167351Y0485089D01*
X0167452Y0484967D01*
X0167549Y0484842D01*
X0167644Y0484715D01*
X0167735Y0484586D01*
X0167824Y0484455D01*
X0167908Y0484321D01*
X0167990Y0484185D01*
X0168068Y0484048D01*
X0168142Y0483908D01*
X0168213Y0483766D01*
X0168281Y0483623D01*
X0168345Y0483478D01*
X0168405Y0483332D01*
X0168461Y0483184D01*
X0168514Y0483035D01*
X0168563Y0482884D01*
X0168608Y0482732D01*
X0168649Y0482579D01*
X0168687Y0482426D01*
X0168720Y0482271D01*
X0168750Y0482115D01*
X0168776Y0481959D01*
X0168797Y0481802D01*
X0168815Y0481645D01*
X0168829Y0481487D01*
X0168839Y0481329D01*
X0168845Y0481171D01*
X0168847Y0481013D01*
X0168845Y0480855D01*
X0168839Y0480697D01*
X0168829Y0480539D01*
X0168815Y0480381D01*
X0168797Y0480224D01*
X0168776Y0480067D01*
X0168750Y0479911D01*
X0168720Y0479755D01*
X0168687Y0479600D01*
X0168649Y0479447D01*
X0168608Y0479294D01*
X0168563Y0479142D01*
X0168514Y0478991D01*
X0168461Y0478842D01*
X0168405Y0478694D01*
X0168345Y0478548D01*
X0168281Y0478403D01*
X0168213Y0478260D01*
X0168142Y0478118D01*
X0168068Y0477978D01*
X0167990Y0477841D01*
X0167908Y0477705D01*
X0167824Y0477571D01*
X0167735Y0477440D01*
X0167644Y0477311D01*
X0167549Y0477184D01*
X0167452Y0477059D01*
X0167351Y0476937D01*
X0167247Y0476818D01*
X0167140Y0476701D01*
X0167030Y0476587D01*
X0166917Y0476476D01*
X0166802Y0476367D01*
X0166684Y0476262D01*
X0166563Y0476160D01*
X0166440Y0476060D01*
X0166314Y0475964D01*
X0166186Y0475871D01*
X0166056Y0475781D01*
X0165923Y0475695D01*
X0165788Y0475611D01*
X0165652Y0475532D01*
X0165513Y0475455D01*
X0165372Y0475383D01*
X0165230Y0475313D01*
X0165086Y0475248D01*
X0164940Y0475186D01*
X0164793Y0475128D01*
X0164644Y0475073D01*
X0164494Y0475022D01*
X0164343Y0474975D01*
X0164191Y0474932D01*
X0164038Y0474893D01*
X0163883Y0474857D01*
X0163728Y0474826D01*
X0163572Y0474798D01*
X0163416Y0474774D01*
X0163259Y0474754D01*
X0163101Y0474738D01*
X0162944Y0474726D01*
X0162785Y0474718D01*
X0162627Y0474714D01*
X0162469Y0474714D01*
X0162311Y0474718D01*
X0162152Y0474726D01*
X0161995Y0474738D01*
X0161837Y0474754D01*
X0161680Y0474774D01*
X0161524Y0474798D01*
X0161368Y0474826D01*
X0161213Y0474857D01*
X0161058Y0474893D01*
X0160905Y0474932D01*
X0160753Y0474975D01*
X0160602Y0475022D01*
X0160452Y0475073D01*
X0160303Y0475128D01*
X0160156Y0475186D01*
X0160010Y0475248D01*
X0159866Y0475313D01*
X0159724Y0475383D01*
X0159583Y0475455D01*
X0159444Y0475532D01*
X0159308Y0475611D01*
X0159173Y0475695D01*
X0159040Y0475781D01*
X0158910Y0475871D01*
X0158782Y0475964D01*
X0158656Y0476060D01*
X0158533Y0476160D01*
X0158412Y0476262D01*
X0158294Y0476367D01*
X0158179Y0476476D01*
X0158066Y0476587D01*
X0157956Y0476701D01*
X0157849Y0476818D01*
X0157745Y0476937D01*
X0157644Y0477059D01*
X0157547Y0477184D01*
X0157452Y0477311D01*
X0157361Y0477440D01*
X0157272Y0477571D01*
X0157188Y0477705D01*
X0157106Y0477841D01*
X0157028Y0477978D01*
X0156954Y0478118D01*
X0156883Y0478260D01*
X0156815Y0478403D01*
X0156751Y0478548D01*
X0156691Y0478694D01*
X0156635Y0478842D01*
X0156582Y0478991D01*
X0156533Y0479142D01*
X0156488Y0479294D01*
X0156447Y0479447D01*
X0156409Y0479600D01*
X0156376Y0479755D01*
X0156346Y0479911D01*
X0156320Y0480067D01*
X0156299Y0480224D01*
X0156281Y0480381D01*
X0156267Y0480539D01*
X0156257Y0480697D01*
X0156251Y0480855D01*
X0156249Y0481013D01*
X0518454Y0481013D02*
X0518456Y0481171D01*
X0518462Y0481329D01*
X0518472Y0481487D01*
X0518486Y0481645D01*
X0518504Y0481802D01*
X0518525Y0481959D01*
X0518551Y0482115D01*
X0518581Y0482271D01*
X0518614Y0482426D01*
X0518652Y0482579D01*
X0518693Y0482732D01*
X0518738Y0482884D01*
X0518787Y0483035D01*
X0518840Y0483184D01*
X0518896Y0483332D01*
X0518956Y0483478D01*
X0519020Y0483623D01*
X0519088Y0483766D01*
X0519159Y0483908D01*
X0519233Y0484048D01*
X0519311Y0484185D01*
X0519393Y0484321D01*
X0519477Y0484455D01*
X0519566Y0484586D01*
X0519657Y0484715D01*
X0519752Y0484842D01*
X0519849Y0484967D01*
X0519950Y0485089D01*
X0520054Y0485208D01*
X0520161Y0485325D01*
X0520271Y0485439D01*
X0520384Y0485550D01*
X0520499Y0485659D01*
X0520617Y0485764D01*
X0520738Y0485866D01*
X0520861Y0485966D01*
X0520987Y0486062D01*
X0521115Y0486155D01*
X0521245Y0486245D01*
X0521378Y0486331D01*
X0521513Y0486415D01*
X0521649Y0486494D01*
X0521788Y0486571D01*
X0521929Y0486643D01*
X0522071Y0486713D01*
X0522215Y0486778D01*
X0522361Y0486840D01*
X0522508Y0486898D01*
X0522657Y0486953D01*
X0522807Y0487004D01*
X0522958Y0487051D01*
X0523110Y0487094D01*
X0523263Y0487133D01*
X0523418Y0487169D01*
X0523573Y0487200D01*
X0523729Y0487228D01*
X0523885Y0487252D01*
X0524042Y0487272D01*
X0524200Y0487288D01*
X0524357Y0487300D01*
X0524516Y0487308D01*
X0524674Y0487312D01*
X0524832Y0487312D01*
X0524990Y0487308D01*
X0525149Y0487300D01*
X0525306Y0487288D01*
X0525464Y0487272D01*
X0525621Y0487252D01*
X0525777Y0487228D01*
X0525933Y0487200D01*
X0526088Y0487169D01*
X0526243Y0487133D01*
X0526396Y0487094D01*
X0526548Y0487051D01*
X0526699Y0487004D01*
X0526849Y0486953D01*
X0526998Y0486898D01*
X0527145Y0486840D01*
X0527291Y0486778D01*
X0527435Y0486713D01*
X0527577Y0486643D01*
X0527718Y0486571D01*
X0527857Y0486494D01*
X0527993Y0486415D01*
X0528128Y0486331D01*
X0528261Y0486245D01*
X0528391Y0486155D01*
X0528519Y0486062D01*
X0528645Y0485966D01*
X0528768Y0485866D01*
X0528889Y0485764D01*
X0529007Y0485659D01*
X0529122Y0485550D01*
X0529235Y0485439D01*
X0529345Y0485325D01*
X0529452Y0485208D01*
X0529556Y0485089D01*
X0529657Y0484967D01*
X0529754Y0484842D01*
X0529849Y0484715D01*
X0529940Y0484586D01*
X0530029Y0484455D01*
X0530113Y0484321D01*
X0530195Y0484185D01*
X0530273Y0484048D01*
X0530347Y0483908D01*
X0530418Y0483766D01*
X0530486Y0483623D01*
X0530550Y0483478D01*
X0530610Y0483332D01*
X0530666Y0483184D01*
X0530719Y0483035D01*
X0530768Y0482884D01*
X0530813Y0482732D01*
X0530854Y0482579D01*
X0530892Y0482426D01*
X0530925Y0482271D01*
X0530955Y0482115D01*
X0530981Y0481959D01*
X0531002Y0481802D01*
X0531020Y0481645D01*
X0531034Y0481487D01*
X0531044Y0481329D01*
X0531050Y0481171D01*
X0531052Y0481013D01*
X0531050Y0480855D01*
X0531044Y0480697D01*
X0531034Y0480539D01*
X0531020Y0480381D01*
X0531002Y0480224D01*
X0530981Y0480067D01*
X0530955Y0479911D01*
X0530925Y0479755D01*
X0530892Y0479600D01*
X0530854Y0479447D01*
X0530813Y0479294D01*
X0530768Y0479142D01*
X0530719Y0478991D01*
X0530666Y0478842D01*
X0530610Y0478694D01*
X0530550Y0478548D01*
X0530486Y0478403D01*
X0530418Y0478260D01*
X0530347Y0478118D01*
X0530273Y0477978D01*
X0530195Y0477841D01*
X0530113Y0477705D01*
X0530029Y0477571D01*
X0529940Y0477440D01*
X0529849Y0477311D01*
X0529754Y0477184D01*
X0529657Y0477059D01*
X0529556Y0476937D01*
X0529452Y0476818D01*
X0529345Y0476701D01*
X0529235Y0476587D01*
X0529122Y0476476D01*
X0529007Y0476367D01*
X0528889Y0476262D01*
X0528768Y0476160D01*
X0528645Y0476060D01*
X0528519Y0475964D01*
X0528391Y0475871D01*
X0528261Y0475781D01*
X0528128Y0475695D01*
X0527993Y0475611D01*
X0527857Y0475532D01*
X0527718Y0475455D01*
X0527577Y0475383D01*
X0527435Y0475313D01*
X0527291Y0475248D01*
X0527145Y0475186D01*
X0526998Y0475128D01*
X0526849Y0475073D01*
X0526699Y0475022D01*
X0526548Y0474975D01*
X0526396Y0474932D01*
X0526243Y0474893D01*
X0526088Y0474857D01*
X0525933Y0474826D01*
X0525777Y0474798D01*
X0525621Y0474774D01*
X0525464Y0474754D01*
X0525306Y0474738D01*
X0525149Y0474726D01*
X0524990Y0474718D01*
X0524832Y0474714D01*
X0524674Y0474714D01*
X0524516Y0474718D01*
X0524357Y0474726D01*
X0524200Y0474738D01*
X0524042Y0474754D01*
X0523885Y0474774D01*
X0523729Y0474798D01*
X0523573Y0474826D01*
X0523418Y0474857D01*
X0523263Y0474893D01*
X0523110Y0474932D01*
X0522958Y0474975D01*
X0522807Y0475022D01*
X0522657Y0475073D01*
X0522508Y0475128D01*
X0522361Y0475186D01*
X0522215Y0475248D01*
X0522071Y0475313D01*
X0521929Y0475383D01*
X0521788Y0475455D01*
X0521649Y0475532D01*
X0521513Y0475611D01*
X0521378Y0475695D01*
X0521245Y0475781D01*
X0521115Y0475871D01*
X0520987Y0475964D01*
X0520861Y0476060D01*
X0520738Y0476160D01*
X0520617Y0476262D01*
X0520499Y0476367D01*
X0520384Y0476476D01*
X0520271Y0476587D01*
X0520161Y0476701D01*
X0520054Y0476818D01*
X0519950Y0476937D01*
X0519849Y0477059D01*
X0519752Y0477184D01*
X0519657Y0477311D01*
X0519566Y0477440D01*
X0519477Y0477571D01*
X0519393Y0477705D01*
X0519311Y0477841D01*
X0519233Y0477978D01*
X0519159Y0478118D01*
X0519088Y0478260D01*
X0519020Y0478403D01*
X0518956Y0478548D01*
X0518896Y0478694D01*
X0518840Y0478842D01*
X0518787Y0478991D01*
X0518738Y0479142D01*
X0518693Y0479294D01*
X0518652Y0479447D01*
X0518614Y0479600D01*
X0518581Y0479755D01*
X0518551Y0479911D01*
X0518525Y0480067D01*
X0518504Y0480224D01*
X0518486Y0480381D01*
X0518472Y0480539D01*
X0518462Y0480697D01*
X0518456Y0480855D01*
X0518454Y0481013D01*
X0518454Y0197548D02*
X0518456Y0197706D01*
X0518462Y0197864D01*
X0518472Y0198022D01*
X0518486Y0198180D01*
X0518504Y0198337D01*
X0518525Y0198494D01*
X0518551Y0198650D01*
X0518581Y0198806D01*
X0518614Y0198961D01*
X0518652Y0199114D01*
X0518693Y0199267D01*
X0518738Y0199419D01*
X0518787Y0199570D01*
X0518840Y0199719D01*
X0518896Y0199867D01*
X0518956Y0200013D01*
X0519020Y0200158D01*
X0519088Y0200301D01*
X0519159Y0200443D01*
X0519233Y0200583D01*
X0519311Y0200720D01*
X0519393Y0200856D01*
X0519477Y0200990D01*
X0519566Y0201121D01*
X0519657Y0201250D01*
X0519752Y0201377D01*
X0519849Y0201502D01*
X0519950Y0201624D01*
X0520054Y0201743D01*
X0520161Y0201860D01*
X0520271Y0201974D01*
X0520384Y0202085D01*
X0520499Y0202194D01*
X0520617Y0202299D01*
X0520738Y0202401D01*
X0520861Y0202501D01*
X0520987Y0202597D01*
X0521115Y0202690D01*
X0521245Y0202780D01*
X0521378Y0202866D01*
X0521513Y0202950D01*
X0521649Y0203029D01*
X0521788Y0203106D01*
X0521929Y0203178D01*
X0522071Y0203248D01*
X0522215Y0203313D01*
X0522361Y0203375D01*
X0522508Y0203433D01*
X0522657Y0203488D01*
X0522807Y0203539D01*
X0522958Y0203586D01*
X0523110Y0203629D01*
X0523263Y0203668D01*
X0523418Y0203704D01*
X0523573Y0203735D01*
X0523729Y0203763D01*
X0523885Y0203787D01*
X0524042Y0203807D01*
X0524200Y0203823D01*
X0524357Y0203835D01*
X0524516Y0203843D01*
X0524674Y0203847D01*
X0524832Y0203847D01*
X0524990Y0203843D01*
X0525149Y0203835D01*
X0525306Y0203823D01*
X0525464Y0203807D01*
X0525621Y0203787D01*
X0525777Y0203763D01*
X0525933Y0203735D01*
X0526088Y0203704D01*
X0526243Y0203668D01*
X0526396Y0203629D01*
X0526548Y0203586D01*
X0526699Y0203539D01*
X0526849Y0203488D01*
X0526998Y0203433D01*
X0527145Y0203375D01*
X0527291Y0203313D01*
X0527435Y0203248D01*
X0527577Y0203178D01*
X0527718Y0203106D01*
X0527857Y0203029D01*
X0527993Y0202950D01*
X0528128Y0202866D01*
X0528261Y0202780D01*
X0528391Y0202690D01*
X0528519Y0202597D01*
X0528645Y0202501D01*
X0528768Y0202401D01*
X0528889Y0202299D01*
X0529007Y0202194D01*
X0529122Y0202085D01*
X0529235Y0201974D01*
X0529345Y0201860D01*
X0529452Y0201743D01*
X0529556Y0201624D01*
X0529657Y0201502D01*
X0529754Y0201377D01*
X0529849Y0201250D01*
X0529940Y0201121D01*
X0530029Y0200990D01*
X0530113Y0200856D01*
X0530195Y0200720D01*
X0530273Y0200583D01*
X0530347Y0200443D01*
X0530418Y0200301D01*
X0530486Y0200158D01*
X0530550Y0200013D01*
X0530610Y0199867D01*
X0530666Y0199719D01*
X0530719Y0199570D01*
X0530768Y0199419D01*
X0530813Y0199267D01*
X0530854Y0199114D01*
X0530892Y0198961D01*
X0530925Y0198806D01*
X0530955Y0198650D01*
X0530981Y0198494D01*
X0531002Y0198337D01*
X0531020Y0198180D01*
X0531034Y0198022D01*
X0531044Y0197864D01*
X0531050Y0197706D01*
X0531052Y0197548D01*
X0531050Y0197390D01*
X0531044Y0197232D01*
X0531034Y0197074D01*
X0531020Y0196916D01*
X0531002Y0196759D01*
X0530981Y0196602D01*
X0530955Y0196446D01*
X0530925Y0196290D01*
X0530892Y0196135D01*
X0530854Y0195982D01*
X0530813Y0195829D01*
X0530768Y0195677D01*
X0530719Y0195526D01*
X0530666Y0195377D01*
X0530610Y0195229D01*
X0530550Y0195083D01*
X0530486Y0194938D01*
X0530418Y0194795D01*
X0530347Y0194653D01*
X0530273Y0194513D01*
X0530195Y0194376D01*
X0530113Y0194240D01*
X0530029Y0194106D01*
X0529940Y0193975D01*
X0529849Y0193846D01*
X0529754Y0193719D01*
X0529657Y0193594D01*
X0529556Y0193472D01*
X0529452Y0193353D01*
X0529345Y0193236D01*
X0529235Y0193122D01*
X0529122Y0193011D01*
X0529007Y0192902D01*
X0528889Y0192797D01*
X0528768Y0192695D01*
X0528645Y0192595D01*
X0528519Y0192499D01*
X0528391Y0192406D01*
X0528261Y0192316D01*
X0528128Y0192230D01*
X0527993Y0192146D01*
X0527857Y0192067D01*
X0527718Y0191990D01*
X0527577Y0191918D01*
X0527435Y0191848D01*
X0527291Y0191783D01*
X0527145Y0191721D01*
X0526998Y0191663D01*
X0526849Y0191608D01*
X0526699Y0191557D01*
X0526548Y0191510D01*
X0526396Y0191467D01*
X0526243Y0191428D01*
X0526088Y0191392D01*
X0525933Y0191361D01*
X0525777Y0191333D01*
X0525621Y0191309D01*
X0525464Y0191289D01*
X0525306Y0191273D01*
X0525149Y0191261D01*
X0524990Y0191253D01*
X0524832Y0191249D01*
X0524674Y0191249D01*
X0524516Y0191253D01*
X0524357Y0191261D01*
X0524200Y0191273D01*
X0524042Y0191289D01*
X0523885Y0191309D01*
X0523729Y0191333D01*
X0523573Y0191361D01*
X0523418Y0191392D01*
X0523263Y0191428D01*
X0523110Y0191467D01*
X0522958Y0191510D01*
X0522807Y0191557D01*
X0522657Y0191608D01*
X0522508Y0191663D01*
X0522361Y0191721D01*
X0522215Y0191783D01*
X0522071Y0191848D01*
X0521929Y0191918D01*
X0521788Y0191990D01*
X0521649Y0192067D01*
X0521513Y0192146D01*
X0521378Y0192230D01*
X0521245Y0192316D01*
X0521115Y0192406D01*
X0520987Y0192499D01*
X0520861Y0192595D01*
X0520738Y0192695D01*
X0520617Y0192797D01*
X0520499Y0192902D01*
X0520384Y0193011D01*
X0520271Y0193122D01*
X0520161Y0193236D01*
X0520054Y0193353D01*
X0519950Y0193472D01*
X0519849Y0193594D01*
X0519752Y0193719D01*
X0519657Y0193846D01*
X0519566Y0193975D01*
X0519477Y0194106D01*
X0519393Y0194240D01*
X0519311Y0194376D01*
X0519233Y0194513D01*
X0519159Y0194653D01*
X0519088Y0194795D01*
X0519020Y0194938D01*
X0518956Y0195083D01*
X0518896Y0195229D01*
X0518840Y0195377D01*
X0518787Y0195526D01*
X0518738Y0195677D01*
X0518693Y0195829D01*
X0518652Y0195982D01*
X0518614Y0196135D01*
X0518581Y0196290D01*
X0518551Y0196446D01*
X0518525Y0196602D01*
X0518504Y0196759D01*
X0518486Y0196916D01*
X0518472Y0197074D01*
X0518462Y0197232D01*
X0518456Y0197390D01*
X0518454Y0197548D01*
D11*
X0520540Y0341800D03*
X0513060Y0341800D03*
X0363040Y0373050D03*
X0355560Y0373050D03*
X0355560Y0381800D03*
X0363040Y0381800D03*
D12*
X0397204Y0350550D03*
X0403896Y0350550D03*
X0403896Y0328050D03*
X0403896Y0321800D03*
X0403896Y0315550D03*
X0397204Y0315550D03*
X0397204Y0321800D03*
X0397204Y0328050D03*
X0397204Y0293050D03*
X0397204Y0286800D03*
X0397204Y0280550D03*
X0403896Y0280550D03*
X0403896Y0286800D03*
X0403896Y0293050D03*
X0485954Y0223675D03*
X0492646Y0223675D03*
X0513454Y0303050D03*
X0520146Y0303050D03*
X0520146Y0323050D03*
X0513454Y0323050D03*
X0513454Y0349925D03*
X0520146Y0349925D03*
X0475146Y0401800D03*
X0475146Y0408050D03*
X0475146Y0414300D03*
X0475146Y0420550D03*
X0475146Y0426800D03*
X0475146Y0433050D03*
X0475146Y0439300D03*
X0468454Y0439300D03*
X0468454Y0433050D03*
X0468454Y0426800D03*
X0468454Y0420550D03*
X0468454Y0414300D03*
X0468454Y0408050D03*
X0468454Y0401800D03*
X0498454Y0454300D03*
X0505146Y0454300D03*
X0286396Y0354300D03*
X0279704Y0354300D03*
X0279704Y0344300D03*
X0286396Y0344300D03*
X0286396Y0334300D03*
X0279704Y0334300D03*
X0279704Y0324300D03*
X0286396Y0324300D03*
X0286396Y0314300D03*
X0279704Y0314300D03*
X0279704Y0304300D03*
X0286396Y0304300D03*
X0286396Y0294300D03*
X0279704Y0294300D03*
X0279704Y0285550D03*
X0286396Y0285550D03*
X0286396Y0278050D03*
X0279704Y0278050D03*
X0261396Y0289300D03*
X0254704Y0289300D03*
X0217646Y0275550D03*
X0210954Y0275550D03*
X0210954Y0253050D03*
X0217646Y0253050D03*
X0252204Y0238050D03*
X0258896Y0238050D03*
X0279704Y0249300D03*
X0279704Y0255550D03*
X0286396Y0255550D03*
X0286396Y0249300D03*
X0191396Y0223050D03*
X0184704Y0223050D03*
X0184704Y0215550D03*
X0191396Y0215550D03*
D13*
X0209300Y0212646D03*
X0209300Y0205954D03*
X0216800Y0205954D03*
X0216800Y0212646D03*
X0228050Y0258454D03*
X0228050Y0265146D03*
X0240550Y0325954D03*
X0240550Y0332646D03*
X0250550Y0332646D03*
X0250550Y0325954D03*
X0260550Y0325954D03*
X0260550Y0332646D03*
X0310550Y0268896D03*
X0310550Y0262204D03*
X0318050Y0262204D03*
X0318050Y0268896D03*
X0311800Y0212646D03*
X0311800Y0205954D03*
X0304300Y0205954D03*
X0304300Y0212646D03*
X0399300Y0212646D03*
X0399300Y0205954D03*
X0406800Y0205954D03*
X0406800Y0212646D03*
X0433050Y0255329D03*
X0433050Y0262021D03*
X0454300Y0262021D03*
X0454300Y0255329D03*
X0474300Y0255329D03*
X0474300Y0262021D03*
X0493675Y0262021D03*
X0493675Y0255329D03*
X0469925Y0369704D03*
X0469925Y0376396D03*
X0450550Y0376396D03*
X0450550Y0369704D03*
X0436800Y0369704D03*
X0430550Y0369704D03*
X0424300Y0369704D03*
X0424300Y0376396D03*
X0430550Y0376396D03*
X0436800Y0376396D03*
X0469300Y0465954D03*
X0469300Y0472646D03*
X0476800Y0472646D03*
X0476800Y0465954D03*
X0384300Y0465954D03*
X0384300Y0472646D03*
X0376800Y0472646D03*
X0376800Y0465954D03*
X0289300Y0465954D03*
X0289300Y0472646D03*
X0281800Y0472646D03*
X0281800Y0465954D03*
D14*
X0318050Y0463040D03*
X0318050Y0455560D03*
X0413050Y0455560D03*
X0413050Y0463040D03*
X0224300Y0463040D03*
X0224300Y0455560D03*
X0204300Y0371790D03*
X0204300Y0364310D03*
X0166800Y0364310D03*
X0166800Y0371790D03*
X0158050Y0371790D03*
X0158050Y0364310D03*
X0274300Y0223040D03*
X0274300Y0215560D03*
X0369300Y0215560D03*
X0369300Y0223040D03*
X0463050Y0223040D03*
X0463050Y0215560D03*
X0485550Y0254935D03*
X0485550Y0262415D03*
D15*
X0166593Y0274300D03*
X0159507Y0274300D03*
D16*
X0414170Y0280538D02*
X0420336Y0280538D01*
X0414170Y0280538D02*
X0414170Y0281664D01*
X0420336Y0281664D01*
X0420336Y0280538D01*
X0420336Y0280913D02*
X0414170Y0280913D01*
X0414170Y0281288D02*
X0420336Y0281288D01*
X0420336Y0281663D02*
X0414170Y0281663D01*
X0414170Y0282507D02*
X0420336Y0282507D01*
X0414170Y0282507D02*
X0414170Y0283633D01*
X0420336Y0283633D01*
X0420336Y0282507D01*
X0420336Y0282882D02*
X0414170Y0282882D01*
X0414170Y0283257D02*
X0420336Y0283257D01*
X0420336Y0283632D02*
X0414170Y0283632D01*
X0414170Y0284475D02*
X0420336Y0284475D01*
X0414170Y0284475D02*
X0414170Y0285601D01*
X0420336Y0285601D01*
X0420336Y0284475D01*
X0420336Y0284850D02*
X0414170Y0284850D01*
X0414170Y0285225D02*
X0420336Y0285225D01*
X0420336Y0285600D02*
X0414170Y0285600D01*
X0414170Y0286444D02*
X0420336Y0286444D01*
X0414170Y0286444D02*
X0414170Y0287570D01*
X0420336Y0287570D01*
X0420336Y0286444D01*
X0420336Y0286819D02*
X0414170Y0286819D01*
X0414170Y0287194D02*
X0420336Y0287194D01*
X0420336Y0287569D02*
X0414170Y0287569D01*
X0414170Y0288412D02*
X0420336Y0288412D01*
X0414170Y0288412D02*
X0414170Y0289538D01*
X0420336Y0289538D01*
X0420336Y0288412D01*
X0420336Y0288787D02*
X0414170Y0288787D01*
X0414170Y0289162D02*
X0420336Y0289162D01*
X0420336Y0289537D02*
X0414170Y0289537D01*
X0414170Y0290381D02*
X0420336Y0290381D01*
X0414170Y0290381D02*
X0414170Y0291507D01*
X0420336Y0291507D01*
X0420336Y0290381D01*
X0420336Y0290756D02*
X0414170Y0290756D01*
X0414170Y0291131D02*
X0420336Y0291131D01*
X0420336Y0291506D02*
X0414170Y0291506D01*
X0414170Y0292349D02*
X0420336Y0292349D01*
X0414170Y0292349D02*
X0414170Y0293475D01*
X0420336Y0293475D01*
X0420336Y0292349D01*
X0420336Y0292724D02*
X0414170Y0292724D01*
X0414170Y0293099D02*
X0420336Y0293099D01*
X0420336Y0293474D02*
X0414170Y0293474D01*
X0414170Y0294318D02*
X0420336Y0294318D01*
X0414170Y0294318D02*
X0414170Y0295444D01*
X0420336Y0295444D01*
X0420336Y0294318D01*
X0420336Y0294693D02*
X0414170Y0294693D01*
X0414170Y0295068D02*
X0420336Y0295068D01*
X0420336Y0295443D02*
X0414170Y0295443D01*
X0414170Y0296286D02*
X0420336Y0296286D01*
X0414170Y0296286D02*
X0414170Y0297412D01*
X0420336Y0297412D01*
X0420336Y0296286D01*
X0420336Y0296661D02*
X0414170Y0296661D01*
X0414170Y0297036D02*
X0420336Y0297036D01*
X0420336Y0297411D02*
X0414170Y0297411D01*
X0414170Y0298255D02*
X0420336Y0298255D01*
X0414170Y0298255D02*
X0414170Y0299381D01*
X0420336Y0299381D01*
X0420336Y0298255D01*
X0420336Y0298630D02*
X0414170Y0298630D01*
X0414170Y0299005D02*
X0420336Y0299005D01*
X0420336Y0299380D02*
X0414170Y0299380D01*
X0414170Y0300223D02*
X0420336Y0300223D01*
X0414170Y0300223D02*
X0414170Y0301349D01*
X0420336Y0301349D01*
X0420336Y0300223D01*
X0420336Y0300598D02*
X0414170Y0300598D01*
X0414170Y0300973D02*
X0420336Y0300973D01*
X0420336Y0301348D02*
X0414170Y0301348D01*
X0414170Y0302192D02*
X0420336Y0302192D01*
X0414170Y0302192D02*
X0414170Y0303318D01*
X0420336Y0303318D01*
X0420336Y0302192D01*
X0420336Y0302567D02*
X0414170Y0302567D01*
X0414170Y0302942D02*
X0420336Y0302942D01*
X0420336Y0303317D02*
X0414170Y0303317D01*
X0414170Y0304160D02*
X0420336Y0304160D01*
X0414170Y0304160D02*
X0414170Y0305286D01*
X0420336Y0305286D01*
X0420336Y0304160D01*
X0420336Y0304535D02*
X0414170Y0304535D01*
X0414170Y0304910D02*
X0420336Y0304910D01*
X0420336Y0305285D02*
X0414170Y0305285D01*
X0414170Y0306129D02*
X0420336Y0306129D01*
X0414170Y0306129D02*
X0414170Y0307255D01*
X0420336Y0307255D01*
X0420336Y0306129D01*
X0420336Y0306504D02*
X0414170Y0306504D01*
X0414170Y0306879D02*
X0420336Y0306879D01*
X0420336Y0307254D02*
X0414170Y0307254D01*
X0414170Y0308097D02*
X0420336Y0308097D01*
X0414170Y0308097D02*
X0414170Y0309223D01*
X0420336Y0309223D01*
X0420336Y0308097D01*
X0420336Y0308472D02*
X0414170Y0308472D01*
X0414170Y0308847D02*
X0420336Y0308847D01*
X0420336Y0309222D02*
X0414170Y0309222D01*
X0414170Y0310066D02*
X0420336Y0310066D01*
X0414170Y0310066D02*
X0414170Y0311192D01*
X0420336Y0311192D01*
X0420336Y0310066D01*
X0420336Y0310441D02*
X0414170Y0310441D01*
X0414170Y0310816D02*
X0420336Y0310816D01*
X0420336Y0311191D02*
X0414170Y0311191D01*
X0414170Y0312034D02*
X0420336Y0312034D01*
X0414170Y0312034D02*
X0414170Y0313160D01*
X0420336Y0313160D01*
X0420336Y0312034D01*
X0420336Y0312409D02*
X0414170Y0312409D01*
X0414170Y0312784D02*
X0420336Y0312784D01*
X0420336Y0313159D02*
X0414170Y0313159D01*
X0414170Y0314003D02*
X0420336Y0314003D01*
X0414170Y0314003D02*
X0414170Y0315129D01*
X0420336Y0315129D01*
X0420336Y0314003D01*
X0420336Y0314378D02*
X0414170Y0314378D01*
X0414170Y0314753D02*
X0420336Y0314753D01*
X0420336Y0315128D02*
X0414170Y0315128D01*
X0414170Y0315971D02*
X0420336Y0315971D01*
X0414170Y0315971D02*
X0414170Y0317097D01*
X0420336Y0317097D01*
X0420336Y0315971D01*
X0420336Y0316346D02*
X0414170Y0316346D01*
X0414170Y0316721D02*
X0420336Y0316721D01*
X0420336Y0317096D02*
X0414170Y0317096D01*
X0414170Y0317940D02*
X0420336Y0317940D01*
X0414170Y0317940D02*
X0414170Y0319066D01*
X0420336Y0319066D01*
X0420336Y0317940D01*
X0420336Y0318315D02*
X0414170Y0318315D01*
X0414170Y0318690D02*
X0420336Y0318690D01*
X0420336Y0319065D02*
X0414170Y0319065D01*
X0414170Y0319908D02*
X0420336Y0319908D01*
X0414170Y0319908D02*
X0414170Y0321034D01*
X0420336Y0321034D01*
X0420336Y0319908D01*
X0420336Y0320283D02*
X0414170Y0320283D01*
X0414170Y0320658D02*
X0420336Y0320658D01*
X0420336Y0321033D02*
X0414170Y0321033D01*
X0414170Y0321877D02*
X0420336Y0321877D01*
X0414170Y0321877D02*
X0414170Y0323003D01*
X0420336Y0323003D01*
X0420336Y0321877D01*
X0420336Y0322252D02*
X0414170Y0322252D01*
X0414170Y0322627D02*
X0420336Y0322627D01*
X0420336Y0323002D02*
X0414170Y0323002D01*
X0414170Y0323845D02*
X0420336Y0323845D01*
X0414170Y0323845D02*
X0414170Y0324971D01*
X0420336Y0324971D01*
X0420336Y0323845D01*
X0420336Y0324220D02*
X0414170Y0324220D01*
X0414170Y0324595D02*
X0420336Y0324595D01*
X0420336Y0324970D02*
X0414170Y0324970D01*
X0414170Y0325814D02*
X0420336Y0325814D01*
X0414170Y0325814D02*
X0414170Y0326940D01*
X0420336Y0326940D01*
X0420336Y0325814D01*
X0420336Y0326189D02*
X0414170Y0326189D01*
X0414170Y0326564D02*
X0420336Y0326564D01*
X0420336Y0326939D02*
X0414170Y0326939D01*
X0414170Y0327782D02*
X0420336Y0327782D01*
X0414170Y0327782D02*
X0414170Y0328908D01*
X0420336Y0328908D01*
X0420336Y0327782D01*
X0420336Y0328157D02*
X0414170Y0328157D01*
X0414170Y0328532D02*
X0420336Y0328532D01*
X0420336Y0328907D02*
X0414170Y0328907D01*
X0414170Y0329751D02*
X0420336Y0329751D01*
X0414170Y0329751D02*
X0414170Y0330877D01*
X0420336Y0330877D01*
X0420336Y0329751D01*
X0420336Y0330126D02*
X0414170Y0330126D01*
X0414170Y0330501D02*
X0420336Y0330501D01*
X0420336Y0330876D02*
X0414170Y0330876D01*
X0414170Y0331719D02*
X0420336Y0331719D01*
X0414170Y0331719D02*
X0414170Y0332845D01*
X0420336Y0332845D01*
X0420336Y0331719D01*
X0420336Y0332094D02*
X0414170Y0332094D01*
X0414170Y0332469D02*
X0420336Y0332469D01*
X0420336Y0332844D02*
X0414170Y0332844D01*
X0414170Y0333688D02*
X0420336Y0333688D01*
X0414170Y0333688D02*
X0414170Y0334814D01*
X0420336Y0334814D01*
X0420336Y0333688D01*
X0420336Y0334063D02*
X0414170Y0334063D01*
X0414170Y0334438D02*
X0420336Y0334438D01*
X0420336Y0334813D02*
X0414170Y0334813D01*
X0414170Y0335656D02*
X0420336Y0335656D01*
X0414170Y0335656D02*
X0414170Y0336782D01*
X0420336Y0336782D01*
X0420336Y0335656D01*
X0420336Y0336031D02*
X0414170Y0336031D01*
X0414170Y0336406D02*
X0420336Y0336406D01*
X0420336Y0336781D02*
X0414170Y0336781D01*
X0414170Y0337625D02*
X0420336Y0337625D01*
X0414170Y0337625D02*
X0414170Y0338751D01*
X0420336Y0338751D01*
X0420336Y0337625D01*
X0420336Y0338000D02*
X0414170Y0338000D01*
X0414170Y0338375D02*
X0420336Y0338375D01*
X0420336Y0338750D02*
X0414170Y0338750D01*
X0414170Y0339593D02*
X0420336Y0339593D01*
X0414170Y0339593D02*
X0414170Y0340719D01*
X0420336Y0340719D01*
X0420336Y0339593D01*
X0420336Y0339968D02*
X0414170Y0339968D01*
X0414170Y0340343D02*
X0420336Y0340343D01*
X0420336Y0340718D02*
X0414170Y0340718D01*
X0414170Y0341562D02*
X0420336Y0341562D01*
X0414170Y0341562D02*
X0414170Y0342688D01*
X0420336Y0342688D01*
X0420336Y0341562D01*
X0420336Y0341937D02*
X0414170Y0341937D01*
X0414170Y0342312D02*
X0420336Y0342312D01*
X0420336Y0342687D02*
X0414170Y0342687D01*
X0414170Y0343530D02*
X0420336Y0343530D01*
X0414170Y0343530D02*
X0414170Y0344656D01*
X0420336Y0344656D01*
X0420336Y0343530D01*
X0420336Y0343905D02*
X0414170Y0343905D01*
X0414170Y0344280D02*
X0420336Y0344280D01*
X0420336Y0344655D02*
X0414170Y0344655D01*
X0414170Y0345499D02*
X0420336Y0345499D01*
X0414170Y0345499D02*
X0414170Y0346625D01*
X0420336Y0346625D01*
X0420336Y0345499D01*
X0420336Y0345874D02*
X0414170Y0345874D01*
X0414170Y0346249D02*
X0420336Y0346249D01*
X0420336Y0346624D02*
X0414170Y0346624D01*
X0414170Y0347467D02*
X0420336Y0347467D01*
X0414170Y0347467D02*
X0414170Y0348593D01*
X0420336Y0348593D01*
X0420336Y0347467D01*
X0420336Y0347842D02*
X0414170Y0347842D01*
X0414170Y0348217D02*
X0420336Y0348217D01*
X0420336Y0348592D02*
X0414170Y0348592D01*
X0414170Y0349436D02*
X0420336Y0349436D01*
X0414170Y0349436D02*
X0414170Y0350562D01*
X0420336Y0350562D01*
X0420336Y0349436D01*
X0420336Y0349811D02*
X0414170Y0349811D01*
X0414170Y0350186D02*
X0420336Y0350186D01*
X0420336Y0350561D02*
X0414170Y0350561D01*
X0425414Y0354514D02*
X0425414Y0360680D01*
X0425414Y0354514D02*
X0424288Y0354514D01*
X0424288Y0360680D01*
X0425414Y0360680D01*
X0425414Y0354889D02*
X0424288Y0354889D01*
X0424288Y0355264D02*
X0425414Y0355264D01*
X0425414Y0355639D02*
X0424288Y0355639D01*
X0424288Y0356014D02*
X0425414Y0356014D01*
X0425414Y0356389D02*
X0424288Y0356389D01*
X0424288Y0356764D02*
X0425414Y0356764D01*
X0425414Y0357139D02*
X0424288Y0357139D01*
X0424288Y0357514D02*
X0425414Y0357514D01*
X0425414Y0357889D02*
X0424288Y0357889D01*
X0424288Y0358264D02*
X0425414Y0358264D01*
X0425414Y0358639D02*
X0424288Y0358639D01*
X0424288Y0359014D02*
X0425414Y0359014D01*
X0425414Y0359389D02*
X0424288Y0359389D01*
X0424288Y0359764D02*
X0425414Y0359764D01*
X0425414Y0360139D02*
X0424288Y0360139D01*
X0424288Y0360514D02*
X0425414Y0360514D01*
X0427383Y0360680D02*
X0427383Y0354514D01*
X0426257Y0354514D01*
X0426257Y0360680D01*
X0427383Y0360680D01*
X0427383Y0354889D02*
X0426257Y0354889D01*
X0426257Y0355264D02*
X0427383Y0355264D01*
X0427383Y0355639D02*
X0426257Y0355639D01*
X0426257Y0356014D02*
X0427383Y0356014D01*
X0427383Y0356389D02*
X0426257Y0356389D01*
X0426257Y0356764D02*
X0427383Y0356764D01*
X0427383Y0357139D02*
X0426257Y0357139D01*
X0426257Y0357514D02*
X0427383Y0357514D01*
X0427383Y0357889D02*
X0426257Y0357889D01*
X0426257Y0358264D02*
X0427383Y0358264D01*
X0427383Y0358639D02*
X0426257Y0358639D01*
X0426257Y0359014D02*
X0427383Y0359014D01*
X0427383Y0359389D02*
X0426257Y0359389D01*
X0426257Y0359764D02*
X0427383Y0359764D01*
X0427383Y0360139D02*
X0426257Y0360139D01*
X0426257Y0360514D02*
X0427383Y0360514D01*
X0429351Y0360680D02*
X0429351Y0354514D01*
X0428225Y0354514D01*
X0428225Y0360680D01*
X0429351Y0360680D01*
X0429351Y0354889D02*
X0428225Y0354889D01*
X0428225Y0355264D02*
X0429351Y0355264D01*
X0429351Y0355639D02*
X0428225Y0355639D01*
X0428225Y0356014D02*
X0429351Y0356014D01*
X0429351Y0356389D02*
X0428225Y0356389D01*
X0428225Y0356764D02*
X0429351Y0356764D01*
X0429351Y0357139D02*
X0428225Y0357139D01*
X0428225Y0357514D02*
X0429351Y0357514D01*
X0429351Y0357889D02*
X0428225Y0357889D01*
X0428225Y0358264D02*
X0429351Y0358264D01*
X0429351Y0358639D02*
X0428225Y0358639D01*
X0428225Y0359014D02*
X0429351Y0359014D01*
X0429351Y0359389D02*
X0428225Y0359389D01*
X0428225Y0359764D02*
X0429351Y0359764D01*
X0429351Y0360139D02*
X0428225Y0360139D01*
X0428225Y0360514D02*
X0429351Y0360514D01*
X0431320Y0360680D02*
X0431320Y0354514D01*
X0430194Y0354514D01*
X0430194Y0360680D01*
X0431320Y0360680D01*
X0431320Y0354889D02*
X0430194Y0354889D01*
X0430194Y0355264D02*
X0431320Y0355264D01*
X0431320Y0355639D02*
X0430194Y0355639D01*
X0430194Y0356014D02*
X0431320Y0356014D01*
X0431320Y0356389D02*
X0430194Y0356389D01*
X0430194Y0356764D02*
X0431320Y0356764D01*
X0431320Y0357139D02*
X0430194Y0357139D01*
X0430194Y0357514D02*
X0431320Y0357514D01*
X0431320Y0357889D02*
X0430194Y0357889D01*
X0430194Y0358264D02*
X0431320Y0358264D01*
X0431320Y0358639D02*
X0430194Y0358639D01*
X0430194Y0359014D02*
X0431320Y0359014D01*
X0431320Y0359389D02*
X0430194Y0359389D01*
X0430194Y0359764D02*
X0431320Y0359764D01*
X0431320Y0360139D02*
X0430194Y0360139D01*
X0430194Y0360514D02*
X0431320Y0360514D01*
X0433288Y0360680D02*
X0433288Y0354514D01*
X0432162Y0354514D01*
X0432162Y0360680D01*
X0433288Y0360680D01*
X0433288Y0354889D02*
X0432162Y0354889D01*
X0432162Y0355264D02*
X0433288Y0355264D01*
X0433288Y0355639D02*
X0432162Y0355639D01*
X0432162Y0356014D02*
X0433288Y0356014D01*
X0433288Y0356389D02*
X0432162Y0356389D01*
X0432162Y0356764D02*
X0433288Y0356764D01*
X0433288Y0357139D02*
X0432162Y0357139D01*
X0432162Y0357514D02*
X0433288Y0357514D01*
X0433288Y0357889D02*
X0432162Y0357889D01*
X0432162Y0358264D02*
X0433288Y0358264D01*
X0433288Y0358639D02*
X0432162Y0358639D01*
X0432162Y0359014D02*
X0433288Y0359014D01*
X0433288Y0359389D02*
X0432162Y0359389D01*
X0432162Y0359764D02*
X0433288Y0359764D01*
X0433288Y0360139D02*
X0432162Y0360139D01*
X0432162Y0360514D02*
X0433288Y0360514D01*
X0435257Y0360680D02*
X0435257Y0354514D01*
X0434131Y0354514D01*
X0434131Y0360680D01*
X0435257Y0360680D01*
X0435257Y0354889D02*
X0434131Y0354889D01*
X0434131Y0355264D02*
X0435257Y0355264D01*
X0435257Y0355639D02*
X0434131Y0355639D01*
X0434131Y0356014D02*
X0435257Y0356014D01*
X0435257Y0356389D02*
X0434131Y0356389D01*
X0434131Y0356764D02*
X0435257Y0356764D01*
X0435257Y0357139D02*
X0434131Y0357139D01*
X0434131Y0357514D02*
X0435257Y0357514D01*
X0435257Y0357889D02*
X0434131Y0357889D01*
X0434131Y0358264D02*
X0435257Y0358264D01*
X0435257Y0358639D02*
X0434131Y0358639D01*
X0434131Y0359014D02*
X0435257Y0359014D01*
X0435257Y0359389D02*
X0434131Y0359389D01*
X0434131Y0359764D02*
X0435257Y0359764D01*
X0435257Y0360139D02*
X0434131Y0360139D01*
X0434131Y0360514D02*
X0435257Y0360514D01*
X0437225Y0360680D02*
X0437225Y0354514D01*
X0436099Y0354514D01*
X0436099Y0360680D01*
X0437225Y0360680D01*
X0437225Y0354889D02*
X0436099Y0354889D01*
X0436099Y0355264D02*
X0437225Y0355264D01*
X0437225Y0355639D02*
X0436099Y0355639D01*
X0436099Y0356014D02*
X0437225Y0356014D01*
X0437225Y0356389D02*
X0436099Y0356389D01*
X0436099Y0356764D02*
X0437225Y0356764D01*
X0437225Y0357139D02*
X0436099Y0357139D01*
X0436099Y0357514D02*
X0437225Y0357514D01*
X0437225Y0357889D02*
X0436099Y0357889D01*
X0436099Y0358264D02*
X0437225Y0358264D01*
X0437225Y0358639D02*
X0436099Y0358639D01*
X0436099Y0359014D02*
X0437225Y0359014D01*
X0437225Y0359389D02*
X0436099Y0359389D01*
X0436099Y0359764D02*
X0437225Y0359764D01*
X0437225Y0360139D02*
X0436099Y0360139D01*
X0436099Y0360514D02*
X0437225Y0360514D01*
X0439194Y0360680D02*
X0439194Y0354514D01*
X0438068Y0354514D01*
X0438068Y0360680D01*
X0439194Y0360680D01*
X0439194Y0354889D02*
X0438068Y0354889D01*
X0438068Y0355264D02*
X0439194Y0355264D01*
X0439194Y0355639D02*
X0438068Y0355639D01*
X0438068Y0356014D02*
X0439194Y0356014D01*
X0439194Y0356389D02*
X0438068Y0356389D01*
X0438068Y0356764D02*
X0439194Y0356764D01*
X0439194Y0357139D02*
X0438068Y0357139D01*
X0438068Y0357514D02*
X0439194Y0357514D01*
X0439194Y0357889D02*
X0438068Y0357889D01*
X0438068Y0358264D02*
X0439194Y0358264D01*
X0439194Y0358639D02*
X0438068Y0358639D01*
X0438068Y0359014D02*
X0439194Y0359014D01*
X0439194Y0359389D02*
X0438068Y0359389D01*
X0438068Y0359764D02*
X0439194Y0359764D01*
X0439194Y0360139D02*
X0438068Y0360139D01*
X0438068Y0360514D02*
X0439194Y0360514D01*
X0441162Y0360680D02*
X0441162Y0354514D01*
X0440036Y0354514D01*
X0440036Y0360680D01*
X0441162Y0360680D01*
X0441162Y0354889D02*
X0440036Y0354889D01*
X0440036Y0355264D02*
X0441162Y0355264D01*
X0441162Y0355639D02*
X0440036Y0355639D01*
X0440036Y0356014D02*
X0441162Y0356014D01*
X0441162Y0356389D02*
X0440036Y0356389D01*
X0440036Y0356764D02*
X0441162Y0356764D01*
X0441162Y0357139D02*
X0440036Y0357139D01*
X0440036Y0357514D02*
X0441162Y0357514D01*
X0441162Y0357889D02*
X0440036Y0357889D01*
X0440036Y0358264D02*
X0441162Y0358264D01*
X0441162Y0358639D02*
X0440036Y0358639D01*
X0440036Y0359014D02*
X0441162Y0359014D01*
X0441162Y0359389D02*
X0440036Y0359389D01*
X0440036Y0359764D02*
X0441162Y0359764D01*
X0441162Y0360139D02*
X0440036Y0360139D01*
X0440036Y0360514D02*
X0441162Y0360514D01*
X0443131Y0360680D02*
X0443131Y0354514D01*
X0442005Y0354514D01*
X0442005Y0360680D01*
X0443131Y0360680D01*
X0443131Y0354889D02*
X0442005Y0354889D01*
X0442005Y0355264D02*
X0443131Y0355264D01*
X0443131Y0355639D02*
X0442005Y0355639D01*
X0442005Y0356014D02*
X0443131Y0356014D01*
X0443131Y0356389D02*
X0442005Y0356389D01*
X0442005Y0356764D02*
X0443131Y0356764D01*
X0443131Y0357139D02*
X0442005Y0357139D01*
X0442005Y0357514D02*
X0443131Y0357514D01*
X0443131Y0357889D02*
X0442005Y0357889D01*
X0442005Y0358264D02*
X0443131Y0358264D01*
X0443131Y0358639D02*
X0442005Y0358639D01*
X0442005Y0359014D02*
X0443131Y0359014D01*
X0443131Y0359389D02*
X0442005Y0359389D01*
X0442005Y0359764D02*
X0443131Y0359764D01*
X0443131Y0360139D02*
X0442005Y0360139D01*
X0442005Y0360514D02*
X0443131Y0360514D01*
X0445099Y0360680D02*
X0445099Y0354514D01*
X0443973Y0354514D01*
X0443973Y0360680D01*
X0445099Y0360680D01*
X0445099Y0354889D02*
X0443973Y0354889D01*
X0443973Y0355264D02*
X0445099Y0355264D01*
X0445099Y0355639D02*
X0443973Y0355639D01*
X0443973Y0356014D02*
X0445099Y0356014D01*
X0445099Y0356389D02*
X0443973Y0356389D01*
X0443973Y0356764D02*
X0445099Y0356764D01*
X0445099Y0357139D02*
X0443973Y0357139D01*
X0443973Y0357514D02*
X0445099Y0357514D01*
X0445099Y0357889D02*
X0443973Y0357889D01*
X0443973Y0358264D02*
X0445099Y0358264D01*
X0445099Y0358639D02*
X0443973Y0358639D01*
X0443973Y0359014D02*
X0445099Y0359014D01*
X0445099Y0359389D02*
X0443973Y0359389D01*
X0443973Y0359764D02*
X0445099Y0359764D01*
X0445099Y0360139D02*
X0443973Y0360139D01*
X0443973Y0360514D02*
X0445099Y0360514D01*
X0447068Y0360680D02*
X0447068Y0354514D01*
X0445942Y0354514D01*
X0445942Y0360680D01*
X0447068Y0360680D01*
X0447068Y0354889D02*
X0445942Y0354889D01*
X0445942Y0355264D02*
X0447068Y0355264D01*
X0447068Y0355639D02*
X0445942Y0355639D01*
X0445942Y0356014D02*
X0447068Y0356014D01*
X0447068Y0356389D02*
X0445942Y0356389D01*
X0445942Y0356764D02*
X0447068Y0356764D01*
X0447068Y0357139D02*
X0445942Y0357139D01*
X0445942Y0357514D02*
X0447068Y0357514D01*
X0447068Y0357889D02*
X0445942Y0357889D01*
X0445942Y0358264D02*
X0447068Y0358264D01*
X0447068Y0358639D02*
X0445942Y0358639D01*
X0445942Y0359014D02*
X0447068Y0359014D01*
X0447068Y0359389D02*
X0445942Y0359389D01*
X0445942Y0359764D02*
X0447068Y0359764D01*
X0447068Y0360139D02*
X0445942Y0360139D01*
X0445942Y0360514D02*
X0447068Y0360514D01*
X0449036Y0360680D02*
X0449036Y0354514D01*
X0447910Y0354514D01*
X0447910Y0360680D01*
X0449036Y0360680D01*
X0449036Y0354889D02*
X0447910Y0354889D01*
X0447910Y0355264D02*
X0449036Y0355264D01*
X0449036Y0355639D02*
X0447910Y0355639D01*
X0447910Y0356014D02*
X0449036Y0356014D01*
X0449036Y0356389D02*
X0447910Y0356389D01*
X0447910Y0356764D02*
X0449036Y0356764D01*
X0449036Y0357139D02*
X0447910Y0357139D01*
X0447910Y0357514D02*
X0449036Y0357514D01*
X0449036Y0357889D02*
X0447910Y0357889D01*
X0447910Y0358264D02*
X0449036Y0358264D01*
X0449036Y0358639D02*
X0447910Y0358639D01*
X0447910Y0359014D02*
X0449036Y0359014D01*
X0449036Y0359389D02*
X0447910Y0359389D01*
X0447910Y0359764D02*
X0449036Y0359764D01*
X0449036Y0360139D02*
X0447910Y0360139D01*
X0447910Y0360514D02*
X0449036Y0360514D01*
X0451005Y0360680D02*
X0451005Y0354514D01*
X0449879Y0354514D01*
X0449879Y0360680D01*
X0451005Y0360680D01*
X0451005Y0354889D02*
X0449879Y0354889D01*
X0449879Y0355264D02*
X0451005Y0355264D01*
X0451005Y0355639D02*
X0449879Y0355639D01*
X0449879Y0356014D02*
X0451005Y0356014D01*
X0451005Y0356389D02*
X0449879Y0356389D01*
X0449879Y0356764D02*
X0451005Y0356764D01*
X0451005Y0357139D02*
X0449879Y0357139D01*
X0449879Y0357514D02*
X0451005Y0357514D01*
X0451005Y0357889D02*
X0449879Y0357889D01*
X0449879Y0358264D02*
X0451005Y0358264D01*
X0451005Y0358639D02*
X0449879Y0358639D01*
X0449879Y0359014D02*
X0451005Y0359014D01*
X0451005Y0359389D02*
X0449879Y0359389D01*
X0449879Y0359764D02*
X0451005Y0359764D01*
X0451005Y0360139D02*
X0449879Y0360139D01*
X0449879Y0360514D02*
X0451005Y0360514D01*
X0452973Y0360680D02*
X0452973Y0354514D01*
X0451847Y0354514D01*
X0451847Y0360680D01*
X0452973Y0360680D01*
X0452973Y0354889D02*
X0451847Y0354889D01*
X0451847Y0355264D02*
X0452973Y0355264D01*
X0452973Y0355639D02*
X0451847Y0355639D01*
X0451847Y0356014D02*
X0452973Y0356014D01*
X0452973Y0356389D02*
X0451847Y0356389D01*
X0451847Y0356764D02*
X0452973Y0356764D01*
X0452973Y0357139D02*
X0451847Y0357139D01*
X0451847Y0357514D02*
X0452973Y0357514D01*
X0452973Y0357889D02*
X0451847Y0357889D01*
X0451847Y0358264D02*
X0452973Y0358264D01*
X0452973Y0358639D02*
X0451847Y0358639D01*
X0451847Y0359014D02*
X0452973Y0359014D01*
X0452973Y0359389D02*
X0451847Y0359389D01*
X0451847Y0359764D02*
X0452973Y0359764D01*
X0452973Y0360139D02*
X0451847Y0360139D01*
X0451847Y0360514D02*
X0452973Y0360514D01*
X0454942Y0360680D02*
X0454942Y0354514D01*
X0453816Y0354514D01*
X0453816Y0360680D01*
X0454942Y0360680D01*
X0454942Y0354889D02*
X0453816Y0354889D01*
X0453816Y0355264D02*
X0454942Y0355264D01*
X0454942Y0355639D02*
X0453816Y0355639D01*
X0453816Y0356014D02*
X0454942Y0356014D01*
X0454942Y0356389D02*
X0453816Y0356389D01*
X0453816Y0356764D02*
X0454942Y0356764D01*
X0454942Y0357139D02*
X0453816Y0357139D01*
X0453816Y0357514D02*
X0454942Y0357514D01*
X0454942Y0357889D02*
X0453816Y0357889D01*
X0453816Y0358264D02*
X0454942Y0358264D01*
X0454942Y0358639D02*
X0453816Y0358639D01*
X0453816Y0359014D02*
X0454942Y0359014D01*
X0454942Y0359389D02*
X0453816Y0359389D01*
X0453816Y0359764D02*
X0454942Y0359764D01*
X0454942Y0360139D02*
X0453816Y0360139D01*
X0453816Y0360514D02*
X0454942Y0360514D01*
X0456910Y0360680D02*
X0456910Y0354514D01*
X0455784Y0354514D01*
X0455784Y0360680D01*
X0456910Y0360680D01*
X0456910Y0354889D02*
X0455784Y0354889D01*
X0455784Y0355264D02*
X0456910Y0355264D01*
X0456910Y0355639D02*
X0455784Y0355639D01*
X0455784Y0356014D02*
X0456910Y0356014D01*
X0456910Y0356389D02*
X0455784Y0356389D01*
X0455784Y0356764D02*
X0456910Y0356764D01*
X0456910Y0357139D02*
X0455784Y0357139D01*
X0455784Y0357514D02*
X0456910Y0357514D01*
X0456910Y0357889D02*
X0455784Y0357889D01*
X0455784Y0358264D02*
X0456910Y0358264D01*
X0456910Y0358639D02*
X0455784Y0358639D01*
X0455784Y0359014D02*
X0456910Y0359014D01*
X0456910Y0359389D02*
X0455784Y0359389D01*
X0455784Y0359764D02*
X0456910Y0359764D01*
X0456910Y0360139D02*
X0455784Y0360139D01*
X0455784Y0360514D02*
X0456910Y0360514D01*
X0458879Y0360680D02*
X0458879Y0354514D01*
X0457753Y0354514D01*
X0457753Y0360680D01*
X0458879Y0360680D01*
X0458879Y0354889D02*
X0457753Y0354889D01*
X0457753Y0355264D02*
X0458879Y0355264D01*
X0458879Y0355639D02*
X0457753Y0355639D01*
X0457753Y0356014D02*
X0458879Y0356014D01*
X0458879Y0356389D02*
X0457753Y0356389D01*
X0457753Y0356764D02*
X0458879Y0356764D01*
X0458879Y0357139D02*
X0457753Y0357139D01*
X0457753Y0357514D02*
X0458879Y0357514D01*
X0458879Y0357889D02*
X0457753Y0357889D01*
X0457753Y0358264D02*
X0458879Y0358264D01*
X0458879Y0358639D02*
X0457753Y0358639D01*
X0457753Y0359014D02*
X0458879Y0359014D01*
X0458879Y0359389D02*
X0457753Y0359389D01*
X0457753Y0359764D02*
X0458879Y0359764D01*
X0458879Y0360139D02*
X0457753Y0360139D01*
X0457753Y0360514D02*
X0458879Y0360514D01*
X0460847Y0360680D02*
X0460847Y0354514D01*
X0459721Y0354514D01*
X0459721Y0360680D01*
X0460847Y0360680D01*
X0460847Y0354889D02*
X0459721Y0354889D01*
X0459721Y0355264D02*
X0460847Y0355264D01*
X0460847Y0355639D02*
X0459721Y0355639D01*
X0459721Y0356014D02*
X0460847Y0356014D01*
X0460847Y0356389D02*
X0459721Y0356389D01*
X0459721Y0356764D02*
X0460847Y0356764D01*
X0460847Y0357139D02*
X0459721Y0357139D01*
X0459721Y0357514D02*
X0460847Y0357514D01*
X0460847Y0357889D02*
X0459721Y0357889D01*
X0459721Y0358264D02*
X0460847Y0358264D01*
X0460847Y0358639D02*
X0459721Y0358639D01*
X0459721Y0359014D02*
X0460847Y0359014D01*
X0460847Y0359389D02*
X0459721Y0359389D01*
X0459721Y0359764D02*
X0460847Y0359764D01*
X0460847Y0360139D02*
X0459721Y0360139D01*
X0459721Y0360514D02*
X0460847Y0360514D01*
X0462816Y0360680D02*
X0462816Y0354514D01*
X0461690Y0354514D01*
X0461690Y0360680D01*
X0462816Y0360680D01*
X0462816Y0354889D02*
X0461690Y0354889D01*
X0461690Y0355264D02*
X0462816Y0355264D01*
X0462816Y0355639D02*
X0461690Y0355639D01*
X0461690Y0356014D02*
X0462816Y0356014D01*
X0462816Y0356389D02*
X0461690Y0356389D01*
X0461690Y0356764D02*
X0462816Y0356764D01*
X0462816Y0357139D02*
X0461690Y0357139D01*
X0461690Y0357514D02*
X0462816Y0357514D01*
X0462816Y0357889D02*
X0461690Y0357889D01*
X0461690Y0358264D02*
X0462816Y0358264D01*
X0462816Y0358639D02*
X0461690Y0358639D01*
X0461690Y0359014D02*
X0462816Y0359014D01*
X0462816Y0359389D02*
X0461690Y0359389D01*
X0461690Y0359764D02*
X0462816Y0359764D01*
X0462816Y0360139D02*
X0461690Y0360139D01*
X0461690Y0360514D02*
X0462816Y0360514D01*
X0464784Y0360680D02*
X0464784Y0354514D01*
X0463658Y0354514D01*
X0463658Y0360680D01*
X0464784Y0360680D01*
X0464784Y0354889D02*
X0463658Y0354889D01*
X0463658Y0355264D02*
X0464784Y0355264D01*
X0464784Y0355639D02*
X0463658Y0355639D01*
X0463658Y0356014D02*
X0464784Y0356014D01*
X0464784Y0356389D02*
X0463658Y0356389D01*
X0463658Y0356764D02*
X0464784Y0356764D01*
X0464784Y0357139D02*
X0463658Y0357139D01*
X0463658Y0357514D02*
X0464784Y0357514D01*
X0464784Y0357889D02*
X0463658Y0357889D01*
X0463658Y0358264D02*
X0464784Y0358264D01*
X0464784Y0358639D02*
X0463658Y0358639D01*
X0463658Y0359014D02*
X0464784Y0359014D01*
X0464784Y0359389D02*
X0463658Y0359389D01*
X0463658Y0359764D02*
X0464784Y0359764D01*
X0464784Y0360139D02*
X0463658Y0360139D01*
X0463658Y0360514D02*
X0464784Y0360514D01*
X0466753Y0360680D02*
X0466753Y0354514D01*
X0465627Y0354514D01*
X0465627Y0360680D01*
X0466753Y0360680D01*
X0466753Y0354889D02*
X0465627Y0354889D01*
X0465627Y0355264D02*
X0466753Y0355264D01*
X0466753Y0355639D02*
X0465627Y0355639D01*
X0465627Y0356014D02*
X0466753Y0356014D01*
X0466753Y0356389D02*
X0465627Y0356389D01*
X0465627Y0356764D02*
X0466753Y0356764D01*
X0466753Y0357139D02*
X0465627Y0357139D01*
X0465627Y0357514D02*
X0466753Y0357514D01*
X0466753Y0357889D02*
X0465627Y0357889D01*
X0465627Y0358264D02*
X0466753Y0358264D01*
X0466753Y0358639D02*
X0465627Y0358639D01*
X0465627Y0359014D02*
X0466753Y0359014D01*
X0466753Y0359389D02*
X0465627Y0359389D01*
X0465627Y0359764D02*
X0466753Y0359764D01*
X0466753Y0360139D02*
X0465627Y0360139D01*
X0465627Y0360514D02*
X0466753Y0360514D01*
X0468721Y0360680D02*
X0468721Y0354514D01*
X0467595Y0354514D01*
X0467595Y0360680D01*
X0468721Y0360680D01*
X0468721Y0354889D02*
X0467595Y0354889D01*
X0467595Y0355264D02*
X0468721Y0355264D01*
X0468721Y0355639D02*
X0467595Y0355639D01*
X0467595Y0356014D02*
X0468721Y0356014D01*
X0468721Y0356389D02*
X0467595Y0356389D01*
X0467595Y0356764D02*
X0468721Y0356764D01*
X0468721Y0357139D02*
X0467595Y0357139D01*
X0467595Y0357514D02*
X0468721Y0357514D01*
X0468721Y0357889D02*
X0467595Y0357889D01*
X0467595Y0358264D02*
X0468721Y0358264D01*
X0468721Y0358639D02*
X0467595Y0358639D01*
X0467595Y0359014D02*
X0468721Y0359014D01*
X0468721Y0359389D02*
X0467595Y0359389D01*
X0467595Y0359764D02*
X0468721Y0359764D01*
X0468721Y0360139D02*
X0467595Y0360139D01*
X0467595Y0360514D02*
X0468721Y0360514D01*
X0470690Y0360680D02*
X0470690Y0354514D01*
X0469564Y0354514D01*
X0469564Y0360680D01*
X0470690Y0360680D01*
X0470690Y0354889D02*
X0469564Y0354889D01*
X0469564Y0355264D02*
X0470690Y0355264D01*
X0470690Y0355639D02*
X0469564Y0355639D01*
X0469564Y0356014D02*
X0470690Y0356014D01*
X0470690Y0356389D02*
X0469564Y0356389D01*
X0469564Y0356764D02*
X0470690Y0356764D01*
X0470690Y0357139D02*
X0469564Y0357139D01*
X0469564Y0357514D02*
X0470690Y0357514D01*
X0470690Y0357889D02*
X0469564Y0357889D01*
X0469564Y0358264D02*
X0470690Y0358264D01*
X0470690Y0358639D02*
X0469564Y0358639D01*
X0469564Y0359014D02*
X0470690Y0359014D01*
X0470690Y0359389D02*
X0469564Y0359389D01*
X0469564Y0359764D02*
X0470690Y0359764D01*
X0470690Y0360139D02*
X0469564Y0360139D01*
X0469564Y0360514D02*
X0470690Y0360514D01*
X0472658Y0360680D02*
X0472658Y0354514D01*
X0471532Y0354514D01*
X0471532Y0360680D01*
X0472658Y0360680D01*
X0472658Y0354889D02*
X0471532Y0354889D01*
X0471532Y0355264D02*
X0472658Y0355264D01*
X0472658Y0355639D02*
X0471532Y0355639D01*
X0471532Y0356014D02*
X0472658Y0356014D01*
X0472658Y0356389D02*
X0471532Y0356389D01*
X0471532Y0356764D02*
X0472658Y0356764D01*
X0472658Y0357139D02*
X0471532Y0357139D01*
X0471532Y0357514D02*
X0472658Y0357514D01*
X0472658Y0357889D02*
X0471532Y0357889D01*
X0471532Y0358264D02*
X0472658Y0358264D01*
X0472658Y0358639D02*
X0471532Y0358639D01*
X0471532Y0359014D02*
X0472658Y0359014D01*
X0472658Y0359389D02*
X0471532Y0359389D01*
X0471532Y0359764D02*
X0472658Y0359764D01*
X0472658Y0360139D02*
X0471532Y0360139D01*
X0471532Y0360514D02*
X0472658Y0360514D01*
X0474627Y0360680D02*
X0474627Y0354514D01*
X0473501Y0354514D01*
X0473501Y0360680D01*
X0474627Y0360680D01*
X0474627Y0354889D02*
X0473501Y0354889D01*
X0473501Y0355264D02*
X0474627Y0355264D01*
X0474627Y0355639D02*
X0473501Y0355639D01*
X0473501Y0356014D02*
X0474627Y0356014D01*
X0474627Y0356389D02*
X0473501Y0356389D01*
X0473501Y0356764D02*
X0474627Y0356764D01*
X0474627Y0357139D02*
X0473501Y0357139D01*
X0473501Y0357514D02*
X0474627Y0357514D01*
X0474627Y0357889D02*
X0473501Y0357889D01*
X0473501Y0358264D02*
X0474627Y0358264D01*
X0474627Y0358639D02*
X0473501Y0358639D01*
X0473501Y0359014D02*
X0474627Y0359014D01*
X0474627Y0359389D02*
X0473501Y0359389D01*
X0473501Y0359764D02*
X0474627Y0359764D01*
X0474627Y0360139D02*
X0473501Y0360139D01*
X0473501Y0360514D02*
X0474627Y0360514D01*
X0476595Y0360680D02*
X0476595Y0354514D01*
X0475469Y0354514D01*
X0475469Y0360680D01*
X0476595Y0360680D01*
X0476595Y0354889D02*
X0475469Y0354889D01*
X0475469Y0355264D02*
X0476595Y0355264D01*
X0476595Y0355639D02*
X0475469Y0355639D01*
X0475469Y0356014D02*
X0476595Y0356014D01*
X0476595Y0356389D02*
X0475469Y0356389D01*
X0475469Y0356764D02*
X0476595Y0356764D01*
X0476595Y0357139D02*
X0475469Y0357139D01*
X0475469Y0357514D02*
X0476595Y0357514D01*
X0476595Y0357889D02*
X0475469Y0357889D01*
X0475469Y0358264D02*
X0476595Y0358264D01*
X0476595Y0358639D02*
X0475469Y0358639D01*
X0475469Y0359014D02*
X0476595Y0359014D01*
X0476595Y0359389D02*
X0475469Y0359389D01*
X0475469Y0359764D02*
X0476595Y0359764D01*
X0476595Y0360139D02*
X0475469Y0360139D01*
X0475469Y0360514D02*
X0476595Y0360514D01*
X0478564Y0360680D02*
X0478564Y0354514D01*
X0477438Y0354514D01*
X0477438Y0360680D01*
X0478564Y0360680D01*
X0478564Y0354889D02*
X0477438Y0354889D01*
X0477438Y0355264D02*
X0478564Y0355264D01*
X0478564Y0355639D02*
X0477438Y0355639D01*
X0477438Y0356014D02*
X0478564Y0356014D01*
X0478564Y0356389D02*
X0477438Y0356389D01*
X0477438Y0356764D02*
X0478564Y0356764D01*
X0478564Y0357139D02*
X0477438Y0357139D01*
X0477438Y0357514D02*
X0478564Y0357514D01*
X0478564Y0357889D02*
X0477438Y0357889D01*
X0477438Y0358264D02*
X0478564Y0358264D01*
X0478564Y0358639D02*
X0477438Y0358639D01*
X0477438Y0359014D02*
X0478564Y0359014D01*
X0478564Y0359389D02*
X0477438Y0359389D01*
X0477438Y0359764D02*
X0478564Y0359764D01*
X0478564Y0360139D02*
X0477438Y0360139D01*
X0477438Y0360514D02*
X0478564Y0360514D01*
X0480532Y0360680D02*
X0480532Y0354514D01*
X0479406Y0354514D01*
X0479406Y0360680D01*
X0480532Y0360680D01*
X0480532Y0354889D02*
X0479406Y0354889D01*
X0479406Y0355264D02*
X0480532Y0355264D01*
X0480532Y0355639D02*
X0479406Y0355639D01*
X0479406Y0356014D02*
X0480532Y0356014D01*
X0480532Y0356389D02*
X0479406Y0356389D01*
X0479406Y0356764D02*
X0480532Y0356764D01*
X0480532Y0357139D02*
X0479406Y0357139D01*
X0479406Y0357514D02*
X0480532Y0357514D01*
X0480532Y0357889D02*
X0479406Y0357889D01*
X0479406Y0358264D02*
X0480532Y0358264D01*
X0480532Y0358639D02*
X0479406Y0358639D01*
X0479406Y0359014D02*
X0480532Y0359014D01*
X0480532Y0359389D02*
X0479406Y0359389D01*
X0479406Y0359764D02*
X0480532Y0359764D01*
X0480532Y0360139D02*
X0479406Y0360139D01*
X0479406Y0360514D02*
X0480532Y0360514D01*
X0482501Y0360680D02*
X0482501Y0354514D01*
X0481375Y0354514D01*
X0481375Y0360680D01*
X0482501Y0360680D01*
X0482501Y0354889D02*
X0481375Y0354889D01*
X0481375Y0355264D02*
X0482501Y0355264D01*
X0482501Y0355639D02*
X0481375Y0355639D01*
X0481375Y0356014D02*
X0482501Y0356014D01*
X0482501Y0356389D02*
X0481375Y0356389D01*
X0481375Y0356764D02*
X0482501Y0356764D01*
X0482501Y0357139D02*
X0481375Y0357139D01*
X0481375Y0357514D02*
X0482501Y0357514D01*
X0482501Y0357889D02*
X0481375Y0357889D01*
X0481375Y0358264D02*
X0482501Y0358264D01*
X0482501Y0358639D02*
X0481375Y0358639D01*
X0481375Y0359014D02*
X0482501Y0359014D01*
X0482501Y0359389D02*
X0481375Y0359389D01*
X0481375Y0359764D02*
X0482501Y0359764D01*
X0482501Y0360139D02*
X0481375Y0360139D01*
X0481375Y0360514D02*
X0482501Y0360514D01*
X0484469Y0360680D02*
X0484469Y0354514D01*
X0483343Y0354514D01*
X0483343Y0360680D01*
X0484469Y0360680D01*
X0484469Y0354889D02*
X0483343Y0354889D01*
X0483343Y0355264D02*
X0484469Y0355264D01*
X0484469Y0355639D02*
X0483343Y0355639D01*
X0483343Y0356014D02*
X0484469Y0356014D01*
X0484469Y0356389D02*
X0483343Y0356389D01*
X0483343Y0356764D02*
X0484469Y0356764D01*
X0484469Y0357139D02*
X0483343Y0357139D01*
X0483343Y0357514D02*
X0484469Y0357514D01*
X0484469Y0357889D02*
X0483343Y0357889D01*
X0483343Y0358264D02*
X0484469Y0358264D01*
X0484469Y0358639D02*
X0483343Y0358639D01*
X0483343Y0359014D02*
X0484469Y0359014D01*
X0484469Y0359389D02*
X0483343Y0359389D01*
X0483343Y0359764D02*
X0484469Y0359764D01*
X0484469Y0360139D02*
X0483343Y0360139D01*
X0483343Y0360514D02*
X0484469Y0360514D01*
X0486438Y0360680D02*
X0486438Y0354514D01*
X0485312Y0354514D01*
X0485312Y0360680D01*
X0486438Y0360680D01*
X0486438Y0354889D02*
X0485312Y0354889D01*
X0485312Y0355264D02*
X0486438Y0355264D01*
X0486438Y0355639D02*
X0485312Y0355639D01*
X0485312Y0356014D02*
X0486438Y0356014D01*
X0486438Y0356389D02*
X0485312Y0356389D01*
X0485312Y0356764D02*
X0486438Y0356764D01*
X0486438Y0357139D02*
X0485312Y0357139D01*
X0485312Y0357514D02*
X0486438Y0357514D01*
X0486438Y0357889D02*
X0485312Y0357889D01*
X0485312Y0358264D02*
X0486438Y0358264D01*
X0486438Y0358639D02*
X0485312Y0358639D01*
X0485312Y0359014D02*
X0486438Y0359014D01*
X0486438Y0359389D02*
X0485312Y0359389D01*
X0485312Y0359764D02*
X0486438Y0359764D01*
X0486438Y0360139D02*
X0485312Y0360139D01*
X0485312Y0360514D02*
X0486438Y0360514D01*
X0488406Y0360680D02*
X0488406Y0354514D01*
X0487280Y0354514D01*
X0487280Y0360680D01*
X0488406Y0360680D01*
X0488406Y0354889D02*
X0487280Y0354889D01*
X0487280Y0355264D02*
X0488406Y0355264D01*
X0488406Y0355639D02*
X0487280Y0355639D01*
X0487280Y0356014D02*
X0488406Y0356014D01*
X0488406Y0356389D02*
X0487280Y0356389D01*
X0487280Y0356764D02*
X0488406Y0356764D01*
X0488406Y0357139D02*
X0487280Y0357139D01*
X0487280Y0357514D02*
X0488406Y0357514D01*
X0488406Y0357889D02*
X0487280Y0357889D01*
X0487280Y0358264D02*
X0488406Y0358264D01*
X0488406Y0358639D02*
X0487280Y0358639D01*
X0487280Y0359014D02*
X0488406Y0359014D01*
X0488406Y0359389D02*
X0487280Y0359389D01*
X0487280Y0359764D02*
X0488406Y0359764D01*
X0488406Y0360139D02*
X0487280Y0360139D01*
X0487280Y0360514D02*
X0488406Y0360514D01*
X0490375Y0360680D02*
X0490375Y0354514D01*
X0489249Y0354514D01*
X0489249Y0360680D01*
X0490375Y0360680D01*
X0490375Y0354889D02*
X0489249Y0354889D01*
X0489249Y0355264D02*
X0490375Y0355264D01*
X0490375Y0355639D02*
X0489249Y0355639D01*
X0489249Y0356014D02*
X0490375Y0356014D01*
X0490375Y0356389D02*
X0489249Y0356389D01*
X0489249Y0356764D02*
X0490375Y0356764D01*
X0490375Y0357139D02*
X0489249Y0357139D01*
X0489249Y0357514D02*
X0490375Y0357514D01*
X0490375Y0357889D02*
X0489249Y0357889D01*
X0489249Y0358264D02*
X0490375Y0358264D01*
X0490375Y0358639D02*
X0489249Y0358639D01*
X0489249Y0359014D02*
X0490375Y0359014D01*
X0490375Y0359389D02*
X0489249Y0359389D01*
X0489249Y0359764D02*
X0490375Y0359764D01*
X0490375Y0360139D02*
X0489249Y0360139D01*
X0489249Y0360514D02*
X0490375Y0360514D01*
X0492343Y0360680D02*
X0492343Y0354514D01*
X0491217Y0354514D01*
X0491217Y0360680D01*
X0492343Y0360680D01*
X0492343Y0354889D02*
X0491217Y0354889D01*
X0491217Y0355264D02*
X0492343Y0355264D01*
X0492343Y0355639D02*
X0491217Y0355639D01*
X0491217Y0356014D02*
X0492343Y0356014D01*
X0492343Y0356389D02*
X0491217Y0356389D01*
X0491217Y0356764D02*
X0492343Y0356764D01*
X0492343Y0357139D02*
X0491217Y0357139D01*
X0491217Y0357514D02*
X0492343Y0357514D01*
X0492343Y0357889D02*
X0491217Y0357889D01*
X0491217Y0358264D02*
X0492343Y0358264D01*
X0492343Y0358639D02*
X0491217Y0358639D01*
X0491217Y0359014D02*
X0492343Y0359014D01*
X0492343Y0359389D02*
X0491217Y0359389D01*
X0491217Y0359764D02*
X0492343Y0359764D01*
X0492343Y0360139D02*
X0491217Y0360139D01*
X0491217Y0360514D02*
X0492343Y0360514D01*
X0494312Y0360680D02*
X0494312Y0354514D01*
X0493186Y0354514D01*
X0493186Y0360680D01*
X0494312Y0360680D01*
X0494312Y0354889D02*
X0493186Y0354889D01*
X0493186Y0355264D02*
X0494312Y0355264D01*
X0494312Y0355639D02*
X0493186Y0355639D01*
X0493186Y0356014D02*
X0494312Y0356014D01*
X0494312Y0356389D02*
X0493186Y0356389D01*
X0493186Y0356764D02*
X0494312Y0356764D01*
X0494312Y0357139D02*
X0493186Y0357139D01*
X0493186Y0357514D02*
X0494312Y0357514D01*
X0494312Y0357889D02*
X0493186Y0357889D01*
X0493186Y0358264D02*
X0494312Y0358264D01*
X0494312Y0358639D02*
X0493186Y0358639D01*
X0493186Y0359014D02*
X0494312Y0359014D01*
X0494312Y0359389D02*
X0493186Y0359389D01*
X0493186Y0359764D02*
X0494312Y0359764D01*
X0494312Y0360139D02*
X0493186Y0360139D01*
X0493186Y0360514D02*
X0494312Y0360514D01*
X0498264Y0349436D02*
X0504430Y0349436D01*
X0498264Y0349436D02*
X0498264Y0350562D01*
X0504430Y0350562D01*
X0504430Y0349436D01*
X0504430Y0349811D02*
X0498264Y0349811D01*
X0498264Y0350186D02*
X0504430Y0350186D01*
X0504430Y0350561D02*
X0498264Y0350561D01*
X0498264Y0347467D02*
X0504430Y0347467D01*
X0498264Y0347467D02*
X0498264Y0348593D01*
X0504430Y0348593D01*
X0504430Y0347467D01*
X0504430Y0347842D02*
X0498264Y0347842D01*
X0498264Y0348217D02*
X0504430Y0348217D01*
X0504430Y0348592D02*
X0498264Y0348592D01*
X0498264Y0345499D02*
X0504430Y0345499D01*
X0498264Y0345499D02*
X0498264Y0346625D01*
X0504430Y0346625D01*
X0504430Y0345499D01*
X0504430Y0345874D02*
X0498264Y0345874D01*
X0498264Y0346249D02*
X0504430Y0346249D01*
X0504430Y0346624D02*
X0498264Y0346624D01*
X0498264Y0343530D02*
X0504430Y0343530D01*
X0498264Y0343530D02*
X0498264Y0344656D01*
X0504430Y0344656D01*
X0504430Y0343530D01*
X0504430Y0343905D02*
X0498264Y0343905D01*
X0498264Y0344280D02*
X0504430Y0344280D01*
X0504430Y0344655D02*
X0498264Y0344655D01*
X0498264Y0341562D02*
X0504430Y0341562D01*
X0498264Y0341562D02*
X0498264Y0342688D01*
X0504430Y0342688D01*
X0504430Y0341562D01*
X0504430Y0341937D02*
X0498264Y0341937D01*
X0498264Y0342312D02*
X0504430Y0342312D01*
X0504430Y0342687D02*
X0498264Y0342687D01*
X0498264Y0339593D02*
X0504430Y0339593D01*
X0498264Y0339593D02*
X0498264Y0340719D01*
X0504430Y0340719D01*
X0504430Y0339593D01*
X0504430Y0339968D02*
X0498264Y0339968D01*
X0498264Y0340343D02*
X0504430Y0340343D01*
X0504430Y0340718D02*
X0498264Y0340718D01*
X0498264Y0337625D02*
X0504430Y0337625D01*
X0498264Y0337625D02*
X0498264Y0338751D01*
X0504430Y0338751D01*
X0504430Y0337625D01*
X0504430Y0338000D02*
X0498264Y0338000D01*
X0498264Y0338375D02*
X0504430Y0338375D01*
X0504430Y0338750D02*
X0498264Y0338750D01*
X0498264Y0335656D02*
X0504430Y0335656D01*
X0498264Y0335656D02*
X0498264Y0336782D01*
X0504430Y0336782D01*
X0504430Y0335656D01*
X0504430Y0336031D02*
X0498264Y0336031D01*
X0498264Y0336406D02*
X0504430Y0336406D01*
X0504430Y0336781D02*
X0498264Y0336781D01*
X0498264Y0333688D02*
X0504430Y0333688D01*
X0498264Y0333688D02*
X0498264Y0334814D01*
X0504430Y0334814D01*
X0504430Y0333688D01*
X0504430Y0334063D02*
X0498264Y0334063D01*
X0498264Y0334438D02*
X0504430Y0334438D01*
X0504430Y0334813D02*
X0498264Y0334813D01*
X0498264Y0331719D02*
X0504430Y0331719D01*
X0498264Y0331719D02*
X0498264Y0332845D01*
X0504430Y0332845D01*
X0504430Y0331719D01*
X0504430Y0332094D02*
X0498264Y0332094D01*
X0498264Y0332469D02*
X0504430Y0332469D01*
X0504430Y0332844D02*
X0498264Y0332844D01*
X0498264Y0329751D02*
X0504430Y0329751D01*
X0498264Y0329751D02*
X0498264Y0330877D01*
X0504430Y0330877D01*
X0504430Y0329751D01*
X0504430Y0330126D02*
X0498264Y0330126D01*
X0498264Y0330501D02*
X0504430Y0330501D01*
X0504430Y0330876D02*
X0498264Y0330876D01*
X0498264Y0327782D02*
X0504430Y0327782D01*
X0498264Y0327782D02*
X0498264Y0328908D01*
X0504430Y0328908D01*
X0504430Y0327782D01*
X0504430Y0328157D02*
X0498264Y0328157D01*
X0498264Y0328532D02*
X0504430Y0328532D01*
X0504430Y0328907D02*
X0498264Y0328907D01*
X0498264Y0325814D02*
X0504430Y0325814D01*
X0498264Y0325814D02*
X0498264Y0326940D01*
X0504430Y0326940D01*
X0504430Y0325814D01*
X0504430Y0326189D02*
X0498264Y0326189D01*
X0498264Y0326564D02*
X0504430Y0326564D01*
X0504430Y0326939D02*
X0498264Y0326939D01*
X0498264Y0323845D02*
X0504430Y0323845D01*
X0498264Y0323845D02*
X0498264Y0324971D01*
X0504430Y0324971D01*
X0504430Y0323845D01*
X0504430Y0324220D02*
X0498264Y0324220D01*
X0498264Y0324595D02*
X0504430Y0324595D01*
X0504430Y0324970D02*
X0498264Y0324970D01*
X0498264Y0321877D02*
X0504430Y0321877D01*
X0498264Y0321877D02*
X0498264Y0323003D01*
X0504430Y0323003D01*
X0504430Y0321877D01*
X0504430Y0322252D02*
X0498264Y0322252D01*
X0498264Y0322627D02*
X0504430Y0322627D01*
X0504430Y0323002D02*
X0498264Y0323002D01*
X0498264Y0319908D02*
X0504430Y0319908D01*
X0498264Y0319908D02*
X0498264Y0321034D01*
X0504430Y0321034D01*
X0504430Y0319908D01*
X0504430Y0320283D02*
X0498264Y0320283D01*
X0498264Y0320658D02*
X0504430Y0320658D01*
X0504430Y0321033D02*
X0498264Y0321033D01*
X0498264Y0317940D02*
X0504430Y0317940D01*
X0498264Y0317940D02*
X0498264Y0319066D01*
X0504430Y0319066D01*
X0504430Y0317940D01*
X0504430Y0318315D02*
X0498264Y0318315D01*
X0498264Y0318690D02*
X0504430Y0318690D01*
X0504430Y0319065D02*
X0498264Y0319065D01*
X0498264Y0315971D02*
X0504430Y0315971D01*
X0498264Y0315971D02*
X0498264Y0317097D01*
X0504430Y0317097D01*
X0504430Y0315971D01*
X0504430Y0316346D02*
X0498264Y0316346D01*
X0498264Y0316721D02*
X0504430Y0316721D01*
X0504430Y0317096D02*
X0498264Y0317096D01*
X0498264Y0314003D02*
X0504430Y0314003D01*
X0498264Y0314003D02*
X0498264Y0315129D01*
X0504430Y0315129D01*
X0504430Y0314003D01*
X0504430Y0314378D02*
X0498264Y0314378D01*
X0498264Y0314753D02*
X0504430Y0314753D01*
X0504430Y0315128D02*
X0498264Y0315128D01*
X0498264Y0312034D02*
X0504430Y0312034D01*
X0498264Y0312034D02*
X0498264Y0313160D01*
X0504430Y0313160D01*
X0504430Y0312034D01*
X0504430Y0312409D02*
X0498264Y0312409D01*
X0498264Y0312784D02*
X0504430Y0312784D01*
X0504430Y0313159D02*
X0498264Y0313159D01*
X0498264Y0310066D02*
X0504430Y0310066D01*
X0498264Y0310066D02*
X0498264Y0311192D01*
X0504430Y0311192D01*
X0504430Y0310066D01*
X0504430Y0310441D02*
X0498264Y0310441D01*
X0498264Y0310816D02*
X0504430Y0310816D01*
X0504430Y0311191D02*
X0498264Y0311191D01*
X0498264Y0308097D02*
X0504430Y0308097D01*
X0498264Y0308097D02*
X0498264Y0309223D01*
X0504430Y0309223D01*
X0504430Y0308097D01*
X0504430Y0308472D02*
X0498264Y0308472D01*
X0498264Y0308847D02*
X0504430Y0308847D01*
X0504430Y0309222D02*
X0498264Y0309222D01*
X0498264Y0306129D02*
X0504430Y0306129D01*
X0498264Y0306129D02*
X0498264Y0307255D01*
X0504430Y0307255D01*
X0504430Y0306129D01*
X0504430Y0306504D02*
X0498264Y0306504D01*
X0498264Y0306879D02*
X0504430Y0306879D01*
X0504430Y0307254D02*
X0498264Y0307254D01*
X0498264Y0304160D02*
X0504430Y0304160D01*
X0498264Y0304160D02*
X0498264Y0305286D01*
X0504430Y0305286D01*
X0504430Y0304160D01*
X0504430Y0304535D02*
X0498264Y0304535D01*
X0498264Y0304910D02*
X0504430Y0304910D01*
X0504430Y0305285D02*
X0498264Y0305285D01*
X0498264Y0302192D02*
X0504430Y0302192D01*
X0498264Y0302192D02*
X0498264Y0303318D01*
X0504430Y0303318D01*
X0504430Y0302192D01*
X0504430Y0302567D02*
X0498264Y0302567D01*
X0498264Y0302942D02*
X0504430Y0302942D01*
X0504430Y0303317D02*
X0498264Y0303317D01*
X0498264Y0300223D02*
X0504430Y0300223D01*
X0498264Y0300223D02*
X0498264Y0301349D01*
X0504430Y0301349D01*
X0504430Y0300223D01*
X0504430Y0300598D02*
X0498264Y0300598D01*
X0498264Y0300973D02*
X0504430Y0300973D01*
X0504430Y0301348D02*
X0498264Y0301348D01*
X0498264Y0298255D02*
X0504430Y0298255D01*
X0498264Y0298255D02*
X0498264Y0299381D01*
X0504430Y0299381D01*
X0504430Y0298255D01*
X0504430Y0298630D02*
X0498264Y0298630D01*
X0498264Y0299005D02*
X0504430Y0299005D01*
X0504430Y0299380D02*
X0498264Y0299380D01*
X0498264Y0296286D02*
X0504430Y0296286D01*
X0498264Y0296286D02*
X0498264Y0297412D01*
X0504430Y0297412D01*
X0504430Y0296286D01*
X0504430Y0296661D02*
X0498264Y0296661D01*
X0498264Y0297036D02*
X0504430Y0297036D01*
X0504430Y0297411D02*
X0498264Y0297411D01*
X0498264Y0294318D02*
X0504430Y0294318D01*
X0498264Y0294318D02*
X0498264Y0295444D01*
X0504430Y0295444D01*
X0504430Y0294318D01*
X0504430Y0294693D02*
X0498264Y0294693D01*
X0498264Y0295068D02*
X0504430Y0295068D01*
X0504430Y0295443D02*
X0498264Y0295443D01*
X0498264Y0292349D02*
X0504430Y0292349D01*
X0498264Y0292349D02*
X0498264Y0293475D01*
X0504430Y0293475D01*
X0504430Y0292349D01*
X0504430Y0292724D02*
X0498264Y0292724D01*
X0498264Y0293099D02*
X0504430Y0293099D01*
X0504430Y0293474D02*
X0498264Y0293474D01*
X0498264Y0290381D02*
X0504430Y0290381D01*
X0498264Y0290381D02*
X0498264Y0291507D01*
X0504430Y0291507D01*
X0504430Y0290381D01*
X0504430Y0290756D02*
X0498264Y0290756D01*
X0498264Y0291131D02*
X0504430Y0291131D01*
X0504430Y0291506D02*
X0498264Y0291506D01*
X0498264Y0288412D02*
X0504430Y0288412D01*
X0498264Y0288412D02*
X0498264Y0289538D01*
X0504430Y0289538D01*
X0504430Y0288412D01*
X0504430Y0288787D02*
X0498264Y0288787D01*
X0498264Y0289162D02*
X0504430Y0289162D01*
X0504430Y0289537D02*
X0498264Y0289537D01*
X0498264Y0286444D02*
X0504430Y0286444D01*
X0498264Y0286444D02*
X0498264Y0287570D01*
X0504430Y0287570D01*
X0504430Y0286444D01*
X0504430Y0286819D02*
X0498264Y0286819D01*
X0498264Y0287194D02*
X0504430Y0287194D01*
X0504430Y0287569D02*
X0498264Y0287569D01*
X0498264Y0284475D02*
X0504430Y0284475D01*
X0498264Y0284475D02*
X0498264Y0285601D01*
X0504430Y0285601D01*
X0504430Y0284475D01*
X0504430Y0284850D02*
X0498264Y0284850D01*
X0498264Y0285225D02*
X0504430Y0285225D01*
X0504430Y0285600D02*
X0498264Y0285600D01*
X0498264Y0282507D02*
X0504430Y0282507D01*
X0498264Y0282507D02*
X0498264Y0283633D01*
X0504430Y0283633D01*
X0504430Y0282507D01*
X0504430Y0282882D02*
X0498264Y0282882D01*
X0498264Y0283257D02*
X0504430Y0283257D01*
X0504430Y0283632D02*
X0498264Y0283632D01*
X0498264Y0280538D02*
X0504430Y0280538D01*
X0498264Y0280538D02*
X0498264Y0281664D01*
X0504430Y0281664D01*
X0504430Y0280538D01*
X0504430Y0280913D02*
X0498264Y0280913D01*
X0498264Y0281288D02*
X0504430Y0281288D01*
X0504430Y0281663D02*
X0498264Y0281663D01*
X0494312Y0276586D02*
X0494312Y0270420D01*
X0493186Y0270420D01*
X0493186Y0276586D01*
X0494312Y0276586D01*
X0494312Y0270795D02*
X0493186Y0270795D01*
X0493186Y0271170D02*
X0494312Y0271170D01*
X0494312Y0271545D02*
X0493186Y0271545D01*
X0493186Y0271920D02*
X0494312Y0271920D01*
X0494312Y0272295D02*
X0493186Y0272295D01*
X0493186Y0272670D02*
X0494312Y0272670D01*
X0494312Y0273045D02*
X0493186Y0273045D01*
X0493186Y0273420D02*
X0494312Y0273420D01*
X0494312Y0273795D02*
X0493186Y0273795D01*
X0493186Y0274170D02*
X0494312Y0274170D01*
X0494312Y0274545D02*
X0493186Y0274545D01*
X0493186Y0274920D02*
X0494312Y0274920D01*
X0494312Y0275295D02*
X0493186Y0275295D01*
X0493186Y0275670D02*
X0494312Y0275670D01*
X0494312Y0276045D02*
X0493186Y0276045D01*
X0493186Y0276420D02*
X0494312Y0276420D01*
X0492343Y0276586D02*
X0492343Y0270420D01*
X0491217Y0270420D01*
X0491217Y0276586D01*
X0492343Y0276586D01*
X0492343Y0270795D02*
X0491217Y0270795D01*
X0491217Y0271170D02*
X0492343Y0271170D01*
X0492343Y0271545D02*
X0491217Y0271545D01*
X0491217Y0271920D02*
X0492343Y0271920D01*
X0492343Y0272295D02*
X0491217Y0272295D01*
X0491217Y0272670D02*
X0492343Y0272670D01*
X0492343Y0273045D02*
X0491217Y0273045D01*
X0491217Y0273420D02*
X0492343Y0273420D01*
X0492343Y0273795D02*
X0491217Y0273795D01*
X0491217Y0274170D02*
X0492343Y0274170D01*
X0492343Y0274545D02*
X0491217Y0274545D01*
X0491217Y0274920D02*
X0492343Y0274920D01*
X0492343Y0275295D02*
X0491217Y0275295D01*
X0491217Y0275670D02*
X0492343Y0275670D01*
X0492343Y0276045D02*
X0491217Y0276045D01*
X0491217Y0276420D02*
X0492343Y0276420D01*
X0490375Y0276586D02*
X0490375Y0270420D01*
X0489249Y0270420D01*
X0489249Y0276586D01*
X0490375Y0276586D01*
X0490375Y0270795D02*
X0489249Y0270795D01*
X0489249Y0271170D02*
X0490375Y0271170D01*
X0490375Y0271545D02*
X0489249Y0271545D01*
X0489249Y0271920D02*
X0490375Y0271920D01*
X0490375Y0272295D02*
X0489249Y0272295D01*
X0489249Y0272670D02*
X0490375Y0272670D01*
X0490375Y0273045D02*
X0489249Y0273045D01*
X0489249Y0273420D02*
X0490375Y0273420D01*
X0490375Y0273795D02*
X0489249Y0273795D01*
X0489249Y0274170D02*
X0490375Y0274170D01*
X0490375Y0274545D02*
X0489249Y0274545D01*
X0489249Y0274920D02*
X0490375Y0274920D01*
X0490375Y0275295D02*
X0489249Y0275295D01*
X0489249Y0275670D02*
X0490375Y0275670D01*
X0490375Y0276045D02*
X0489249Y0276045D01*
X0489249Y0276420D02*
X0490375Y0276420D01*
X0488406Y0276586D02*
X0488406Y0270420D01*
X0487280Y0270420D01*
X0487280Y0276586D01*
X0488406Y0276586D01*
X0488406Y0270795D02*
X0487280Y0270795D01*
X0487280Y0271170D02*
X0488406Y0271170D01*
X0488406Y0271545D02*
X0487280Y0271545D01*
X0487280Y0271920D02*
X0488406Y0271920D01*
X0488406Y0272295D02*
X0487280Y0272295D01*
X0487280Y0272670D02*
X0488406Y0272670D01*
X0488406Y0273045D02*
X0487280Y0273045D01*
X0487280Y0273420D02*
X0488406Y0273420D01*
X0488406Y0273795D02*
X0487280Y0273795D01*
X0487280Y0274170D02*
X0488406Y0274170D01*
X0488406Y0274545D02*
X0487280Y0274545D01*
X0487280Y0274920D02*
X0488406Y0274920D01*
X0488406Y0275295D02*
X0487280Y0275295D01*
X0487280Y0275670D02*
X0488406Y0275670D01*
X0488406Y0276045D02*
X0487280Y0276045D01*
X0487280Y0276420D02*
X0488406Y0276420D01*
X0486438Y0276586D02*
X0486438Y0270420D01*
X0485312Y0270420D01*
X0485312Y0276586D01*
X0486438Y0276586D01*
X0486438Y0270795D02*
X0485312Y0270795D01*
X0485312Y0271170D02*
X0486438Y0271170D01*
X0486438Y0271545D02*
X0485312Y0271545D01*
X0485312Y0271920D02*
X0486438Y0271920D01*
X0486438Y0272295D02*
X0485312Y0272295D01*
X0485312Y0272670D02*
X0486438Y0272670D01*
X0486438Y0273045D02*
X0485312Y0273045D01*
X0485312Y0273420D02*
X0486438Y0273420D01*
X0486438Y0273795D02*
X0485312Y0273795D01*
X0485312Y0274170D02*
X0486438Y0274170D01*
X0486438Y0274545D02*
X0485312Y0274545D01*
X0485312Y0274920D02*
X0486438Y0274920D01*
X0486438Y0275295D02*
X0485312Y0275295D01*
X0485312Y0275670D02*
X0486438Y0275670D01*
X0486438Y0276045D02*
X0485312Y0276045D01*
X0485312Y0276420D02*
X0486438Y0276420D01*
X0484469Y0276586D02*
X0484469Y0270420D01*
X0483343Y0270420D01*
X0483343Y0276586D01*
X0484469Y0276586D01*
X0484469Y0270795D02*
X0483343Y0270795D01*
X0483343Y0271170D02*
X0484469Y0271170D01*
X0484469Y0271545D02*
X0483343Y0271545D01*
X0483343Y0271920D02*
X0484469Y0271920D01*
X0484469Y0272295D02*
X0483343Y0272295D01*
X0483343Y0272670D02*
X0484469Y0272670D01*
X0484469Y0273045D02*
X0483343Y0273045D01*
X0483343Y0273420D02*
X0484469Y0273420D01*
X0484469Y0273795D02*
X0483343Y0273795D01*
X0483343Y0274170D02*
X0484469Y0274170D01*
X0484469Y0274545D02*
X0483343Y0274545D01*
X0483343Y0274920D02*
X0484469Y0274920D01*
X0484469Y0275295D02*
X0483343Y0275295D01*
X0483343Y0275670D02*
X0484469Y0275670D01*
X0484469Y0276045D02*
X0483343Y0276045D01*
X0483343Y0276420D02*
X0484469Y0276420D01*
X0482501Y0276586D02*
X0482501Y0270420D01*
X0481375Y0270420D01*
X0481375Y0276586D01*
X0482501Y0276586D01*
X0482501Y0270795D02*
X0481375Y0270795D01*
X0481375Y0271170D02*
X0482501Y0271170D01*
X0482501Y0271545D02*
X0481375Y0271545D01*
X0481375Y0271920D02*
X0482501Y0271920D01*
X0482501Y0272295D02*
X0481375Y0272295D01*
X0481375Y0272670D02*
X0482501Y0272670D01*
X0482501Y0273045D02*
X0481375Y0273045D01*
X0481375Y0273420D02*
X0482501Y0273420D01*
X0482501Y0273795D02*
X0481375Y0273795D01*
X0481375Y0274170D02*
X0482501Y0274170D01*
X0482501Y0274545D02*
X0481375Y0274545D01*
X0481375Y0274920D02*
X0482501Y0274920D01*
X0482501Y0275295D02*
X0481375Y0275295D01*
X0481375Y0275670D02*
X0482501Y0275670D01*
X0482501Y0276045D02*
X0481375Y0276045D01*
X0481375Y0276420D02*
X0482501Y0276420D01*
X0480532Y0276586D02*
X0480532Y0270420D01*
X0479406Y0270420D01*
X0479406Y0276586D01*
X0480532Y0276586D01*
X0480532Y0270795D02*
X0479406Y0270795D01*
X0479406Y0271170D02*
X0480532Y0271170D01*
X0480532Y0271545D02*
X0479406Y0271545D01*
X0479406Y0271920D02*
X0480532Y0271920D01*
X0480532Y0272295D02*
X0479406Y0272295D01*
X0479406Y0272670D02*
X0480532Y0272670D01*
X0480532Y0273045D02*
X0479406Y0273045D01*
X0479406Y0273420D02*
X0480532Y0273420D01*
X0480532Y0273795D02*
X0479406Y0273795D01*
X0479406Y0274170D02*
X0480532Y0274170D01*
X0480532Y0274545D02*
X0479406Y0274545D01*
X0479406Y0274920D02*
X0480532Y0274920D01*
X0480532Y0275295D02*
X0479406Y0275295D01*
X0479406Y0275670D02*
X0480532Y0275670D01*
X0480532Y0276045D02*
X0479406Y0276045D01*
X0479406Y0276420D02*
X0480532Y0276420D01*
X0478564Y0276586D02*
X0478564Y0270420D01*
X0477438Y0270420D01*
X0477438Y0276586D01*
X0478564Y0276586D01*
X0478564Y0270795D02*
X0477438Y0270795D01*
X0477438Y0271170D02*
X0478564Y0271170D01*
X0478564Y0271545D02*
X0477438Y0271545D01*
X0477438Y0271920D02*
X0478564Y0271920D01*
X0478564Y0272295D02*
X0477438Y0272295D01*
X0477438Y0272670D02*
X0478564Y0272670D01*
X0478564Y0273045D02*
X0477438Y0273045D01*
X0477438Y0273420D02*
X0478564Y0273420D01*
X0478564Y0273795D02*
X0477438Y0273795D01*
X0477438Y0274170D02*
X0478564Y0274170D01*
X0478564Y0274545D02*
X0477438Y0274545D01*
X0477438Y0274920D02*
X0478564Y0274920D01*
X0478564Y0275295D02*
X0477438Y0275295D01*
X0477438Y0275670D02*
X0478564Y0275670D01*
X0478564Y0276045D02*
X0477438Y0276045D01*
X0477438Y0276420D02*
X0478564Y0276420D01*
X0476595Y0276586D02*
X0476595Y0270420D01*
X0475469Y0270420D01*
X0475469Y0276586D01*
X0476595Y0276586D01*
X0476595Y0270795D02*
X0475469Y0270795D01*
X0475469Y0271170D02*
X0476595Y0271170D01*
X0476595Y0271545D02*
X0475469Y0271545D01*
X0475469Y0271920D02*
X0476595Y0271920D01*
X0476595Y0272295D02*
X0475469Y0272295D01*
X0475469Y0272670D02*
X0476595Y0272670D01*
X0476595Y0273045D02*
X0475469Y0273045D01*
X0475469Y0273420D02*
X0476595Y0273420D01*
X0476595Y0273795D02*
X0475469Y0273795D01*
X0475469Y0274170D02*
X0476595Y0274170D01*
X0476595Y0274545D02*
X0475469Y0274545D01*
X0475469Y0274920D02*
X0476595Y0274920D01*
X0476595Y0275295D02*
X0475469Y0275295D01*
X0475469Y0275670D02*
X0476595Y0275670D01*
X0476595Y0276045D02*
X0475469Y0276045D01*
X0475469Y0276420D02*
X0476595Y0276420D01*
X0474627Y0276586D02*
X0474627Y0270420D01*
X0473501Y0270420D01*
X0473501Y0276586D01*
X0474627Y0276586D01*
X0474627Y0270795D02*
X0473501Y0270795D01*
X0473501Y0271170D02*
X0474627Y0271170D01*
X0474627Y0271545D02*
X0473501Y0271545D01*
X0473501Y0271920D02*
X0474627Y0271920D01*
X0474627Y0272295D02*
X0473501Y0272295D01*
X0473501Y0272670D02*
X0474627Y0272670D01*
X0474627Y0273045D02*
X0473501Y0273045D01*
X0473501Y0273420D02*
X0474627Y0273420D01*
X0474627Y0273795D02*
X0473501Y0273795D01*
X0473501Y0274170D02*
X0474627Y0274170D01*
X0474627Y0274545D02*
X0473501Y0274545D01*
X0473501Y0274920D02*
X0474627Y0274920D01*
X0474627Y0275295D02*
X0473501Y0275295D01*
X0473501Y0275670D02*
X0474627Y0275670D01*
X0474627Y0276045D02*
X0473501Y0276045D01*
X0473501Y0276420D02*
X0474627Y0276420D01*
X0472658Y0276586D02*
X0472658Y0270420D01*
X0471532Y0270420D01*
X0471532Y0276586D01*
X0472658Y0276586D01*
X0472658Y0270795D02*
X0471532Y0270795D01*
X0471532Y0271170D02*
X0472658Y0271170D01*
X0472658Y0271545D02*
X0471532Y0271545D01*
X0471532Y0271920D02*
X0472658Y0271920D01*
X0472658Y0272295D02*
X0471532Y0272295D01*
X0471532Y0272670D02*
X0472658Y0272670D01*
X0472658Y0273045D02*
X0471532Y0273045D01*
X0471532Y0273420D02*
X0472658Y0273420D01*
X0472658Y0273795D02*
X0471532Y0273795D01*
X0471532Y0274170D02*
X0472658Y0274170D01*
X0472658Y0274545D02*
X0471532Y0274545D01*
X0471532Y0274920D02*
X0472658Y0274920D01*
X0472658Y0275295D02*
X0471532Y0275295D01*
X0471532Y0275670D02*
X0472658Y0275670D01*
X0472658Y0276045D02*
X0471532Y0276045D01*
X0471532Y0276420D02*
X0472658Y0276420D01*
X0470690Y0276586D02*
X0470690Y0270420D01*
X0469564Y0270420D01*
X0469564Y0276586D01*
X0470690Y0276586D01*
X0470690Y0270795D02*
X0469564Y0270795D01*
X0469564Y0271170D02*
X0470690Y0271170D01*
X0470690Y0271545D02*
X0469564Y0271545D01*
X0469564Y0271920D02*
X0470690Y0271920D01*
X0470690Y0272295D02*
X0469564Y0272295D01*
X0469564Y0272670D02*
X0470690Y0272670D01*
X0470690Y0273045D02*
X0469564Y0273045D01*
X0469564Y0273420D02*
X0470690Y0273420D01*
X0470690Y0273795D02*
X0469564Y0273795D01*
X0469564Y0274170D02*
X0470690Y0274170D01*
X0470690Y0274545D02*
X0469564Y0274545D01*
X0469564Y0274920D02*
X0470690Y0274920D01*
X0470690Y0275295D02*
X0469564Y0275295D01*
X0469564Y0275670D02*
X0470690Y0275670D01*
X0470690Y0276045D02*
X0469564Y0276045D01*
X0469564Y0276420D02*
X0470690Y0276420D01*
X0468721Y0276586D02*
X0468721Y0270420D01*
X0467595Y0270420D01*
X0467595Y0276586D01*
X0468721Y0276586D01*
X0468721Y0270795D02*
X0467595Y0270795D01*
X0467595Y0271170D02*
X0468721Y0271170D01*
X0468721Y0271545D02*
X0467595Y0271545D01*
X0467595Y0271920D02*
X0468721Y0271920D01*
X0468721Y0272295D02*
X0467595Y0272295D01*
X0467595Y0272670D02*
X0468721Y0272670D01*
X0468721Y0273045D02*
X0467595Y0273045D01*
X0467595Y0273420D02*
X0468721Y0273420D01*
X0468721Y0273795D02*
X0467595Y0273795D01*
X0467595Y0274170D02*
X0468721Y0274170D01*
X0468721Y0274545D02*
X0467595Y0274545D01*
X0467595Y0274920D02*
X0468721Y0274920D01*
X0468721Y0275295D02*
X0467595Y0275295D01*
X0467595Y0275670D02*
X0468721Y0275670D01*
X0468721Y0276045D02*
X0467595Y0276045D01*
X0467595Y0276420D02*
X0468721Y0276420D01*
X0466753Y0276586D02*
X0466753Y0270420D01*
X0465627Y0270420D01*
X0465627Y0276586D01*
X0466753Y0276586D01*
X0466753Y0270795D02*
X0465627Y0270795D01*
X0465627Y0271170D02*
X0466753Y0271170D01*
X0466753Y0271545D02*
X0465627Y0271545D01*
X0465627Y0271920D02*
X0466753Y0271920D01*
X0466753Y0272295D02*
X0465627Y0272295D01*
X0465627Y0272670D02*
X0466753Y0272670D01*
X0466753Y0273045D02*
X0465627Y0273045D01*
X0465627Y0273420D02*
X0466753Y0273420D01*
X0466753Y0273795D02*
X0465627Y0273795D01*
X0465627Y0274170D02*
X0466753Y0274170D01*
X0466753Y0274545D02*
X0465627Y0274545D01*
X0465627Y0274920D02*
X0466753Y0274920D01*
X0466753Y0275295D02*
X0465627Y0275295D01*
X0465627Y0275670D02*
X0466753Y0275670D01*
X0466753Y0276045D02*
X0465627Y0276045D01*
X0465627Y0276420D02*
X0466753Y0276420D01*
X0464784Y0276586D02*
X0464784Y0270420D01*
X0463658Y0270420D01*
X0463658Y0276586D01*
X0464784Y0276586D01*
X0464784Y0270795D02*
X0463658Y0270795D01*
X0463658Y0271170D02*
X0464784Y0271170D01*
X0464784Y0271545D02*
X0463658Y0271545D01*
X0463658Y0271920D02*
X0464784Y0271920D01*
X0464784Y0272295D02*
X0463658Y0272295D01*
X0463658Y0272670D02*
X0464784Y0272670D01*
X0464784Y0273045D02*
X0463658Y0273045D01*
X0463658Y0273420D02*
X0464784Y0273420D01*
X0464784Y0273795D02*
X0463658Y0273795D01*
X0463658Y0274170D02*
X0464784Y0274170D01*
X0464784Y0274545D02*
X0463658Y0274545D01*
X0463658Y0274920D02*
X0464784Y0274920D01*
X0464784Y0275295D02*
X0463658Y0275295D01*
X0463658Y0275670D02*
X0464784Y0275670D01*
X0464784Y0276045D02*
X0463658Y0276045D01*
X0463658Y0276420D02*
X0464784Y0276420D01*
X0462816Y0276586D02*
X0462816Y0270420D01*
X0461690Y0270420D01*
X0461690Y0276586D01*
X0462816Y0276586D01*
X0462816Y0270795D02*
X0461690Y0270795D01*
X0461690Y0271170D02*
X0462816Y0271170D01*
X0462816Y0271545D02*
X0461690Y0271545D01*
X0461690Y0271920D02*
X0462816Y0271920D01*
X0462816Y0272295D02*
X0461690Y0272295D01*
X0461690Y0272670D02*
X0462816Y0272670D01*
X0462816Y0273045D02*
X0461690Y0273045D01*
X0461690Y0273420D02*
X0462816Y0273420D01*
X0462816Y0273795D02*
X0461690Y0273795D01*
X0461690Y0274170D02*
X0462816Y0274170D01*
X0462816Y0274545D02*
X0461690Y0274545D01*
X0461690Y0274920D02*
X0462816Y0274920D01*
X0462816Y0275295D02*
X0461690Y0275295D01*
X0461690Y0275670D02*
X0462816Y0275670D01*
X0462816Y0276045D02*
X0461690Y0276045D01*
X0461690Y0276420D02*
X0462816Y0276420D01*
X0460847Y0276586D02*
X0460847Y0270420D01*
X0459721Y0270420D01*
X0459721Y0276586D01*
X0460847Y0276586D01*
X0460847Y0270795D02*
X0459721Y0270795D01*
X0459721Y0271170D02*
X0460847Y0271170D01*
X0460847Y0271545D02*
X0459721Y0271545D01*
X0459721Y0271920D02*
X0460847Y0271920D01*
X0460847Y0272295D02*
X0459721Y0272295D01*
X0459721Y0272670D02*
X0460847Y0272670D01*
X0460847Y0273045D02*
X0459721Y0273045D01*
X0459721Y0273420D02*
X0460847Y0273420D01*
X0460847Y0273795D02*
X0459721Y0273795D01*
X0459721Y0274170D02*
X0460847Y0274170D01*
X0460847Y0274545D02*
X0459721Y0274545D01*
X0459721Y0274920D02*
X0460847Y0274920D01*
X0460847Y0275295D02*
X0459721Y0275295D01*
X0459721Y0275670D02*
X0460847Y0275670D01*
X0460847Y0276045D02*
X0459721Y0276045D01*
X0459721Y0276420D02*
X0460847Y0276420D01*
X0458879Y0276586D02*
X0458879Y0270420D01*
X0457753Y0270420D01*
X0457753Y0276586D01*
X0458879Y0276586D01*
X0458879Y0270795D02*
X0457753Y0270795D01*
X0457753Y0271170D02*
X0458879Y0271170D01*
X0458879Y0271545D02*
X0457753Y0271545D01*
X0457753Y0271920D02*
X0458879Y0271920D01*
X0458879Y0272295D02*
X0457753Y0272295D01*
X0457753Y0272670D02*
X0458879Y0272670D01*
X0458879Y0273045D02*
X0457753Y0273045D01*
X0457753Y0273420D02*
X0458879Y0273420D01*
X0458879Y0273795D02*
X0457753Y0273795D01*
X0457753Y0274170D02*
X0458879Y0274170D01*
X0458879Y0274545D02*
X0457753Y0274545D01*
X0457753Y0274920D02*
X0458879Y0274920D01*
X0458879Y0275295D02*
X0457753Y0275295D01*
X0457753Y0275670D02*
X0458879Y0275670D01*
X0458879Y0276045D02*
X0457753Y0276045D01*
X0457753Y0276420D02*
X0458879Y0276420D01*
X0456910Y0276586D02*
X0456910Y0270420D01*
X0455784Y0270420D01*
X0455784Y0276586D01*
X0456910Y0276586D01*
X0456910Y0270795D02*
X0455784Y0270795D01*
X0455784Y0271170D02*
X0456910Y0271170D01*
X0456910Y0271545D02*
X0455784Y0271545D01*
X0455784Y0271920D02*
X0456910Y0271920D01*
X0456910Y0272295D02*
X0455784Y0272295D01*
X0455784Y0272670D02*
X0456910Y0272670D01*
X0456910Y0273045D02*
X0455784Y0273045D01*
X0455784Y0273420D02*
X0456910Y0273420D01*
X0456910Y0273795D02*
X0455784Y0273795D01*
X0455784Y0274170D02*
X0456910Y0274170D01*
X0456910Y0274545D02*
X0455784Y0274545D01*
X0455784Y0274920D02*
X0456910Y0274920D01*
X0456910Y0275295D02*
X0455784Y0275295D01*
X0455784Y0275670D02*
X0456910Y0275670D01*
X0456910Y0276045D02*
X0455784Y0276045D01*
X0455784Y0276420D02*
X0456910Y0276420D01*
X0454942Y0276586D02*
X0454942Y0270420D01*
X0453816Y0270420D01*
X0453816Y0276586D01*
X0454942Y0276586D01*
X0454942Y0270795D02*
X0453816Y0270795D01*
X0453816Y0271170D02*
X0454942Y0271170D01*
X0454942Y0271545D02*
X0453816Y0271545D01*
X0453816Y0271920D02*
X0454942Y0271920D01*
X0454942Y0272295D02*
X0453816Y0272295D01*
X0453816Y0272670D02*
X0454942Y0272670D01*
X0454942Y0273045D02*
X0453816Y0273045D01*
X0453816Y0273420D02*
X0454942Y0273420D01*
X0454942Y0273795D02*
X0453816Y0273795D01*
X0453816Y0274170D02*
X0454942Y0274170D01*
X0454942Y0274545D02*
X0453816Y0274545D01*
X0453816Y0274920D02*
X0454942Y0274920D01*
X0454942Y0275295D02*
X0453816Y0275295D01*
X0453816Y0275670D02*
X0454942Y0275670D01*
X0454942Y0276045D02*
X0453816Y0276045D01*
X0453816Y0276420D02*
X0454942Y0276420D01*
X0452973Y0276586D02*
X0452973Y0270420D01*
X0451847Y0270420D01*
X0451847Y0276586D01*
X0452973Y0276586D01*
X0452973Y0270795D02*
X0451847Y0270795D01*
X0451847Y0271170D02*
X0452973Y0271170D01*
X0452973Y0271545D02*
X0451847Y0271545D01*
X0451847Y0271920D02*
X0452973Y0271920D01*
X0452973Y0272295D02*
X0451847Y0272295D01*
X0451847Y0272670D02*
X0452973Y0272670D01*
X0452973Y0273045D02*
X0451847Y0273045D01*
X0451847Y0273420D02*
X0452973Y0273420D01*
X0452973Y0273795D02*
X0451847Y0273795D01*
X0451847Y0274170D02*
X0452973Y0274170D01*
X0452973Y0274545D02*
X0451847Y0274545D01*
X0451847Y0274920D02*
X0452973Y0274920D01*
X0452973Y0275295D02*
X0451847Y0275295D01*
X0451847Y0275670D02*
X0452973Y0275670D01*
X0452973Y0276045D02*
X0451847Y0276045D01*
X0451847Y0276420D02*
X0452973Y0276420D01*
X0451005Y0276586D02*
X0451005Y0270420D01*
X0449879Y0270420D01*
X0449879Y0276586D01*
X0451005Y0276586D01*
X0451005Y0270795D02*
X0449879Y0270795D01*
X0449879Y0271170D02*
X0451005Y0271170D01*
X0451005Y0271545D02*
X0449879Y0271545D01*
X0449879Y0271920D02*
X0451005Y0271920D01*
X0451005Y0272295D02*
X0449879Y0272295D01*
X0449879Y0272670D02*
X0451005Y0272670D01*
X0451005Y0273045D02*
X0449879Y0273045D01*
X0449879Y0273420D02*
X0451005Y0273420D01*
X0451005Y0273795D02*
X0449879Y0273795D01*
X0449879Y0274170D02*
X0451005Y0274170D01*
X0451005Y0274545D02*
X0449879Y0274545D01*
X0449879Y0274920D02*
X0451005Y0274920D01*
X0451005Y0275295D02*
X0449879Y0275295D01*
X0449879Y0275670D02*
X0451005Y0275670D01*
X0451005Y0276045D02*
X0449879Y0276045D01*
X0449879Y0276420D02*
X0451005Y0276420D01*
X0449036Y0276586D02*
X0449036Y0270420D01*
X0447910Y0270420D01*
X0447910Y0276586D01*
X0449036Y0276586D01*
X0449036Y0270795D02*
X0447910Y0270795D01*
X0447910Y0271170D02*
X0449036Y0271170D01*
X0449036Y0271545D02*
X0447910Y0271545D01*
X0447910Y0271920D02*
X0449036Y0271920D01*
X0449036Y0272295D02*
X0447910Y0272295D01*
X0447910Y0272670D02*
X0449036Y0272670D01*
X0449036Y0273045D02*
X0447910Y0273045D01*
X0447910Y0273420D02*
X0449036Y0273420D01*
X0449036Y0273795D02*
X0447910Y0273795D01*
X0447910Y0274170D02*
X0449036Y0274170D01*
X0449036Y0274545D02*
X0447910Y0274545D01*
X0447910Y0274920D02*
X0449036Y0274920D01*
X0449036Y0275295D02*
X0447910Y0275295D01*
X0447910Y0275670D02*
X0449036Y0275670D01*
X0449036Y0276045D02*
X0447910Y0276045D01*
X0447910Y0276420D02*
X0449036Y0276420D01*
X0447068Y0276586D02*
X0447068Y0270420D01*
X0445942Y0270420D01*
X0445942Y0276586D01*
X0447068Y0276586D01*
X0447068Y0270795D02*
X0445942Y0270795D01*
X0445942Y0271170D02*
X0447068Y0271170D01*
X0447068Y0271545D02*
X0445942Y0271545D01*
X0445942Y0271920D02*
X0447068Y0271920D01*
X0447068Y0272295D02*
X0445942Y0272295D01*
X0445942Y0272670D02*
X0447068Y0272670D01*
X0447068Y0273045D02*
X0445942Y0273045D01*
X0445942Y0273420D02*
X0447068Y0273420D01*
X0447068Y0273795D02*
X0445942Y0273795D01*
X0445942Y0274170D02*
X0447068Y0274170D01*
X0447068Y0274545D02*
X0445942Y0274545D01*
X0445942Y0274920D02*
X0447068Y0274920D01*
X0447068Y0275295D02*
X0445942Y0275295D01*
X0445942Y0275670D02*
X0447068Y0275670D01*
X0447068Y0276045D02*
X0445942Y0276045D01*
X0445942Y0276420D02*
X0447068Y0276420D01*
X0445099Y0276586D02*
X0445099Y0270420D01*
X0443973Y0270420D01*
X0443973Y0276586D01*
X0445099Y0276586D01*
X0445099Y0270795D02*
X0443973Y0270795D01*
X0443973Y0271170D02*
X0445099Y0271170D01*
X0445099Y0271545D02*
X0443973Y0271545D01*
X0443973Y0271920D02*
X0445099Y0271920D01*
X0445099Y0272295D02*
X0443973Y0272295D01*
X0443973Y0272670D02*
X0445099Y0272670D01*
X0445099Y0273045D02*
X0443973Y0273045D01*
X0443973Y0273420D02*
X0445099Y0273420D01*
X0445099Y0273795D02*
X0443973Y0273795D01*
X0443973Y0274170D02*
X0445099Y0274170D01*
X0445099Y0274545D02*
X0443973Y0274545D01*
X0443973Y0274920D02*
X0445099Y0274920D01*
X0445099Y0275295D02*
X0443973Y0275295D01*
X0443973Y0275670D02*
X0445099Y0275670D01*
X0445099Y0276045D02*
X0443973Y0276045D01*
X0443973Y0276420D02*
X0445099Y0276420D01*
X0443131Y0276586D02*
X0443131Y0270420D01*
X0442005Y0270420D01*
X0442005Y0276586D01*
X0443131Y0276586D01*
X0443131Y0270795D02*
X0442005Y0270795D01*
X0442005Y0271170D02*
X0443131Y0271170D01*
X0443131Y0271545D02*
X0442005Y0271545D01*
X0442005Y0271920D02*
X0443131Y0271920D01*
X0443131Y0272295D02*
X0442005Y0272295D01*
X0442005Y0272670D02*
X0443131Y0272670D01*
X0443131Y0273045D02*
X0442005Y0273045D01*
X0442005Y0273420D02*
X0443131Y0273420D01*
X0443131Y0273795D02*
X0442005Y0273795D01*
X0442005Y0274170D02*
X0443131Y0274170D01*
X0443131Y0274545D02*
X0442005Y0274545D01*
X0442005Y0274920D02*
X0443131Y0274920D01*
X0443131Y0275295D02*
X0442005Y0275295D01*
X0442005Y0275670D02*
X0443131Y0275670D01*
X0443131Y0276045D02*
X0442005Y0276045D01*
X0442005Y0276420D02*
X0443131Y0276420D01*
X0441162Y0276586D02*
X0441162Y0270420D01*
X0440036Y0270420D01*
X0440036Y0276586D01*
X0441162Y0276586D01*
X0441162Y0270795D02*
X0440036Y0270795D01*
X0440036Y0271170D02*
X0441162Y0271170D01*
X0441162Y0271545D02*
X0440036Y0271545D01*
X0440036Y0271920D02*
X0441162Y0271920D01*
X0441162Y0272295D02*
X0440036Y0272295D01*
X0440036Y0272670D02*
X0441162Y0272670D01*
X0441162Y0273045D02*
X0440036Y0273045D01*
X0440036Y0273420D02*
X0441162Y0273420D01*
X0441162Y0273795D02*
X0440036Y0273795D01*
X0440036Y0274170D02*
X0441162Y0274170D01*
X0441162Y0274545D02*
X0440036Y0274545D01*
X0440036Y0274920D02*
X0441162Y0274920D01*
X0441162Y0275295D02*
X0440036Y0275295D01*
X0440036Y0275670D02*
X0441162Y0275670D01*
X0441162Y0276045D02*
X0440036Y0276045D01*
X0440036Y0276420D02*
X0441162Y0276420D01*
X0439194Y0276586D02*
X0439194Y0270420D01*
X0438068Y0270420D01*
X0438068Y0276586D01*
X0439194Y0276586D01*
X0439194Y0270795D02*
X0438068Y0270795D01*
X0438068Y0271170D02*
X0439194Y0271170D01*
X0439194Y0271545D02*
X0438068Y0271545D01*
X0438068Y0271920D02*
X0439194Y0271920D01*
X0439194Y0272295D02*
X0438068Y0272295D01*
X0438068Y0272670D02*
X0439194Y0272670D01*
X0439194Y0273045D02*
X0438068Y0273045D01*
X0438068Y0273420D02*
X0439194Y0273420D01*
X0439194Y0273795D02*
X0438068Y0273795D01*
X0438068Y0274170D02*
X0439194Y0274170D01*
X0439194Y0274545D02*
X0438068Y0274545D01*
X0438068Y0274920D02*
X0439194Y0274920D01*
X0439194Y0275295D02*
X0438068Y0275295D01*
X0438068Y0275670D02*
X0439194Y0275670D01*
X0439194Y0276045D02*
X0438068Y0276045D01*
X0438068Y0276420D02*
X0439194Y0276420D01*
X0437225Y0276586D02*
X0437225Y0270420D01*
X0436099Y0270420D01*
X0436099Y0276586D01*
X0437225Y0276586D01*
X0437225Y0270795D02*
X0436099Y0270795D01*
X0436099Y0271170D02*
X0437225Y0271170D01*
X0437225Y0271545D02*
X0436099Y0271545D01*
X0436099Y0271920D02*
X0437225Y0271920D01*
X0437225Y0272295D02*
X0436099Y0272295D01*
X0436099Y0272670D02*
X0437225Y0272670D01*
X0437225Y0273045D02*
X0436099Y0273045D01*
X0436099Y0273420D02*
X0437225Y0273420D01*
X0437225Y0273795D02*
X0436099Y0273795D01*
X0436099Y0274170D02*
X0437225Y0274170D01*
X0437225Y0274545D02*
X0436099Y0274545D01*
X0436099Y0274920D02*
X0437225Y0274920D01*
X0437225Y0275295D02*
X0436099Y0275295D01*
X0436099Y0275670D02*
X0437225Y0275670D01*
X0437225Y0276045D02*
X0436099Y0276045D01*
X0436099Y0276420D02*
X0437225Y0276420D01*
X0435257Y0276586D02*
X0435257Y0270420D01*
X0434131Y0270420D01*
X0434131Y0276586D01*
X0435257Y0276586D01*
X0435257Y0270795D02*
X0434131Y0270795D01*
X0434131Y0271170D02*
X0435257Y0271170D01*
X0435257Y0271545D02*
X0434131Y0271545D01*
X0434131Y0271920D02*
X0435257Y0271920D01*
X0435257Y0272295D02*
X0434131Y0272295D01*
X0434131Y0272670D02*
X0435257Y0272670D01*
X0435257Y0273045D02*
X0434131Y0273045D01*
X0434131Y0273420D02*
X0435257Y0273420D01*
X0435257Y0273795D02*
X0434131Y0273795D01*
X0434131Y0274170D02*
X0435257Y0274170D01*
X0435257Y0274545D02*
X0434131Y0274545D01*
X0434131Y0274920D02*
X0435257Y0274920D01*
X0435257Y0275295D02*
X0434131Y0275295D01*
X0434131Y0275670D02*
X0435257Y0275670D01*
X0435257Y0276045D02*
X0434131Y0276045D01*
X0434131Y0276420D02*
X0435257Y0276420D01*
X0433288Y0276586D02*
X0433288Y0270420D01*
X0432162Y0270420D01*
X0432162Y0276586D01*
X0433288Y0276586D01*
X0433288Y0270795D02*
X0432162Y0270795D01*
X0432162Y0271170D02*
X0433288Y0271170D01*
X0433288Y0271545D02*
X0432162Y0271545D01*
X0432162Y0271920D02*
X0433288Y0271920D01*
X0433288Y0272295D02*
X0432162Y0272295D01*
X0432162Y0272670D02*
X0433288Y0272670D01*
X0433288Y0273045D02*
X0432162Y0273045D01*
X0432162Y0273420D02*
X0433288Y0273420D01*
X0433288Y0273795D02*
X0432162Y0273795D01*
X0432162Y0274170D02*
X0433288Y0274170D01*
X0433288Y0274545D02*
X0432162Y0274545D01*
X0432162Y0274920D02*
X0433288Y0274920D01*
X0433288Y0275295D02*
X0432162Y0275295D01*
X0432162Y0275670D02*
X0433288Y0275670D01*
X0433288Y0276045D02*
X0432162Y0276045D01*
X0432162Y0276420D02*
X0433288Y0276420D01*
X0431320Y0276586D02*
X0431320Y0270420D01*
X0430194Y0270420D01*
X0430194Y0276586D01*
X0431320Y0276586D01*
X0431320Y0270795D02*
X0430194Y0270795D01*
X0430194Y0271170D02*
X0431320Y0271170D01*
X0431320Y0271545D02*
X0430194Y0271545D01*
X0430194Y0271920D02*
X0431320Y0271920D01*
X0431320Y0272295D02*
X0430194Y0272295D01*
X0430194Y0272670D02*
X0431320Y0272670D01*
X0431320Y0273045D02*
X0430194Y0273045D01*
X0430194Y0273420D02*
X0431320Y0273420D01*
X0431320Y0273795D02*
X0430194Y0273795D01*
X0430194Y0274170D02*
X0431320Y0274170D01*
X0431320Y0274545D02*
X0430194Y0274545D01*
X0430194Y0274920D02*
X0431320Y0274920D01*
X0431320Y0275295D02*
X0430194Y0275295D01*
X0430194Y0275670D02*
X0431320Y0275670D01*
X0431320Y0276045D02*
X0430194Y0276045D01*
X0430194Y0276420D02*
X0431320Y0276420D01*
X0429351Y0276586D02*
X0429351Y0270420D01*
X0428225Y0270420D01*
X0428225Y0276586D01*
X0429351Y0276586D01*
X0429351Y0270795D02*
X0428225Y0270795D01*
X0428225Y0271170D02*
X0429351Y0271170D01*
X0429351Y0271545D02*
X0428225Y0271545D01*
X0428225Y0271920D02*
X0429351Y0271920D01*
X0429351Y0272295D02*
X0428225Y0272295D01*
X0428225Y0272670D02*
X0429351Y0272670D01*
X0429351Y0273045D02*
X0428225Y0273045D01*
X0428225Y0273420D02*
X0429351Y0273420D01*
X0429351Y0273795D02*
X0428225Y0273795D01*
X0428225Y0274170D02*
X0429351Y0274170D01*
X0429351Y0274545D02*
X0428225Y0274545D01*
X0428225Y0274920D02*
X0429351Y0274920D01*
X0429351Y0275295D02*
X0428225Y0275295D01*
X0428225Y0275670D02*
X0429351Y0275670D01*
X0429351Y0276045D02*
X0428225Y0276045D01*
X0428225Y0276420D02*
X0429351Y0276420D01*
X0427383Y0276586D02*
X0427383Y0270420D01*
X0426257Y0270420D01*
X0426257Y0276586D01*
X0427383Y0276586D01*
X0427383Y0270795D02*
X0426257Y0270795D01*
X0426257Y0271170D02*
X0427383Y0271170D01*
X0427383Y0271545D02*
X0426257Y0271545D01*
X0426257Y0271920D02*
X0427383Y0271920D01*
X0427383Y0272295D02*
X0426257Y0272295D01*
X0426257Y0272670D02*
X0427383Y0272670D01*
X0427383Y0273045D02*
X0426257Y0273045D01*
X0426257Y0273420D02*
X0427383Y0273420D01*
X0427383Y0273795D02*
X0426257Y0273795D01*
X0426257Y0274170D02*
X0427383Y0274170D01*
X0427383Y0274545D02*
X0426257Y0274545D01*
X0426257Y0274920D02*
X0427383Y0274920D01*
X0427383Y0275295D02*
X0426257Y0275295D01*
X0426257Y0275670D02*
X0427383Y0275670D01*
X0427383Y0276045D02*
X0426257Y0276045D01*
X0426257Y0276420D02*
X0427383Y0276420D01*
X0425414Y0276586D02*
X0425414Y0270420D01*
X0424288Y0270420D01*
X0424288Y0276586D01*
X0425414Y0276586D01*
X0425414Y0270795D02*
X0424288Y0270795D01*
X0424288Y0271170D02*
X0425414Y0271170D01*
X0425414Y0271545D02*
X0424288Y0271545D01*
X0424288Y0271920D02*
X0425414Y0271920D01*
X0425414Y0272295D02*
X0424288Y0272295D01*
X0424288Y0272670D02*
X0425414Y0272670D01*
X0425414Y0273045D02*
X0424288Y0273045D01*
X0424288Y0273420D02*
X0425414Y0273420D01*
X0425414Y0273795D02*
X0424288Y0273795D01*
X0424288Y0274170D02*
X0425414Y0274170D01*
X0425414Y0274545D02*
X0424288Y0274545D01*
X0424288Y0274920D02*
X0425414Y0274920D01*
X0425414Y0275295D02*
X0424288Y0275295D01*
X0424288Y0275670D02*
X0425414Y0275670D01*
X0425414Y0276045D02*
X0424288Y0276045D01*
X0424288Y0276420D02*
X0425414Y0276420D01*
D17*
X0272280Y0275036D02*
X0266654Y0275036D01*
X0272280Y0275036D02*
X0272280Y0273112D01*
X0266654Y0273112D01*
X0266654Y0275036D01*
X0266654Y0273752D02*
X0272280Y0273752D01*
X0272280Y0274392D02*
X0266654Y0274392D01*
X0266654Y0275032D02*
X0272280Y0275032D01*
X0272280Y0271886D02*
X0266654Y0271886D01*
X0272280Y0271886D02*
X0272280Y0269962D01*
X0266654Y0269962D01*
X0266654Y0271886D01*
X0266654Y0270602D02*
X0272280Y0270602D01*
X0272280Y0271242D02*
X0266654Y0271242D01*
X0266654Y0271882D02*
X0272280Y0271882D01*
X0272280Y0268736D02*
X0266654Y0268736D01*
X0272280Y0268736D02*
X0272280Y0266812D01*
X0266654Y0266812D01*
X0266654Y0268736D01*
X0266654Y0267452D02*
X0272280Y0267452D01*
X0272280Y0268092D02*
X0266654Y0268092D01*
X0266654Y0268732D02*
X0272280Y0268732D01*
X0272280Y0265587D02*
X0266654Y0265587D01*
X0272280Y0265587D02*
X0272280Y0263663D01*
X0266654Y0263663D01*
X0266654Y0265587D01*
X0266654Y0264303D02*
X0272280Y0264303D01*
X0272280Y0264943D02*
X0266654Y0264943D01*
X0266654Y0265583D02*
X0272280Y0265583D01*
X0272280Y0262437D02*
X0266654Y0262437D01*
X0272280Y0262437D02*
X0272280Y0260513D01*
X0266654Y0260513D01*
X0266654Y0262437D01*
X0266654Y0261153D02*
X0272280Y0261153D01*
X0272280Y0261793D02*
X0266654Y0261793D01*
X0266654Y0262433D02*
X0272280Y0262433D01*
X0272280Y0259288D02*
X0266654Y0259288D01*
X0272280Y0259288D02*
X0272280Y0257364D01*
X0266654Y0257364D01*
X0266654Y0259288D01*
X0266654Y0258004D02*
X0272280Y0258004D01*
X0272280Y0258644D02*
X0266654Y0258644D01*
X0266654Y0259284D02*
X0272280Y0259284D01*
X0272280Y0256138D02*
X0266654Y0256138D01*
X0272280Y0256138D02*
X0272280Y0254214D01*
X0266654Y0254214D01*
X0266654Y0256138D01*
X0266654Y0254854D02*
X0272280Y0254854D01*
X0272280Y0255494D02*
X0266654Y0255494D01*
X0266654Y0256134D02*
X0272280Y0256134D01*
X0272280Y0252988D02*
X0266654Y0252988D01*
X0272280Y0252988D02*
X0272280Y0251064D01*
X0266654Y0251064D01*
X0266654Y0252988D01*
X0266654Y0251704D02*
X0272280Y0251704D01*
X0272280Y0252344D02*
X0266654Y0252344D01*
X0266654Y0252984D02*
X0272280Y0252984D01*
X0263112Y0249446D02*
X0263112Y0243820D01*
X0263112Y0249446D02*
X0265036Y0249446D01*
X0265036Y0243820D01*
X0263112Y0243820D01*
X0263112Y0244460D02*
X0265036Y0244460D01*
X0265036Y0245100D02*
X0263112Y0245100D01*
X0263112Y0245740D02*
X0265036Y0245740D01*
X0265036Y0246380D02*
X0263112Y0246380D01*
X0263112Y0247020D02*
X0265036Y0247020D01*
X0265036Y0247660D02*
X0263112Y0247660D01*
X0263112Y0248300D02*
X0265036Y0248300D01*
X0265036Y0248940D02*
X0263112Y0248940D01*
X0259962Y0249446D02*
X0259962Y0243820D01*
X0259962Y0249446D02*
X0261886Y0249446D01*
X0261886Y0243820D01*
X0259962Y0243820D01*
X0259962Y0244460D02*
X0261886Y0244460D01*
X0261886Y0245100D02*
X0259962Y0245100D01*
X0259962Y0245740D02*
X0261886Y0245740D01*
X0261886Y0246380D02*
X0259962Y0246380D01*
X0259962Y0247020D02*
X0261886Y0247020D01*
X0261886Y0247660D02*
X0259962Y0247660D01*
X0259962Y0248300D02*
X0261886Y0248300D01*
X0261886Y0248940D02*
X0259962Y0248940D01*
X0256812Y0249446D02*
X0256812Y0243820D01*
X0256812Y0249446D02*
X0258736Y0249446D01*
X0258736Y0243820D01*
X0256812Y0243820D01*
X0256812Y0244460D02*
X0258736Y0244460D01*
X0258736Y0245100D02*
X0256812Y0245100D01*
X0256812Y0245740D02*
X0258736Y0245740D01*
X0258736Y0246380D02*
X0256812Y0246380D01*
X0256812Y0247020D02*
X0258736Y0247020D01*
X0258736Y0247660D02*
X0256812Y0247660D01*
X0256812Y0248300D02*
X0258736Y0248300D01*
X0258736Y0248940D02*
X0256812Y0248940D01*
X0253663Y0249446D02*
X0253663Y0243820D01*
X0253663Y0249446D02*
X0255587Y0249446D01*
X0255587Y0243820D01*
X0253663Y0243820D01*
X0253663Y0244460D02*
X0255587Y0244460D01*
X0255587Y0245100D02*
X0253663Y0245100D01*
X0253663Y0245740D02*
X0255587Y0245740D01*
X0255587Y0246380D02*
X0253663Y0246380D01*
X0253663Y0247020D02*
X0255587Y0247020D01*
X0255587Y0247660D02*
X0253663Y0247660D01*
X0253663Y0248300D02*
X0255587Y0248300D01*
X0255587Y0248940D02*
X0253663Y0248940D01*
X0250513Y0249446D02*
X0250513Y0243820D01*
X0250513Y0249446D02*
X0252437Y0249446D01*
X0252437Y0243820D01*
X0250513Y0243820D01*
X0250513Y0244460D02*
X0252437Y0244460D01*
X0252437Y0245100D02*
X0250513Y0245100D01*
X0250513Y0245740D02*
X0252437Y0245740D01*
X0252437Y0246380D02*
X0250513Y0246380D01*
X0250513Y0247020D02*
X0252437Y0247020D01*
X0252437Y0247660D02*
X0250513Y0247660D01*
X0250513Y0248300D02*
X0252437Y0248300D01*
X0252437Y0248940D02*
X0250513Y0248940D01*
X0247364Y0249446D02*
X0247364Y0243820D01*
X0247364Y0249446D02*
X0249288Y0249446D01*
X0249288Y0243820D01*
X0247364Y0243820D01*
X0247364Y0244460D02*
X0249288Y0244460D01*
X0249288Y0245100D02*
X0247364Y0245100D01*
X0247364Y0245740D02*
X0249288Y0245740D01*
X0249288Y0246380D02*
X0247364Y0246380D01*
X0247364Y0247020D02*
X0249288Y0247020D01*
X0249288Y0247660D02*
X0247364Y0247660D01*
X0247364Y0248300D02*
X0249288Y0248300D01*
X0249288Y0248940D02*
X0247364Y0248940D01*
X0244214Y0249446D02*
X0244214Y0243820D01*
X0244214Y0249446D02*
X0246138Y0249446D01*
X0246138Y0243820D01*
X0244214Y0243820D01*
X0244214Y0244460D02*
X0246138Y0244460D01*
X0246138Y0245100D02*
X0244214Y0245100D01*
X0244214Y0245740D02*
X0246138Y0245740D01*
X0246138Y0246380D02*
X0244214Y0246380D01*
X0244214Y0247020D02*
X0246138Y0247020D01*
X0246138Y0247660D02*
X0244214Y0247660D01*
X0244214Y0248300D02*
X0246138Y0248300D01*
X0246138Y0248940D02*
X0244214Y0248940D01*
X0241064Y0249446D02*
X0241064Y0243820D01*
X0241064Y0249446D02*
X0242988Y0249446D01*
X0242988Y0243820D01*
X0241064Y0243820D01*
X0241064Y0244460D02*
X0242988Y0244460D01*
X0242988Y0245100D02*
X0241064Y0245100D01*
X0241064Y0245740D02*
X0242988Y0245740D01*
X0242988Y0246380D02*
X0241064Y0246380D01*
X0241064Y0247020D02*
X0242988Y0247020D01*
X0242988Y0247660D02*
X0241064Y0247660D01*
X0241064Y0248300D02*
X0242988Y0248300D01*
X0242988Y0248940D02*
X0241064Y0248940D01*
X0239446Y0252988D02*
X0233820Y0252988D01*
X0239446Y0252988D02*
X0239446Y0251064D01*
X0233820Y0251064D01*
X0233820Y0252988D01*
X0233820Y0251704D02*
X0239446Y0251704D01*
X0239446Y0252344D02*
X0233820Y0252344D01*
X0233820Y0252984D02*
X0239446Y0252984D01*
X0239446Y0256138D02*
X0233820Y0256138D01*
X0239446Y0256138D02*
X0239446Y0254214D01*
X0233820Y0254214D01*
X0233820Y0256138D01*
X0233820Y0254854D02*
X0239446Y0254854D01*
X0239446Y0255494D02*
X0233820Y0255494D01*
X0233820Y0256134D02*
X0239446Y0256134D01*
X0239446Y0259288D02*
X0233820Y0259288D01*
X0239446Y0259288D02*
X0239446Y0257364D01*
X0233820Y0257364D01*
X0233820Y0259288D01*
X0233820Y0258004D02*
X0239446Y0258004D01*
X0239446Y0258644D02*
X0233820Y0258644D01*
X0233820Y0259284D02*
X0239446Y0259284D01*
X0239446Y0262437D02*
X0233820Y0262437D01*
X0239446Y0262437D02*
X0239446Y0260513D01*
X0233820Y0260513D01*
X0233820Y0262437D01*
X0233820Y0261153D02*
X0239446Y0261153D01*
X0239446Y0261793D02*
X0233820Y0261793D01*
X0233820Y0262433D02*
X0239446Y0262433D01*
X0239446Y0265587D02*
X0233820Y0265587D01*
X0239446Y0265587D02*
X0239446Y0263663D01*
X0233820Y0263663D01*
X0233820Y0265587D01*
X0233820Y0264303D02*
X0239446Y0264303D01*
X0239446Y0264943D02*
X0233820Y0264943D01*
X0233820Y0265583D02*
X0239446Y0265583D01*
X0239446Y0268736D02*
X0233820Y0268736D01*
X0239446Y0268736D02*
X0239446Y0266812D01*
X0233820Y0266812D01*
X0233820Y0268736D01*
X0233820Y0267452D02*
X0239446Y0267452D01*
X0239446Y0268092D02*
X0233820Y0268092D01*
X0233820Y0268732D02*
X0239446Y0268732D01*
X0239446Y0271886D02*
X0233820Y0271886D01*
X0239446Y0271886D02*
X0239446Y0269962D01*
X0233820Y0269962D01*
X0233820Y0271886D01*
X0233820Y0270602D02*
X0239446Y0270602D01*
X0239446Y0271242D02*
X0233820Y0271242D01*
X0233820Y0271882D02*
X0239446Y0271882D01*
X0239446Y0275036D02*
X0233820Y0275036D01*
X0239446Y0275036D02*
X0239446Y0273112D01*
X0233820Y0273112D01*
X0233820Y0275036D01*
X0233820Y0273752D02*
X0239446Y0273752D01*
X0239446Y0274392D02*
X0233820Y0274392D01*
X0233820Y0275032D02*
X0239446Y0275032D01*
X0241064Y0276654D02*
X0241064Y0282280D01*
X0242988Y0282280D01*
X0242988Y0276654D01*
X0241064Y0276654D01*
X0241064Y0277294D02*
X0242988Y0277294D01*
X0242988Y0277934D02*
X0241064Y0277934D01*
X0241064Y0278574D02*
X0242988Y0278574D01*
X0242988Y0279214D02*
X0241064Y0279214D01*
X0241064Y0279854D02*
X0242988Y0279854D01*
X0242988Y0280494D02*
X0241064Y0280494D01*
X0241064Y0281134D02*
X0242988Y0281134D01*
X0242988Y0281774D02*
X0241064Y0281774D01*
X0244214Y0282280D02*
X0244214Y0276654D01*
X0244214Y0282280D02*
X0246138Y0282280D01*
X0246138Y0276654D01*
X0244214Y0276654D01*
X0244214Y0277294D02*
X0246138Y0277294D01*
X0246138Y0277934D02*
X0244214Y0277934D01*
X0244214Y0278574D02*
X0246138Y0278574D01*
X0246138Y0279214D02*
X0244214Y0279214D01*
X0244214Y0279854D02*
X0246138Y0279854D01*
X0246138Y0280494D02*
X0244214Y0280494D01*
X0244214Y0281134D02*
X0246138Y0281134D01*
X0246138Y0281774D02*
X0244214Y0281774D01*
X0247364Y0282280D02*
X0247364Y0276654D01*
X0247364Y0282280D02*
X0249288Y0282280D01*
X0249288Y0276654D01*
X0247364Y0276654D01*
X0247364Y0277294D02*
X0249288Y0277294D01*
X0249288Y0277934D02*
X0247364Y0277934D01*
X0247364Y0278574D02*
X0249288Y0278574D01*
X0249288Y0279214D02*
X0247364Y0279214D01*
X0247364Y0279854D02*
X0249288Y0279854D01*
X0249288Y0280494D02*
X0247364Y0280494D01*
X0247364Y0281134D02*
X0249288Y0281134D01*
X0249288Y0281774D02*
X0247364Y0281774D01*
X0250513Y0282280D02*
X0250513Y0276654D01*
X0250513Y0282280D02*
X0252437Y0282280D01*
X0252437Y0276654D01*
X0250513Y0276654D01*
X0250513Y0277294D02*
X0252437Y0277294D01*
X0252437Y0277934D02*
X0250513Y0277934D01*
X0250513Y0278574D02*
X0252437Y0278574D01*
X0252437Y0279214D02*
X0250513Y0279214D01*
X0250513Y0279854D02*
X0252437Y0279854D01*
X0252437Y0280494D02*
X0250513Y0280494D01*
X0250513Y0281134D02*
X0252437Y0281134D01*
X0252437Y0281774D02*
X0250513Y0281774D01*
X0253663Y0282280D02*
X0253663Y0276654D01*
X0253663Y0282280D02*
X0255587Y0282280D01*
X0255587Y0276654D01*
X0253663Y0276654D01*
X0253663Y0277294D02*
X0255587Y0277294D01*
X0255587Y0277934D02*
X0253663Y0277934D01*
X0253663Y0278574D02*
X0255587Y0278574D01*
X0255587Y0279214D02*
X0253663Y0279214D01*
X0253663Y0279854D02*
X0255587Y0279854D01*
X0255587Y0280494D02*
X0253663Y0280494D01*
X0253663Y0281134D02*
X0255587Y0281134D01*
X0255587Y0281774D02*
X0253663Y0281774D01*
X0256812Y0282280D02*
X0256812Y0276654D01*
X0256812Y0282280D02*
X0258736Y0282280D01*
X0258736Y0276654D01*
X0256812Y0276654D01*
X0256812Y0277294D02*
X0258736Y0277294D01*
X0258736Y0277934D02*
X0256812Y0277934D01*
X0256812Y0278574D02*
X0258736Y0278574D01*
X0258736Y0279214D02*
X0256812Y0279214D01*
X0256812Y0279854D02*
X0258736Y0279854D01*
X0258736Y0280494D02*
X0256812Y0280494D01*
X0256812Y0281134D02*
X0258736Y0281134D01*
X0258736Y0281774D02*
X0256812Y0281774D01*
X0259962Y0282280D02*
X0259962Y0276654D01*
X0259962Y0282280D02*
X0261886Y0282280D01*
X0261886Y0276654D01*
X0259962Y0276654D01*
X0259962Y0277294D02*
X0261886Y0277294D01*
X0261886Y0277934D02*
X0259962Y0277934D01*
X0259962Y0278574D02*
X0261886Y0278574D01*
X0261886Y0279214D02*
X0259962Y0279214D01*
X0259962Y0279854D02*
X0261886Y0279854D01*
X0261886Y0280494D02*
X0259962Y0280494D01*
X0259962Y0281134D02*
X0261886Y0281134D01*
X0261886Y0281774D02*
X0259962Y0281774D01*
X0263112Y0282280D02*
X0263112Y0276654D01*
X0263112Y0282280D02*
X0265036Y0282280D01*
X0265036Y0276654D01*
X0263112Y0276654D01*
X0263112Y0277294D02*
X0265036Y0277294D01*
X0265036Y0277934D02*
X0263112Y0277934D01*
X0263112Y0278574D02*
X0265036Y0278574D01*
X0265036Y0279214D02*
X0263112Y0279214D01*
X0263112Y0279854D02*
X0265036Y0279854D01*
X0265036Y0280494D02*
X0263112Y0280494D01*
X0263112Y0281134D02*
X0265036Y0281134D01*
X0265036Y0281774D02*
X0263112Y0281774D01*
D18*
X0253050Y0263050D03*
D19*
X0199074Y0261800D03*
X0199074Y0266800D03*
X0199074Y0256800D03*
X0199074Y0251800D03*
X0199074Y0246800D03*
X0199074Y0241800D03*
X0199074Y0236800D03*
X0199074Y0231800D03*
X0177026Y0231800D03*
X0177026Y0236800D03*
X0177026Y0241800D03*
X0177026Y0246800D03*
X0177026Y0251800D03*
X0177026Y0256800D03*
X0177026Y0261800D03*
X0177026Y0266800D03*
D20*
X0164615Y0250668D03*
X0164615Y0248109D03*
X0164615Y0245550D03*
X0164615Y0242991D03*
X0164615Y0240432D03*
D21*
X0153493Y0234822D03*
X0153493Y0256278D03*
D22*
X0165422Y0255097D03*
X0165422Y0236003D03*
D23*
X0184989Y0392351D02*
X0192076Y0392351D01*
X0200343Y0407706D02*
X0200343Y0414792D01*
X0177509Y0414792D02*
X0177509Y0407706D01*
D24*
X0281800Y0447666D03*
X0289300Y0447666D03*
X0289300Y0455934D03*
X0281800Y0455934D03*
X0376800Y0455934D03*
X0384300Y0455934D03*
X0384300Y0447666D03*
X0376800Y0447666D03*
X0469300Y0447666D03*
X0476800Y0447666D03*
X0476800Y0455934D03*
X0469300Y0455934D03*
X0515166Y0454300D03*
X0523434Y0454300D03*
X0305934Y0354300D03*
X0297666Y0354300D03*
X0297666Y0344300D03*
X0305934Y0344300D03*
X0305934Y0334300D03*
X0297666Y0334300D03*
X0297666Y0324300D03*
X0305934Y0324300D03*
X0305934Y0314300D03*
X0297666Y0314300D03*
X0297666Y0304300D03*
X0305934Y0304300D03*
X0305934Y0294300D03*
X0297666Y0294300D03*
X0297666Y0284300D03*
X0305934Y0284300D03*
X0304300Y0233434D03*
X0311800Y0233434D03*
X0311800Y0225166D03*
X0304300Y0225166D03*
X0216800Y0225166D03*
X0209300Y0225166D03*
X0209300Y0233434D03*
X0216800Y0233434D03*
X0399300Y0233434D03*
X0406800Y0233434D03*
X0406800Y0225166D03*
X0399300Y0225166D03*
D25*
X0211239Y0448050D03*
X0211239Y0474300D03*
X0184861Y0474300D03*
X0184861Y0448050D03*
D26*
X0219300Y0368550D03*
X0219300Y0362550D03*
X0240550Y0347300D03*
X0240550Y0341300D03*
X0250550Y0341300D03*
X0250550Y0347300D03*
X0260550Y0347300D03*
X0260550Y0341300D03*
D27*
X0219300Y0365550D03*
D28*
X0219300Y0365550D03*
X0240550Y0344300D03*
X0250550Y0344300D03*
X0260550Y0344300D03*
D29*
X0531800Y0343050D03*
X0531800Y0353050D03*
X0531800Y0363050D03*
X0531800Y0373050D03*
X0531800Y0383050D03*
X0531800Y0333050D03*
D30*
X0194605Y0355417D03*
X0185550Y0355417D03*
X0176495Y0355417D03*
D31*
X0185550Y0379433D03*
D32*
X0234398Y0455028D03*
X0234398Y0459753D03*
X0234398Y0464477D03*
X0234398Y0469202D03*
X0234398Y0473926D03*
X0234398Y0478650D03*
X0234398Y0483375D03*
X0263926Y0478650D03*
X0263926Y0473926D03*
X0263926Y0469202D03*
X0263926Y0464477D03*
X0263926Y0459753D03*
X0263926Y0455028D03*
X0328887Y0455028D03*
X0328887Y0459753D03*
X0328887Y0464477D03*
X0328887Y0469202D03*
X0328887Y0473926D03*
X0328887Y0478650D03*
X0328887Y0483375D03*
X0358414Y0478650D03*
X0358414Y0473926D03*
X0358414Y0469202D03*
X0358414Y0464477D03*
X0358414Y0459753D03*
X0358414Y0455028D03*
X0423375Y0455028D03*
X0423375Y0459753D03*
X0423375Y0464477D03*
X0423375Y0469202D03*
X0423375Y0473926D03*
X0423375Y0478650D03*
X0423375Y0483375D03*
X0452902Y0478650D03*
X0452902Y0473926D03*
X0452902Y0469202D03*
X0452902Y0464477D03*
X0452902Y0459753D03*
X0452902Y0455028D03*
X0452902Y0223532D03*
X0452902Y0218808D03*
X0452902Y0214083D03*
X0452902Y0209359D03*
X0452902Y0204635D03*
X0452902Y0199910D03*
X0452902Y0195186D03*
X0423375Y0199910D03*
X0423375Y0204635D03*
X0423375Y0209359D03*
X0423375Y0214083D03*
X0423375Y0218808D03*
X0423375Y0223532D03*
X0358414Y0223532D03*
X0358414Y0218808D03*
X0358414Y0214083D03*
X0358414Y0209359D03*
X0358414Y0204635D03*
X0358414Y0199910D03*
X0358414Y0195186D03*
X0328887Y0199910D03*
X0328887Y0204635D03*
X0328887Y0209359D03*
X0328887Y0214083D03*
X0328887Y0218808D03*
X0328887Y0223532D03*
X0263926Y0223532D03*
X0263926Y0218808D03*
X0263926Y0214083D03*
X0263926Y0209359D03*
X0263926Y0204635D03*
X0263926Y0199910D03*
X0263926Y0195186D03*
X0234398Y0199910D03*
X0234398Y0204635D03*
X0234398Y0209359D03*
X0234398Y0214083D03*
X0234398Y0218808D03*
X0234398Y0223532D03*
D33*
X0242469Y0230028D03*
X0246800Y0230028D03*
X0251524Y0230028D03*
X0255855Y0230028D03*
X0336957Y0230028D03*
X0341288Y0230028D03*
X0346013Y0230028D03*
X0350343Y0230028D03*
X0431446Y0230028D03*
X0435776Y0230028D03*
X0440501Y0230028D03*
X0444831Y0230028D03*
X0444831Y0448532D03*
X0440501Y0448532D03*
X0435776Y0448532D03*
X0431446Y0448532D03*
X0350343Y0448532D03*
X0346013Y0448532D03*
X0341288Y0448532D03*
X0336957Y0448532D03*
X0255855Y0448532D03*
X0251524Y0448532D03*
X0246800Y0448532D03*
X0242469Y0448532D03*
D34*
X0397105Y0343926D03*
X0403995Y0343926D03*
X0403995Y0334674D03*
X0397105Y0334674D03*
X0397105Y0308926D03*
X0403995Y0308926D03*
X0403995Y0299674D03*
X0397105Y0299674D03*
X0286495Y0271426D03*
X0279605Y0271426D03*
X0279605Y0262174D03*
X0286495Y0262174D03*
X0217745Y0259674D03*
X0210855Y0259674D03*
X0210855Y0268926D03*
X0217745Y0268926D03*
D35*
X0162548Y0197548D03*
X0162548Y0481013D03*
X0524753Y0481013D03*
X0524753Y0197548D03*
D36*
X0490078Y0437194D03*
D37*
X0490078Y0433060D03*
X0490078Y0428729D03*
X0490078Y0424398D03*
X0490078Y0420068D03*
X0490078Y0415737D03*
X0490078Y0407076D03*
D38*
X0490078Y0411406D03*
D39*
X0514290Y0396702D03*
X0528857Y0396702D03*
D40*
X0532696Y0410481D03*
X0532696Y0433985D03*
D41*
X0491456Y0441957D03*
D42*
X0490570Y0397391D03*
D43*
X0168759Y0265550D03*
X0157341Y0265550D03*
D44*
X0198719Y0300520D03*
X0198719Y0310363D03*
X0198719Y0318237D03*
X0198719Y0328080D03*
D45*
X0188050Y0340166D03*
X0188050Y0288434D03*
D46*
X0226800Y0338050D03*
X0220550Y0405550D03*
D47*
X0220550Y0395550D03*
X0216800Y0338050D03*
D48*
X0298800Y0271150D03*
X0300800Y0271150D03*
X0302800Y0271150D03*
X0304800Y0271150D03*
X0304800Y0259950D03*
X0302800Y0259950D03*
X0300800Y0259950D03*
X0298800Y0259950D03*
D49*
X0325363Y0261810D03*
X0325363Y0269290D03*
X0333237Y0265550D03*
D50*
X0258050Y0409300D03*
D51*
X0258050Y0376500D03*
X0251350Y0376500D03*
X0244650Y0376500D03*
X0264750Y0376500D03*
X0271450Y0376500D03*
D52*
X0360550Y0399457D03*
X0360550Y0419143D03*
D53*
X0328788Y0406800D03*
X0289812Y0406800D03*
D54*
X0290511Y0374300D03*
X0310589Y0374300D03*
D55*
X0446300Y0430550D03*
X0451800Y0430550D03*
X0457300Y0430550D03*
D56*
X0451800Y0421987D03*
X0448060Y0414113D03*
X0455540Y0414113D03*
D57*
X0475818Y0214529D02*
X0483294Y0214529D01*
X0475818Y0214529D02*
X0475818Y0216571D01*
X0483294Y0216571D01*
X0483294Y0214529D01*
X0483294Y0215209D02*
X0475818Y0215209D01*
X0475818Y0215889D02*
X0483294Y0215889D01*
X0483294Y0216569D02*
X0475818Y0216569D01*
X0475818Y0209529D02*
X0483294Y0209529D01*
X0475818Y0209529D02*
X0475818Y0211571D01*
X0483294Y0211571D01*
X0483294Y0209529D01*
X0483294Y0210209D02*
X0475818Y0210209D01*
X0475818Y0210889D02*
X0483294Y0210889D01*
X0483294Y0211569D02*
X0475818Y0211569D01*
X0475818Y0204529D02*
X0483294Y0204529D01*
X0475818Y0204529D02*
X0475818Y0206571D01*
X0483294Y0206571D01*
X0483294Y0204529D01*
X0483294Y0205209D02*
X0475818Y0205209D01*
X0475818Y0205889D02*
X0483294Y0205889D01*
X0483294Y0206569D02*
X0475818Y0206569D01*
X0475818Y0199529D02*
X0483294Y0199529D01*
X0475818Y0199529D02*
X0475818Y0201571D01*
X0483294Y0201571D01*
X0483294Y0199529D01*
X0483294Y0200209D02*
X0475818Y0200209D01*
X0475818Y0200889D02*
X0483294Y0200889D01*
X0483294Y0201569D02*
X0475818Y0201569D01*
X0495306Y0199529D02*
X0502782Y0199529D01*
X0495306Y0199529D02*
X0495306Y0201571D01*
X0502782Y0201571D01*
X0502782Y0199529D01*
X0502782Y0200209D02*
X0495306Y0200209D01*
X0495306Y0200889D02*
X0502782Y0200889D01*
X0502782Y0201569D02*
X0495306Y0201569D01*
X0495306Y0204529D02*
X0502782Y0204529D01*
X0495306Y0204529D02*
X0495306Y0206571D01*
X0502782Y0206571D01*
X0502782Y0204529D01*
X0502782Y0205209D02*
X0495306Y0205209D01*
X0495306Y0205889D02*
X0502782Y0205889D01*
X0502782Y0206569D02*
X0495306Y0206569D01*
X0495306Y0209529D02*
X0502782Y0209529D01*
X0495306Y0209529D02*
X0495306Y0211571D01*
X0502782Y0211571D01*
X0502782Y0209529D01*
X0502782Y0210209D02*
X0495306Y0210209D01*
X0495306Y0210889D02*
X0502782Y0210889D01*
X0502782Y0211569D02*
X0495306Y0211569D01*
X0495306Y0214529D02*
X0502782Y0214529D01*
X0495306Y0214529D02*
X0495306Y0216571D01*
X0502782Y0216571D01*
X0502782Y0214529D01*
X0502782Y0215209D02*
X0495306Y0215209D01*
X0495306Y0215889D02*
X0502782Y0215889D01*
X0502782Y0216569D02*
X0495306Y0216569D01*
M02*
